<svg xmlns="http://www.w3.org/2000/svg" xmlns:xlink="http://www.w3.org/1999/xlink" width="300" zoomAndPan="magnify" viewBox="0 0 224.87999 112.499997" height="150" preserveAspectRatio="xMidYMid meet" version="1.0"><defs><clipPath id="08f4ea81e9"><path d="M 0.4375 51 L 20 51 L 20 72 L 0.4375 72 Z M 0.4375 51 " clip-rule="nonzero"/></clipPath><clipPath id="7f0375ef13"><path d="M 0.4375 27 L 20 27 L 20 48 L 0.4375 48 Z M 0.4375 27 " clip-rule="nonzero"/></clipPath><clipPath id="949ff084dc"><path d="M 49 26.78125 L 224.324219 26.78125 L 224.324219 85.023438 L 49 85.023438 Z M 49 26.78125 " clip-rule="nonzero"/></clipPath></defs><path fill="#87d447" d="M 35.15625 27.277344 C 40.6875 27.277344 43.828125 31.246094 43.828125 35.671875 C 43.828125 42.617188 38.519531 47.121094 28.949219 47.121094 C 27.601562 47.121094 26.105469 47.046875 24.535156 46.96875 C 24.460938 45.367188 24.386719 43.839844 24.386719 42.464844 C 24.386719 32.695312 28.796875 27.277344 35.15625 27.277344 Z M 35.15625 27.277344 " fill-opacity="1" fill-rule="nonzero"/><path fill="#50afcd" d="M 35.15625 71.542969 C 28.796875 71.542969 24.386719 66.125 24.386719 56.355469 C 24.386719 54.980469 24.460938 53.457031 24.535156 51.851562 C 26.105469 51.777344 27.601562 51.699219 28.949219 51.699219 C 38.519531 51.699219 43.828125 56.203125 43.828125 63.148438 C 43.828125 67.574219 40.6875 71.542969 35.15625 71.542969 Z M 35.15625 71.542969 " fill-opacity="1" fill-rule="nonzero"/><g clip-path="url(#08f4ea81e9)"><path fill="#efaa02" d="M 9.128906 71.542969 C 3.59375 71.542969 0.453125 67.574219 0.453125 63.148438 C 0.453125 56.203125 5.761719 51.699219 15.335938 51.699219 C 16.683594 51.699219 18.179688 51.777344 19.75 51.851562 C 19.824219 53.457031 19.898438 54.980469 19.898438 56.355469 C 19.898438 66.125 15.484375 71.542969 9.128906 71.542969 Z M 9.128906 71.542969 " fill-opacity="1" fill-rule="nonzero"/></g><g clip-path="url(#7f0375ef13)"><path fill="#d95423" d="M 9.128906 27.277344 C 15.484375 27.277344 19.898438 32.695312 19.898438 42.464844 C 19.898438 43.839844 19.824219 45.367188 19.75 46.96875 C 18.179688 47.046875 16.683594 47.121094 15.335938 47.121094 C 5.761719 47.121094 0.453125 42.617188 0.453125 35.671875 C 0.453125 31.246094 3.59375 27.277344 9.128906 27.277344 Z M 9.128906 27.277344 " fill-opacity="1" fill-rule="nonzero"/></g><g clip-path="url(#949ff084dc)"><path fill="#3c3c3c" d="M 70.386719 67.472656 L 70.386719 68.214844 C 70.386719 69.765625 69.597656 71.566406 65.964844 71.566406 C 63.96875 71.566406 62.574219 70.820312 61.96875 69.144531 C 61.242188 70.632812 59.425781 71.503906 57.308594 71.503906 C 52.160156 71.503906 49.4375 67.285156 49.4375 56.308594 C 49.4375 45.328125 52.160156 41.109375 57.308594 41.109375 C 59.730469 41.109375 61.121094 42.101562 61.605469 43.28125 L 61.605469 27.960938 C 61.605469 27.28125 62.089844 26.78125 62.757812 26.78125 L 67.902344 26.78125 C 68.570312 26.78125 69.054688 27.28125 69.054688 27.960938 L 69.054688 65.488281 C 69.054688 66.914062 69.476562 67.472656 70.386719 67.472656 Z M 59.851562 65.859375 C 60.578125 65.859375 61.121094 65.671875 61.605469 65.425781 L 61.605469 47.191406 C 61.121094 46.941406 60.578125 46.753906 59.851562 46.753906 C 58.15625 46.753906 56.882812 47.5 56.882812 56.308594 C 56.882812 65.050781 58.15625 65.859375 59.851562 65.859375 Z M 92.003906 68.214844 L 92.003906 67.472656 C 91.09375 67.472656 90.671875 66.914062 90.671875 65.488281 L 90.671875 49.855469 C 90.671875 43.777344 87.582031 41.050781 81.769531 41.050781 C 76.804688 41.050781 72.929688 43.652344 72.929688 49.546875 C 72.929688 50.664062 73.714844 51.035156 74.445312 51.035156 L 78.199219 51.035156 C 79.046875 51.035156 79.347656 50.539062 79.289062 49.359375 C 79.226562 48.058594 79.53125 46.507812 81.46875 46.507812 C 83.222656 46.507812 83.648438 47.808594 83.648438 49.296875 L 83.648438 53.949219 C 82.679688 53.765625 81.589844 53.578125 80.015625 53.578125 C 74.078125 53.578125 71.898438 57.917969 71.898438 62.507812 C 71.898438 67.285156 73.714844 71.566406 78.621094 71.566406 C 81.226562 71.566406 83.164062 70.757812 83.949219 69.085938 C 84.433594 70.820312 85.523438 71.566406 87.523438 71.566406 C 91.214844 71.566406 92.003906 69.765625 92.003906 68.214844 Z M 81.226562 66.664062 C 82.195312 66.726562 82.980469 66.355469 83.648438 65.859375 L 83.648438 57.980469 C 82.980469 57.917969 82.4375 57.917969 81.890625 57.917969 C 79.652344 57.980469 78.925781 59.71875 78.925781 62.570312 C 78.925781 65.300781 79.652344 66.539062 81.226562 66.664062 Z M 102.054688 70.015625 L 102.054688 42.601562 C 102.054688 41.917969 101.570312 41.421875 100.902344 41.421875 L 95.757812 41.421875 C 95.089844 41.421875 94.605469 41.917969 94.605469 42.601562 L 94.605469 70.015625 C 94.605469 70.695312 95.089844 71.191406 95.757812 71.191406 L 100.902344 71.191406 C 101.570312 71.191406 102.054688 70.695312 102.054688 70.015625 Z M 98.300781 28.953125 C 100.480469 28.953125 102.175781 30.691406 102.175781 32.921875 C 102.175781 35.09375 100.480469 36.894531 98.300781 36.894531 C 96.179688 36.894531 94.425781 35.09375 94.425781 32.921875 C 94.425781 30.691406 96.179688 28.953125 98.300781 28.953125 Z M 113.378906 70.015625 L 113.378906 27.960938 C 113.378906 27.28125 112.894531 26.78125 112.226562 26.78125 L 107.078125 26.78125 C 106.414062 26.78125 105.929688 27.28125 105.929688 27.960938 L 105.929688 70.015625 C 105.929688 70.695312 106.414062 71.191406 107.078125 71.191406 L 112.226562 71.191406 C 112.894531 71.191406 113.378906 70.695312 113.378906 70.015625 Z M 136.808594 42.601562 L 136.808594 71.378906 C 136.808594 80.433594 133.417969 85.023438 125.488281 85.023438 C 123.367188 85.023438 119.492188 84.28125 119.492188 82.914062 L 119.492188 78.574219 C 119.492188 77.953125 119.796875 77.644531 120.339844 77.644531 C 120.703125 77.644531 121.25 77.828125 121.792969 78.078125 C 122.582031 78.386719 123.671875 78.636719 124.640625 78.636719 C 128.273438 78.636719 129.363281 76.464844 129.363281 71.6875 L 129.363281 69.332031 C 128.210938 70.449219 126.214844 71.566406 123.730469 71.566406 C 119.25 71.566406 117.191406 68.835938 117.191406 63.8125 L 117.191406 42.601562 C 117.191406 41.917969 117.675781 41.421875 118.34375 41.421875 L 123.488281 41.421875 C 124.15625 41.421875 124.640625 41.917969 124.640625 42.601562 L 124.640625 63.625 C 124.640625 65.175781 125.304688 65.796875 126.578125 65.796875 C 127.363281 65.796875 128.453125 65.546875 129.363281 65.050781 L 129.363281 42.601562 C 129.363281 41.917969 129.847656 41.421875 130.511719 41.421875 L 135.660156 41.421875 C 136.324219 41.421875 136.808594 41.917969 136.808594 42.601562 Z M 160.304688 70.015625 L 160.304688 48.800781 C 160.304688 43.777344 158.246094 41.046875 153.824219 41.046875 C 151.222656 41.046875 149.164062 42.414062 148.132812 43.59375 L 148.132812 27.960938 C 148.132812 27.28125 147.648438 26.78125 146.984375 26.78125 L 141.835938 26.78125 C 141.167969 26.78125 140.683594 27.28125 140.683594 27.960938 L 140.683594 70.015625 C 140.683594 70.695312 141.167969 71.191406 141.835938 71.191406 L 146.984375 71.191406 C 147.648438 71.191406 148.132812 70.695312 148.132812 70.015625 L 148.132812 47.5625 C 149.101562 47.066406 150.191406 46.816406 150.980469 46.816406 C 152.25 46.816406 152.855469 47.4375 152.855469 48.988281 L 152.855469 70.015625 C 152.855469 70.695312 153.339844 71.191406 154.007812 71.191406 L 159.152344 71.191406 C 159.820312 71.191406 160.304688 70.695312 160.304688 70.015625 Z M 185.007812 67.472656 L 185.007812 68.214844 C 185.007812 69.765625 184.222656 71.566406 180.589844 71.566406 C 178.53125 71.566406 177.136719 70.757812 176.53125 69.023438 C 175.382812 70.261719 173.320312 71.566406 170.597656 71.566406 C 166.117188 71.566406 164.058594 68.835938 164.058594 63.8125 L 164.058594 42.601562 C 164.058594 41.917969 164.542969 41.421875 165.207031 41.421875 L 170.355469 41.421875 C 171.023438 41.421875 171.503906 41.917969 171.503906 42.601562 L 171.503906 63.625 C 171.503906 65.175781 172.171875 65.796875 173.445312 65.796875 C 174.230469 65.796875 175.320312 65.546875 176.230469 65.050781 L 176.230469 42.601562 C 176.230469 41.917969 176.710938 41.421875 177.378906 41.421875 L 182.527344 41.421875 C 183.191406 41.421875 183.675781 41.917969 183.675781 42.601562 L 183.675781 65.488281 C 183.675781 66.914062 184.101562 67.472656 185.007812 67.472656 Z M 207.230469 70.015625 L 207.230469 48.800781 C 207.230469 43.777344 205.171875 41.050781 200.753906 41.050781 C 197.964844 41.050781 196.027344 42.351562 194.878906 43.53125 C 194.453125 42.105469 193.183594 41.421875 191.730469 41.421875 L 188.761719 41.421875 C 188.097656 41.421875 187.613281 41.917969 187.613281 42.601562 L 187.613281 70.015625 C 187.613281 70.695312 188.097656 71.191406 188.761719 71.191406 L 193.910156 71.191406 C 194.574219 71.191406 195.058594 70.695312 195.058594 70.015625 L 195.058594 47.5625 C 196.027344 47.066406 197.117188 46.816406 197.90625 46.816406 C 199.175781 46.816406 199.78125 47.4375 199.78125 48.988281 L 199.78125 70.015625 C 199.78125 70.695312 200.265625 71.191406 200.933594 71.191406 L 206.082031 71.191406 C 206.746094 71.191406 207.230469 70.695312 207.230469 70.015625 Z M 222.914062 46.507812 L 219.824219 46.507812 L 219.824219 64.058594 C 219.824219 65.488281 220.1875 66.105469 221.277344 66.105469 C 221.746094 66.105469 222.035156 66.015625 222.488281 65.871094 C 222.566406 65.847656 222.644531 65.824219 222.730469 65.796875 C 222.816406 65.769531 222.894531 65.738281 222.96875 65.710938 C 223.210938 65.621094 223.40625 65.550781 223.640625 65.550781 C 224.125 65.550781 224.425781 65.796875 224.425781 66.542969 L 224.425781 67.78125 C 224.425781 69.085938 224.0625 69.765625 223.398438 70.199219 C 221.761719 71.253906 220.25 71.628906 217.949219 71.628906 C 214.316406 71.628906 212.378906 69.703125 212.378906 65.859375 L 212.378906 46.507812 L 210.316406 46.507812 C 209.652344 46.507812 209.167969 46.011719 209.167969 45.328125 L 209.167969 42.601562 C 209.167969 41.917969 209.652344 41.421875 210.316406 41.421875 L 212.378906 41.421875 L 212.378906 35.40625 C 212.378906 34.722656 212.859375 34.226562 213.527344 34.226562 L 218.675781 34.226562 C 219.339844 34.226562 219.824219 34.722656 219.824219 35.40625 L 219.824219 41.421875 L 222.914062 41.421875 C 223.578125 41.421875 224.0625 41.917969 224.0625 42.601562 L 224.0625 45.328125 C 224.0625 46.011719 223.578125 46.507812 222.914062 46.507812 Z M 222.914062 46.507812 " fill-opacity="1" fill-rule="evenodd"/></g></svg>