<svg xmlns="http://www.w3.org/2000/svg" xmlns:xlink="http://www.w3.org/1999/xlink" width="300" zoomAndPan="magnify" viewBox="0 0 224.87999 112.499997" height="150" preserveAspectRatio="xMidYMid meet" version="1.0"><defs><clipPath id="b829e607a7"><path d="M 0.4375 0 L 224.324219 0 L 224.324219 112.003906 L 0.4375 112.003906 Z M 0.4375 0 " clip-rule="nonzero"/></clipPath><clipPath id="b11b7fb4b4"><path d="M 0.4375 39.199219 L 224.324219 39.199219 L 224.324219 72.800781 L 0.4375 72.800781 Z M 0.4375 39.199219 " clip-rule="nonzero"/></clipPath><clipPath id="985aba6c1f"><path d="M 6 43 L 32 43 L 32 69.832031 L 6 69.832031 Z M 6 43 " clip-rule="nonzero"/></clipPath><clipPath id="1f431a11ae"><path d="M 4.859375 42.203125 L 33 42.203125 L 33 69.832031 L 4.859375 69.832031 Z M 4.859375 42.203125 " clip-rule="nonzero"/></clipPath><clipPath id="2728f2a95e"><path d="M 36 45 L 219.90625 45 L 219.90625 68 L 36 68 Z M 36 45 " clip-rule="nonzero"/></clipPath></defs><g clip-path="url(#b829e607a7)"><path fill="#ffffff" d="M 0.4375 0 L 224.441406 0 L 224.441406 119.46875 L 0.4375 119.46875 Z M 0.4375 0 " fill-opacity="1" fill-rule="nonzero"/><path fill="#ffffff" d="M 0.4375 0 L 224.441406 0 L 224.441406 112.003906 L 0.4375 112.003906 Z M 0.4375 0 " fill-opacity="1" fill-rule="nonzero"/><path fill="#ffffff" d="M 0.4375 0 L 224.441406 0 L 224.441406 112.003906 L 0.4375 112.003906 Z M 0.4375 0 " fill-opacity="1" fill-rule="nonzero"/></g><g clip-path="url(#b11b7fb4b4)"><path fill="#011e29" d="M 0.4375 39.199219 L 224.617188 39.199219 L 224.617188 72.800781 L 0.4375 72.800781 Z M 0.4375 39.199219 " fill-opacity="1" fill-rule="nonzero"/></g><g clip-path="url(#985aba6c1f)"><path fill="#ffffff" d="M 31.492188 56.128906 C 31.492188 56.976562 31.410156 57.816406 31.25 58.644531 C 31.085938 59.476562 30.847656 60.285156 30.53125 61.066406 C 30.214844 61.851562 29.824219 62.59375 29.367188 63.296875 C 28.90625 64.003906 28.382812 64.65625 27.796875 65.253906 C 27.210938 65.851562 26.574219 66.386719 25.886719 66.859375 C 25.195312 67.328125 24.46875 67.726562 23.703125 68.050781 C 22.9375 68.375 22.148438 68.621094 21.335938 68.785156 C 20.523438 68.949219 19.703125 69.03125 18.875 69.03125 C 18.046875 69.03125 17.226562 68.949219 16.414062 68.785156 C 15.601562 68.621094 14.8125 68.375 14.050781 68.050781 C 13.285156 67.726562 12.558594 67.328125 11.867188 66.859375 C 11.179688 66.386719 10.542969 65.851562 9.957031 65.253906 C 9.371094 64.65625 8.847656 64.003906 8.386719 63.296875 C 7.925781 62.59375 7.539062 61.851562 7.222656 61.066406 C 6.90625 60.285156 6.664062 59.476562 6.503906 58.644531 C 6.34375 57.816406 6.261719 56.976562 6.261719 56.128906 C 6.261719 55.28125 6.34375 54.441406 6.503906 53.613281 C 6.664062 52.78125 6.90625 51.972656 7.222656 51.191406 C 7.539062 50.40625 7.925781 49.664062 8.386719 48.960938 C 8.847656 48.253906 9.371094 47.601562 9.957031 47.003906 C 10.542969 46.40625 11.179688 45.871094 11.867188 45.398438 C 12.558594 44.929688 13.285156 44.53125 14.050781 44.207031 C 14.8125 43.882812 15.601562 43.636719 16.414062 43.472656 C 17.226562 43.308594 18.046875 43.222656 18.875 43.222656 C 19.703125 43.222656 20.523438 43.308594 21.335938 43.472656 C 22.148438 43.636719 22.9375 43.882812 23.703125 44.207031 C 24.46875 44.53125 25.195312 44.929688 25.886719 45.398438 C 26.574219 45.871094 27.210938 46.40625 27.796875 47.003906 C 28.382812 47.601562 28.90625 48.253906 29.367188 48.960938 C 29.824219 49.664062 30.214844 50.40625 30.53125 51.191406 C 30.847656 51.972656 31.085938 52.78125 31.25 53.613281 C 31.410156 54.441406 31.492188 55.28125 31.492188 56.128906 Z M 31.492188 56.128906 " fill-opacity="1" fill-rule="nonzero"/></g><g clip-path="url(#1f431a11ae)"><path fill="#00b1cd" d="M 25.582031 58.886719 L 23.511719 60.023438 L 23.511719 60.058594 C 24.109375 60.335938 24.734375 60.460938 25.394531 60.4375 C 25.882812 60.453125 26.359375 60.390625 26.824219 60.25 L 26.824219 51.742188 L 26.261719 51.703125 L 25.546875 52.386719 L 25.546875 58.890625 Z M 9.457031 54.652344 L 9.457031 54.464844 C 9.457031 52.914062 9.496094 52.761719 11.152344 50.53125 L 11.117188 50.492188 L 9.761719 51.25 L 8.746094 51.25 C 8.21875 51.25 8.03125 51.285156 7.839844 51.515625 C 7.707031 51.679688 7.65625 51.871094 7.691406 52.082031 L 7.503906 52.082031 C 7.328125 51.816406 7.242188 51.527344 7.242188 51.210938 C 7.214844 50.742188 7.367188 50.339844 7.691406 50.003906 C 8.113281 49.628906 8.605469 49.476562 9.160156 49.550781 L 10.632812 49.664062 L 11.648438 49.550781 L 11.800781 49.625 L 11.800781 57.871094 C 11.800781 58.855469 11.761719 59.15625 9.648438 61.199219 L 9.6875 61.277344 L 11.570312 60.707031 L 12.738281 60.707031 L 12.738281 49.46875 L 13.304688 49.46875 L 13.304688 54.652344 L 15.414062 54.652344 L 15.414062 50.90625 L 18.089844 49.433594 L 18.242188 49.507812 L 17.941406 51.742188 L 17.941406 59.988281 L 19.222656 60.933594 L 19.222656 61.082031 L 17.261719 62.371094 L 17.109375 62.371094 L 15.453125 60.78125 L 15.453125 56.277344 L 13.339844 56.277344 L 13.339844 61.347656 L 11.757812 62.40625 L 8.066406 62.40625 L 7.992188 62.257812 C 9.421875 60.476562 9.539062 59.949219 9.539062 58.925781 L 9.539062 56.316406 L 7.164062 56.316406 L 7.125 56.164062 L 8.179688 54.691406 L 9.460938 54.691406 Z M 21.511719 56.429688 C 21.46875 57.59375 21.847656 58.605469 22.644531 59.457031 C 22.761719 59.59375 22.898438 59.707031 23.058594 59.796875 L 23.09375 59.796875 L 23.546875 59.226562 L 23.546875 52.722656 L 25.507812 51.664062 L 25.507812 51.625 C 24.78125 51.5 24.054688 51.425781 23.320312 51.398438 C 21.890625 51.398438 21.324219 51.664062 20.910156 52.082031 C 20.640625 52.367188 20.492188 52.710938 20.457031 53.101562 L 20.15625 53.101562 C 20.015625 52.738281 19.941406 52.359375 19.929688 51.96875 C 19.910156 51.300781 20.136719 50.734375 20.609375 50.265625 C 21.175781 49.699219 22.078125 49.355469 23.507812 49.355469 C 24.5625 49.355469 26.296875 49.695312 27.765625 49.695312 C 28.78125 49.695312 29.082031 49.546875 29.535156 48.902344 L 29.722656 48.9375 C 29.382812 51.132812 28.554688 51.738281 27.425781 51.738281 L 27.3125 51.738281 L 27.3125 60.023438 C 28.234375 59.683594 28.925781 59.078125 29.382812 58.207031 L 29.570312 58.242188 C 29.535156 59.292969 29.148438 60.191406 28.402344 60.929688 C 27.890625 61.414062 27.300781 61.78125 26.644531 62.03125 C 25.984375 62.28125 25.300781 62.390625 24.597656 62.367188 C 24.261719 62.386719 23.929688 62.371094 23.59375 62.324219 C 23.261719 62.273438 22.941406 62.1875 22.625 62.070312 C 22.308594 61.953125 22.011719 61.804688 21.726562 61.625 C 21.441406 61.445312 21.179688 61.238281 20.9375 61 C 20.699219 60.765625 20.484375 60.511719 20.296875 60.230469 C 20.109375 59.949219 19.953125 59.65625 19.824219 59.34375 C 19.699219 59.03125 19.605469 58.707031 19.546875 58.378906 C 19.488281 58.046875 19.464844 57.710938 19.472656 57.375 C 19.460938 56.136719 19.890625 55.078125 20.753906 54.199219 C 21.304688 53.640625 21.945312 53.222656 22.675781 52.949219 L 22.789062 53.101562 C 21.949219 54.050781 21.523438 55.160156 21.507812 56.429688 M 32.734375 56.011719 C 32.757812 54.191406 32.429688 52.433594 31.75 50.742188 C 31.070312 49.046875 30.09375 47.554688 28.816406 46.253906 C 28.148438 45.609375 27.425781 45.035156 26.652344 44.53125 C 25.875 44.027344 25.054688 43.601562 24.199219 43.253906 C 23.339844 42.910156 22.457031 42.648438 21.546875 42.46875 C 20.636719 42.292969 19.722656 42.207031 18.796875 42.207031 C 17.871094 42.207031 16.953125 42.292969 16.042969 42.46875 C 15.136719 42.648438 14.253906 42.910156 13.394531 43.253906 C 12.535156 43.601562 11.71875 44.027344 10.941406 44.53125 C 10.164062 45.035156 9.441406 45.609375 8.777344 46.253906 C 8.152344 46.902344 7.597656 47.605469 7.109375 48.363281 C 6.621094 49.121094 6.210938 49.917969 5.875 50.753906 C 5.539062 51.589844 5.285156 52.449219 5.117188 53.335938 C 4.945312 54.21875 4.859375 55.113281 4.859375 56.011719 C 4.859375 56.914062 4.945312 57.804688 5.117188 58.691406 C 5.285156 59.574219 5.539062 60.433594 5.875 61.269531 C 6.210938 62.105469 6.621094 62.902344 7.109375 63.660156 C 7.597656 64.417969 8.152344 65.121094 8.777344 65.769531 C 9.441406 66.414062 10.164062 66.988281 10.941406 67.492188 C 11.71875 67.996094 12.535156 68.421875 13.394531 68.769531 C 14.253906 69.113281 15.136719 69.375 16.042969 69.554688 C 16.953125 69.730469 17.871094 69.816406 18.796875 69.816406 C 19.722656 69.816406 20.640625 69.730469 21.546875 69.554688 C 22.457031 69.375 23.339844 69.113281 24.199219 68.769531 C 25.054688 68.421875 25.875 67.996094 26.652344 67.492188 C 27.425781 66.988281 28.148438 66.414062 28.816406 65.769531 C 30.085938 64.464844 31.058594 62.96875 31.738281 61.277344 C 32.417969 59.589844 32.75 57.832031 32.734375 56.011719 " fill-opacity="1" fill-rule="nonzero"/></g><g clip-path="url(#2728f2a95e)"><path fill="#ffffff" d="M 43.027344 66.257812 L 42.617188 66.570312 C 41.96875 66.125 41.253906 65.917969 40.46875 65.941406 C 39.59375 65.945312 38.765625 66.136719 37.980469 66.527344 L 37.980469 66.503906 C 38.867188 65.921875 39.84375 65.640625 40.902344 65.65625 C 41.683594 65.613281 42.390625 65.816406 43.03125 66.261719 M 209.683594 65.898438 C 209.707031 65.734375 209.773438 65.589844 209.878906 65.460938 C 210.152344 65.375 210.433594 65.332031 210.722656 65.339844 C 211.976562 65.28125 213.070312 65.671875 214.007812 66.503906 L 213.621094 66.746094 C 212.800781 65.945312 211.472656 65.730469 210.578125 65.730469 C 210.265625 65.726562 209.96875 65.78125 209.683594 65.898438 M 104.726562 65.898438 C 104.75 65.734375 104.816406 65.589844 104.917969 65.460938 C 105.195312 65.375 105.476562 65.332031 105.765625 65.339844 C 106.953125 65.308594 107.984375 65.699219 108.859375 66.503906 L 108.472656 66.746094 C 107.644531 66.058594 106.695312 65.71875 105.621094 65.730469 C 105.3125 65.730469 105.015625 65.785156 104.726562 65.898438 M 64.367188 64.300781 C 65.070312 65.074219 65.859375 65.742188 66.738281 66.3125 L 66.253906 66.625 C 65.390625 66.054688 64.617188 65.386719 63.933594 64.613281 Z M 179.59375 64.300781 C 180.296875 65.074219 181.085938 65.742188 181.960938 66.3125 L 181.476562 66.625 C 180.617188 66.054688 179.84375 65.386719 179.15625 64.613281 Z M 137.664062 64.300781 C 138.367188 65.074219 139.15625 65.742188 140.03125 66.3125 L 139.546875 66.625 C 138.6875 66.054688 137.914062 65.386719 137.226562 64.613281 Z M 172.390625 64.15625 C 173.132812 65.019531 173.992188 65.738281 174.976562 66.3125 L 174.496094 66.625 C 173.539062 66.035156 172.695312 65.316406 171.957031 64.472656 Z M 57.140625 64.15625 C 57.886719 65.011719 58.75 65.730469 59.726562 66.3125 L 59.242188 66.625 C 58.289062 66.035156 57.441406 65.316406 56.703125 64.472656 Z M 116.878906 63.84375 C 117.902344 64.839844 119.027344 65.695312 120.265625 66.410156 L 119.78125 66.746094 C 118.558594 66.027344 117.445312 65.164062 116.445312 64.15625 Z M 126.738281 66.625 C 125.847656 66.097656 125.09375 65.417969 124.46875 64.59375 L 124.46875 62.21875 C 124.476562 61.503906 124.445312 60.796875 124.371094 60.085938 L 124.878906 59.894531 C 124.902344 60.476562 124.949219 61.226562 124.949219 61.976562 L 124.949219 64.417969 C 125.582031 65.195312 126.339844 65.816406 127.222656 66.285156 Z M 216.203125 64.667969 L 216.203125 60.476562 L 214.777344 59.851562 L 215.066406 59.535156 L 216.6875 60.238281 L 216.6875 65.046875 L 216.613281 65.070312 Z M 111.054688 64.667969 L 111.054688 60.476562 L 109.628906 59.851562 L 109.917969 59.535156 L 111.539062 60.238281 L 111.539062 65.046875 L 111.464844 65.070312 Z M 127.996094 60.695312 C 127.960938 59.992188 128.019531 59.300781 128.164062 58.613281 C 128.867188 58.804688 129.585938 58.933594 130.3125 59 L 130.3125 64.078125 C 129.925781 64.25 129.515625 64.390625 129.175781 64.5625 C 128.75 64.316406 128.363281 64.019531 128.015625 63.667969 L 128.015625 60.6875 Z M 45.757812 56.214844 L 49.238281 56.214844 L 49.238281 56.625 L 45.757812 56.625 Z M 36.523438 56.746094 L 36.960938 56.214844 L 39.640625 56.214844 L 39.640625 56.625 L 38.480469 56.625 C 37.824219 56.609375 37.171875 56.648438 36.523438 56.746094 M 81.085938 66.3125 L 80.605469 66.625 C 79.636719 66.035156 78.8125 65.285156 78.140625 64.371094 L 78.140625 57.445312 C 78.140625 55.800781 78.117188 55.097656 78.066406 54.515625 L 78.597656 54.296875 L 78.597656 64.203125 C 79.28125 65.078125 80.109375 65.78125 81.085938 66.308594 M 124.730469 56.113281 C 125.578125 55.53125 126.375 54.90625 127.171875 54.25 C 128.128906 54.90625 129.175781 55.351562 130.316406 55.582031 L 130.316406 58.464844 C 127.828125 58.246094 126.039062 57.445312 124.730469 56.113281 M 202.863281 54.246094 L 202.9375 54.222656 C 203.59375 55.605469 204.375 56.914062 205.28125 58.148438 L 202.867188 59.453125 Z M 213.667969 60.664062 L 213.355469 61.003906 L 210.164062 59.5 L 210.164062 55.894531 C 210.164062 55.335938 210.132812 54.777344 210.066406 54.222656 L 210.648438 54.054688 L 210.648438 59.261719 Z M 108.519531 60.664062 L 108.203125 61.003906 L 105.015625 59.5 L 105.015625 55.894531 C 105.015625 55.335938 104.980469 54.777344 104.917969 54.222656 L 105.5 54.054688 L 105.5 59.261719 Z M 168.863281 64.25 C 168.046875 65.109375 167.097656 65.765625 166.007812 66.226562 C 164.917969 66.683594 163.78125 66.90625 162.601562 66.886719 C 159.84375 66.886719 157.671875 65.992188 156.050781 64.417969 C 155.308594 63.675781 154.742188 62.816406 154.347656 61.84375 C 153.953125 60.867188 153.761719 59.855469 153.78125 58.804688 C 153.785156 57.886719 153.96875 57.007812 154.339844 56.167969 C 154.710938 55.332031 155.234375 54.601562 155.90625 53.980469 L 155.929688 54.003906 C 155.378906 54.636719 154.957031 55.347656 154.667969 56.136719 C 154.382812 56.925781 154.246094 57.742188 154.265625 58.582031 C 154.257812 59.617188 154.449219 60.613281 154.84375 61.570312 C 155.238281 62.53125 155.804688 63.371094 156.539062 64.101562 C 158.039062 65.601562 160.117188 66.425781 162.773438 66.425781 C 163.890625 66.464844 164.972656 66.292969 166.027344 65.917969 C 167.078125 65.542969 168.023438 64.984375 168.863281 64.246094 Z M 116.832031 54.152344 L 115.988281 54.152344 L 116.230469 53.714844 L 116.835938 53.714844 Z M 123.480469 53.738281 L 123.09375 54.25 C 122.339844 54.152344 121.582031 54.121094 120.820312 54.152344 L 120.820312 53.714844 L 123.429688 53.714844 Z M 203.179688 66.695312 C 201.761719 65.472656 200.464844 64.132812 199.289062 62.675781 L 199.289062 56.546875 C 199.289062 55.339844 199.21875 54.273438 199.167969 53.859375 L 199.675781 53.738281 C 199.757812 54.527344 199.789062 55.320312 199.773438 56.113281 L 199.773438 62.480469 C 200.945312 63.902344 202.234375 65.210938 203.640625 66.402344 Z M 133.023438 66.308594 L 132.542969 66.621094 C 131.785156 65.992188 131.140625 65.265625 130.609375 64.441406 L 130.609375 55.363281 C 129.4375 55.128906 128.355469 54.675781 127.367188 54.003906 L 127.707031 53.664062 C 128.734375 54.351562 129.855469 54.820312 131.066406 55.070312 L 131.066406 64.246094 C 131.636719 65.011719 132.289062 65.699219 133.023438 66.308594 M 73.644531 66.308594 L 73.164062 66.621094 C 72.410156 66.089844 71.734375 65.476562 71.132812 64.78125 L 71.132812 54.828125 C 70.820312 54.375 70.433594 53.996094 69.972656 53.691406 L 70.40625 53.496094 C 70.882812 53.828125 71.285156 54.230469 71.613281 54.707031 L 71.613281 64.613281 C 72.222656 65.261719 72.898438 65.824219 73.644531 66.308594 M 146.917969 66.308594 L 146.433594 66.621094 C 145.683594 66.089844 145.007812 65.476562 144.40625 64.78125 L 144.40625 54.828125 C 144.09375 54.375 143.707031 53.996094 143.246094 53.691406 L 143.679688 53.496094 C 144.15625 53.828125 144.558594 54.230469 144.886719 54.707031 L 144.886719 64.613281 C 145.5 65.253906 146.175781 65.820312 146.917969 66.308594 M 188.871094 66.308594 L 188.386719 66.621094 C 187.636719 66.089844 186.960938 65.476562 186.359375 64.78125 L 186.359375 54.828125 C 186.046875 54.375 185.660156 53.996094 185.199219 53.691406 L 185.632812 53.496094 C 186.109375 53.828125 186.511719 54.230469 186.839844 54.707031 L 186.839844 64.613281 C 187.453125 65.253906 188.128906 65.820312 188.871094 66.308594 M 195.398438 66.308594 L 194.914062 66.621094 C 194.160156 66.089844 193.484375 65.476562 192.882812 64.78125 L 192.882812 54.828125 C 192.558594 54.359375 192.15625 53.96875 191.675781 53.664062 L 192.109375 53.46875 C 192.585938 53.8125 193 54.226562 193.339844 54.703125 L 193.339844 64.609375 C 193.96875 65.246094 194.652344 65.808594 195.398438 66.304688 M 137.910156 63.835938 L 137.910156 54.753906 C 137.625 54.332031 137.289062 53.960938 136.894531 53.640625 L 137.304688 53.421875 C 137.714844 53.753906 138.078125 54.136719 138.390625 54.5625 L 138.390625 63.472656 L 137.957031 63.8125 L 137.910156 63.8125 Z M 172.636719 63.664062 L 172.636719 54.757812 C 172.347656 54.339844 172.007812 53.96875 171.621094 53.644531 L 172.03125 53.425781 C 172.441406 53.757812 172.804688 54.136719 173.117188 54.5625 L 173.117188 63.328125 L 172.683594 63.667969 Z M 92.355469 64.199219 C 93.011719 65.085938 93.832031 65.78125 94.816406 66.28125 L 94.335938 66.59375 C 93.34375 66.03125 92.519531 65.28125 91.871094 64.34375 L 91.871094 54.394531 C 91.542969 54.089844 91.183594 53.839844 90.78125 53.644531 L 91.195312 53.425781 C 91.605469 53.664062 91.984375 53.945312 92.328125 54.273438 L 92.328125 64.199219 Z M 179.863281 63.835938 L 179.863281 54.753906 C 179.582031 54.332031 179.242188 53.960938 178.847656 53.640625 L 179.257812 53.425781 C 179.671875 53.753906 180.035156 54.136719 180.347656 54.5625 L 180.347656 63.472656 L 179.910156 63.8125 L 179.863281 63.8125 Z M 57.410156 63.664062 L 57.410156 54.757812 C 57.121094 54.339844 56.785156 53.96875 56.394531 53.644531 L 56.808594 53.425781 C 57.21875 53.757812 57.582031 54.136719 57.894531 54.5625 L 57.894531 63.328125 L 57.457031 63.667969 L 57.414062 63.667969 Z M 64.613281 63.835938 L 64.613281 54.753906 C 64.332031 54.332031 63.992188 53.960938 63.597656 53.640625 L 64.007812 53.425781 C 64.421875 53.757812 64.78125 54.136719 65.09375 54.5625 L 65.09375 63.472656 L 64.660156 63.8125 L 64.613281 63.8125 Z M 98.398438 54.027344 C 98.183594 53.839844 97.949219 53.679688 97.695312 53.542969 L 98.109375 53.324219 C 98.382812 53.488281 98.632812 53.679688 98.855469 53.910156 L 98.855469 64.246094 C 99.378906 65.046875 100.023438 65.734375 100.789062 66.308594 L 100.304688 66.621094 C 99.503906 66.003906 98.859375 65.253906 98.371094 64.367188 L 98.371094 54.03125 Z M 81.820312 56.523438 C 81.820312 54.460938 81.890625 53.667969 82.132812 52.9375 C 82.738281 53.273438 83.4375 53.683594 84.28125 54.195312 L 84.28125 64 C 83.847656 64.171875 83.386719 64.339844 82.976562 64.535156 C 82.546875 64.273438 82.160156 63.960938 81.816406 63.589844 Z M 218.410156 54.679688 L 218.074219 55.117188 C 217.871094 55.1875 217.660156 55.21875 217.449219 55.214844 C 216.691406 55.210938 215.96875 55.050781 215.285156 54.730469 C 214.601562 54.40625 214.015625 53.957031 213.53125 53.375 L 213.53125 52.890625 L 213.605469 52.890625 C 214.09375 53.488281 214.6875 53.953125 215.386719 54.289062 C 216.085938 54.625 216.820312 54.792969 217.59375 54.800781 C 217.875 54.792969 218.148438 54.734375 218.414062 54.632812 Z M 113.289062 54.679688 L 112.949219 55.117188 C 112.746094 55.1875 112.539062 55.21875 112.324219 55.214844 C 111.566406 55.210938 110.847656 55.050781 110.160156 54.730469 C 109.476562 54.40625 108.890625 53.957031 108.40625 53.375 L 108.40625 52.890625 L 108.480469 52.890625 C 108.972656 53.488281 109.566406 53.953125 110.261719 54.289062 C 110.960938 54.625 111.695312 54.792969 112.46875 54.800781 C 112.75 54.792969 113.027344 54.734375 113.289062 54.632812 Z M 205.53125 58.023438 C 204.511719 56.59375 203.625 55.085938 202.871094 53.496094 L 202.871094 52.746094 L 202.945312 52.722656 C 203.761719 54.535156 204.761719 56.238281 205.941406 57.832031 Z M 185.058594 64.757812 L 184.863281 64.441406 C 184.621094 64.539062 184.378906 64.636719 184.164062 64.734375 C 183.933594 64.617188 183.726562 64.46875 183.535156 64.296875 L 183.535156 54.464844 C 183.945312 54.246094 184.429688 54.027344 184.890625 53.835938 C 185.351562 54.132812 185.738281 54.503906 186.050781 54.953125 L 186.050781 64.976562 C 186.722656 65.785156 187.496094 66.480469 188.371094 67.058594 L 188.445312 67.058594 C 189.550781 66.214844 190.703125 65.441406 191.902344 64.734375 L 191.707031 64.421875 L 191.03125 64.710938 C 190.65625 64.5 190.328125 64.234375 190.039062 63.914062 L 190.039062 54.46875 C 190.449219 54.25 190.933594 54.035156 191.394531 53.839844 C 191.851562 54.136719 192.238281 54.507812 192.554688 54.957031 L 192.554688 64.980469 C 193.226562 65.789062 194 66.480469 194.875 67.0625 L 194.945312 67.0625 C 196.203125 66.117188 197.195312 65.417969 198.644531 64.519531 L 198.449219 64.207031 C 198.144531 64.359375 197.828125 64.496094 197.507812 64.617188 C 197.144531 64.449219 196.832031 64.21875 196.566406 63.917969 L 196.566406 53.980469 C 195.984375 52.890625 195.15625 52.042969 194.078125 51.441406 L 194.003906 51.441406 C 192.539062 52.042969 191.199219 52.859375 189.988281 53.886719 C 189.421875 52.824219 188.609375 52.007812 187.546875 51.441406 L 187.476562 51.441406 C 186.023438 52.03125 184.703125 52.839844 183.511719 53.863281 C 182.921875 52.917969 182.179688 52.113281 181.289062 51.441406 L 181.21875 51.441406 C 179.78125 52.195312 178.453125 53.109375 177.230469 54.175781 L 177.472656 54.464844 C 177.785156 54.25 178.171875 54.03125 178.511719 53.839844 C 178.871094 54.15625 179.203125 54.503906 179.5 54.878906 L 179.5 64.007812 C 179.210938 64.222656 178.96875 64.417969 178.703125 64.613281 L 178.703125 64.683594 C 179.507812 65.597656 180.417969 66.386719 181.433594 67.058594 L 181.503906 67.058594 C 182.636719 66.210938 183.820312 65.445312 185.054688 64.757812 M 63.15625 64.492188 L 62.964844 64.175781 C 62.554688 64.347656 62.21875 64.492188 61.878906 64.660156 C 61.582031 64.5 61.304688 64.304688 61.054688 64.078125 L 61.054688 53.863281 C 60.476562 52.898438 59.734375 52.085938 58.832031 51.417969 L 58.761719 51.417969 C 57.324219 52.171875 55.996094 53.082031 54.773438 54.148438 L 55.015625 54.441406 C 55.351562 54.214844 55.695312 54.003906 56.054688 53.8125 C 56.414062 54.128906 56.746094 54.476562 57.042969 54.855469 L 57.042969 63.789062 C 56.789062 64.011719 56.523438 64.222656 56.246094 64.417969 L 56.246094 64.488281 C 57.089844 65.5 58.074219 66.34375 59.195312 67.03125 L 59.265625 67.03125 C 60.59375 66.085938 61.609375 65.410156 63.15625 64.488281 M 143.417969 64.585938 L 143.222656 64.273438 C 142.835938 64.441406 142.523438 64.5625 142.183594 64.707031 C 141.964844 64.585938 141.765625 64.441406 141.582031 64.273438 L 141.582031 54.441406 C 141.992188 54.226562 142.476562 54.007812 142.933594 53.816406 C 143.394531 54.113281 143.78125 54.484375 144.09375 54.929688 L 144.09375 64.953125 C 144.765625 65.761719 145.539062 66.457031 146.414062 67.035156 L 146.488281 67.035156 C 147.667969 66.113281 148.902344 65.265625 150.183594 64.496094 L 149.992188 64.179688 C 149.683594 64.335938 149.371094 64.472656 149.050781 64.59375 C 148.6875 64.425781 148.371094 64.191406 148.105469 63.890625 L 148.105469 53.957031 C 147.527344 52.863281 146.699219 52.015625 145.617188 51.414062 L 145.546875 51.414062 C 144.09375 52.003906 142.773438 52.8125 141.582031 53.835938 C 140.988281 52.894531 140.25 52.085938 139.359375 51.414062 L 139.285156 51.414062 C 137.851562 52.171875 136.519531 53.082031 135.296875 54.152344 L 135.539062 54.441406 C 135.875 54.214844 136.222656 54.003906 136.578125 53.8125 C 136.941406 54.132812 137.269531 54.476562 137.570312 54.855469 L 137.570312 63.980469 C 137.316406 64.199219 137.050781 64.402344 136.773438 64.585938 L 136.773438 64.660156 C 137.578125 65.570312 138.488281 66.363281 139.503906 67.03125 L 139.574219 67.03125 C 140.800781 66.132812 142.082031 65.316406 143.417969 64.585938 M 95.542969 53.523438 C 94.882812 52.703125 94.109375 52.007812 93.222656 51.441406 L 93.148438 51.441406 C 91.75 52.289062 90.878906 52.964844 89.453125 53.984375 L 89.644531 54.296875 C 89.9375 54.128906 90.226562 53.984375 90.492188 53.8125 C 90.871094 54.015625 91.214844 54.265625 91.53125 54.5625 L 91.53125 64.511719 C 92.265625 65.550781 93.183594 66.378906 94.285156 67.007812 L 94.359375 67.007812 C 95.519531 66.160156 96.800781 65.289062 98.03125 64.539062 C 98.644531 65.484375 99.394531 66.308594 100.28125 67.007812 L 100.351562 67.007812 C 101.609375 66.085938 103.011719 65.070312 104.195312 64.316406 L 104 64.003906 C 103.613281 64.171875 103.277344 64.34375 102.914062 64.511719 C 102.605469 64.292969 102.324219 64.046875 102.070312 63.765625 L 102.070312 54.464844 C 102.359375 54.246094 102.578125 54.054688 102.867188 53.859375 L 102.867188 53.789062 C 102.027344 52.917969 101.117188 52.125 100.136719 51.414062 L 100.066406 51.414062 C 98.617188 52.261719 97.625 52.917969 96.222656 53.882812 L 96.417969 54.199219 L 97.359375 53.6875 C 97.609375 53.824219 97.84375 53.988281 98.058594 54.171875 L 98.058594 63.980469 C 97.578125 64.175781 97.140625 64.367188 96.707031 64.5625 C 96.273438 64.300781 95.886719 63.988281 95.546875 63.617188 Z M 178.410156 64.492188 L 178.21875 64.179688 C 177.804688 64.347656 177.46875 64.492188 177.128906 64.664062 C 176.832031 64.5 176.558594 64.308594 176.308594 64.082031 L 176.308594 53.859375 C 175.730469 52.898438 174.988281 52.082031 174.085938 51.414062 L 174.011719 51.414062 C 172.578125 52.167969 171.25 53.082031 170.023438 54.148438 L 170.265625 54.4375 C 170.601562 54.210938 170.949219 54.003906 171.304688 53.8125 C 171.667969 54.128906 171.996094 54.476562 172.296875 54.851562 L 172.296875 63.789062 C 172.042969 64.011719 171.777344 64.21875 171.5 64.414062 L 171.5 64.488281 C 172.34375 65.496094 173.324219 66.34375 174.445312 67.03125 L 174.519531 67.03125 C 175.769531 66.113281 177.070312 65.265625 178.410156 64.488281 M 70.121094 64.585938 L 69.925781 64.269531 C 69.539062 64.441406 69.226562 64.5625 68.886719 64.707031 C 68.667969 64.585938 68.46875 64.441406 68.28125 64.269531 L 68.28125 54.441406 C 68.695312 54.222656 69.175781 54.007812 69.636719 53.816406 C 70.097656 54.109375 70.484375 54.480469 70.796875 54.929688 L 70.796875 64.953125 C 71.46875 65.761719 72.242188 66.457031 73.117188 67.035156 L 73.191406 67.035156 C 74.371094 66.113281 75.605469 65.265625 76.886719 64.492188 L 76.695312 64.179688 C 76.386719 64.332031 76.074219 64.46875 75.753906 64.589844 C 75.390625 64.425781 75.074219 64.191406 74.808594 63.890625 L 74.808594 53.957031 C 74.230469 52.863281 73.398438 52.015625 72.320312 51.414062 L 72.25 51.414062 C 70.796875 52.003906 69.476562 52.8125 68.285156 53.835938 C 67.691406 52.894531 66.953125 52.085938 66.0625 51.414062 L 65.992188 51.414062 C 64.554688 52.171875 63.226562 53.082031 62.003906 54.152344 L 62.246094 54.441406 C 62.582031 54.214844 62.925781 54.003906 63.285156 53.8125 C 63.644531 54.132812 63.976562 54.476562 64.273438 54.855469 L 64.273438 63.980469 C 64.019531 64.199219 63.753906 64.402344 63.476562 64.585938 L 63.476562 64.660156 C 64.28125 65.570312 65.191406 66.363281 66.207031 67.03125 L 66.28125 67.03125 C 67.511719 66.140625 68.792969 65.324219 70.121094 64.585938 M 202.871094 61 L 202.871094 60.253906 L 208.910156 57.007812 L 208.910156 56.910156 C 207.628906 55.140625 206.460938 53.300781 205.40625 51.386719 L 205.335938 51.386719 C 203.207031 52.296875 201.027344 53.039062 198.785156 53.613281 C 198.929688 54.675781 198.996094 55.738281 198.980469 56.808594 L 198.980469 62.816406 C 200.199219 64.359375 201.5625 65.761719 203.0625 67.027344 L 203.183594 67.027344 C 205.027344 65.804688 206.929688 64.671875 208.886719 63.636719 L 208.597656 63.203125 C 207.679688 63.636719 206.933594 64.027344 206.179688 64.363281 C 204.96875 63.351562 203.863281 62.230469 202.871094 61 M 132.519531 67.035156 L 132.589844 67.035156 C 133.847656 66.113281 135.25 65.097656 136.433594 64.34375 L 136.238281 64.03125 C 135.851562 64.199219 135.515625 64.371094 135.152344 64.539062 C 134.84375 64.320312 134.5625 64.070312 134.308594 63.789062 L 134.308594 56.238281 C 134.253906 55.332031 134.316406 54.433594 134.5 53.546875 C 132.882812 53.160156 130.320312 52.144531 129.28125 51.394531 L 129.207031 51.394531 C 127.671875 53.195312 125.910156 54.730469 123.914062 56 L 123.914062 56.09375 C 124.917969 57.277344 126.164062 58.066406 127.660156 58.46875 C 126.46875 59.046875 125.242188 59.546875 123.988281 59.96875 C 124.101562 60.773438 124.160156 61.578125 124.15625 62.390625 L 124.15625 64.804688 C 124.839844 65.753906 125.695312 66.511719 126.71875 67.078125 L 126.789062 67.078125 C 127.925781 66.257812 129.160156 65.433594 130.367188 64.65625 C 130.957031 65.5625 131.671875 66.355469 132.515625 67.03125 M 213.644531 67.101562 C 215.515625 65.816406 217.546875 64.871094 219.734375 64.269531 C 219.609375 63.695312 219.550781 63.113281 219.566406 62.527344 L 219.566406 58.605469 L 215.820312 56.960938 L 215.722656 56.960938 L 214.632812 58.171875 L 213.496094 57.660156 L 213.496094 53.859375 C 213.996094 54.386719 214.582031 54.796875 215.25 55.082031 C 215.917969 55.367188 216.613281 55.511719 217.339844 55.507812 C 217.617188 55.5 217.890625 55.46875 218.160156 55.410156 C 219.21875 54.296875 219.796875 52.972656 219.902344 51.4375 C 219.742188 51.414062 219.578125 51.414062 219.417969 51.4375 C 219.417969 51.714844 219.386719 51.992188 219.320312 52.261719 C 219.027344 52.386719 218.722656 52.453125 218.402344 52.457031 C 217.390625 52.433594 216.53125 52.0625 215.816406 51.339844 L 215.746094 51.339844 C 213.867188 52.582031 211.839844 53.46875 209.65625 54.003906 C 209.78125 54.710938 209.839844 55.417969 209.824219 56.136719 L 209.824219 59.722656 L 213.328125 61.320312 L 213.425781 61.320312 L 214.535156 60.085938 L 215.867188 60.667969 L 215.867188 64.445312 C 214.617188 63.414062 213.183594 62.914062 211.5625 62.945312 C 211.285156 62.949219 211.011719 62.984375 210.742188 63.039062 C 209.683594 64.164062 209.105469 65.496094 209.003906 67.035156 C 209.164062 67.058594 209.324219 67.058594 209.484375 67.035156 C 209.484375 66.757812 209.515625 66.484375 209.582031 66.210938 C 209.875 66.085938 210.183594 66.023438 210.5 66.019531 C 211.671875 65.976562 212.695312 66.347656 213.570312 67.132812 L 213.644531 67.132812 Z M 108.496094 67.101562 C 110.367188 65.816406 112.394531 64.871094 114.585938 64.269531 C 114.457031 63.695312 114.402344 63.113281 114.417969 62.527344 L 114.417969 58.605469 L 110.671875 56.960938 L 110.574219 56.960938 L 109.488281 58.171875 L 108.351562 57.660156 L 108.351562 53.859375 C 108.851562 54.386719 109.433594 54.796875 110.101562 55.082031 C 110.769531 55.367188 111.464844 55.511719 112.191406 55.507812 C 112.46875 55.5 112.742188 55.46875 113.015625 55.410156 C 114.070312 54.296875 114.652344 52.972656 114.753906 51.4375 C 114.59375 51.414062 114.433594 51.414062 114.269531 51.4375 C 114.273438 51.714844 114.238281 51.992188 114.175781 52.261719 C 113.882812 52.386719 113.574219 52.453125 113.257812 52.457031 C 112.246094 52.433594 111.382812 52.0625 110.671875 51.339844 L 110.621094 51.339844 C 108.746094 52.582031 106.714844 53.46875 104.53125 54.003906 C 104.660156 54.710938 104.714844 55.417969 104.699219 56.136719 L 104.699219 59.722656 L 108.203125 61.320312 L 108.300781 61.320312 L 109.414062 60.085938 L 110.742188 60.667969 L 110.742188 64.445312 C 109.558594 63.4375 108.1875 62.9375 106.632812 62.945312 C 106.355469 62.949219 106.082031 62.984375 105.8125 63.039062 C 104.753906 64.164062 104.171875 65.496094 104.070312 67.035156 C 104.230469 67.058594 104.394531 67.058594 104.554688 67.035156 C 104.554688 66.757812 104.585938 66.484375 104.652344 66.210938 C 104.945312 66.085938 105.25 66.023438 105.570312 66.019531 C 106.671875 66.011719 107.632812 66.382812 108.445312 67.132812 L 108.492188 67.132812 Z M 160.742188 63.035156 L 160.71875 63.011719 C 160.914062 62.5 160.9375 62.164062 160.9375 60.878906 L 160.9375 53.859375 C 160.9375 53.0625 160.867188 52.269531 160.71875 51.484375 L 161.226562 51.269531 C 161.359375 52.054688 161.421875 52.84375 161.421875 53.640625 L 161.421875 60.519531 C 161.398438 62.164062 161.277344 62.503906 160.746094 63.035156 M 87.015625 66.308594 L 86.535156 66.621094 C 85.769531 65.976562 85.125 65.226562 84.601562 64.371094 L 84.601562 54.03125 C 79.621094 51.199219 79.066406 50.882812 78.582031 50.664062 L 78.460938 49.960938 L 78.484375 49.960938 L 85.058594 53.835938 L 85.058594 64.152344 C 85.601562 64.96875 86.253906 65.683594 87.015625 66.304688 M 164.421875 51.800781 C 164.421875 50.664062 164.445312 50.277344 164.929688 49.789062 C 165.148438 49.8125 165.605469 49.886719 165.871094 49.910156 L 165.871094 63.59375 C 165.175781 63.789062 164.46875 63.886719 163.746094 63.882812 C 162.714844 63.894531 161.71875 63.722656 160.75 63.375 C 162.101562 62.84375 163.503906 62.234375 164.589844 61.703125 C 164.480469 60.917969 164.421875 60.125 164.421875 59.332031 Z M 117.152344 53.082031 C 117.152344 51.753906 117.078125 50.664062 117.03125 50.082031 L 117.613281 49.667969 L 117.636719 49.667969 L 117.636719 63.0625 L 117.203125 63.402344 L 117.152344 63.402344 Z M 41.894531 49.113281 C 40.589844 50.957031 40.375 51.367188 40.375 53.617188 L 40.375 59.71875 C 40.375 62.503906 40.253906 63.621094 38.34375 65.847656 L 38.320312 65.824219 C 39.867188 63.789062 39.914062 62.675781 39.914062 59.867188 L 39.914062 53.738281 C 39.914062 51.488281 40.15625 51.074219 41.871094 49.113281 Z M 52.238281 66.308594 L 51.753906 66.621094 C 50.910156 66.066406 50.167969 65.394531 49.53125 64.609375 L 49.53125 51.703125 C 49.554688 50.777344 49.480469 49.855469 49.3125 48.941406 L 49.894531 48.53125 C 49.996094 49.511719 50.039062 50.496094 50.015625 51.484375 L 50.015625 64.417969 C 50.65625 65.167969 51.394531 65.796875 52.238281 66.308594 M 42.109375 47.902344 L 42.132812 47.925781 C 41.605469 48.359375 41 48.59375 40.320312 48.628906 C 39.621094 48.628906 39.015625 48.289062 38.386719 48.289062 C 37.800781 48.273438 37.292969 48.46875 36.867188 48.875 C 36.707031 49.019531 36.578125 49.1875 36.480469 49.382812 L 36.457031 49.382812 C 36.53125 49.035156 36.691406 48.738281 36.941406 48.484375 C 37.390625 48.074219 37.925781 47.878906 38.535156 47.902344 C 39.210938 47.902344 39.890625 48.242188 40.613281 48.242188 C 41.136719 48.242188 41.636719 48.128906 42.113281 47.902344 M 56.851562 47.613281 C 57.441406 48.367188 58.078125 49.074219 58.761719 49.742188 L 58.375 49.984375 C 57.691406 49.328125 57.070312 48.617188 56.511719 47.855469 Z M 172.441406 47.589844 C 173.042969 48.34375 173.6875 49.0625 174.375 49.742188 L 173.988281 49.984375 C 173.296875 49.316406 172.660156 48.597656 172.078125 47.832031 Z M 154.484375 51.609375 C 154.613281 50.914062 154.917969 50.308594 155.402344 49.792969 C 156.296875 48.898438 157.625 48.460938 159.390625 48.460938 C 162.144531 48.460938 165.429688 49.308594 167.582031 49.308594 C 168.691406 49.308594 169.609375 48.824219 170.359375 47.492188 L 170.433594 47.515625 C 169.636719 49.136719 168.691406 49.695312 167.460938 49.695312 C 165.3125 49.695312 162.070312 48.847656 159.269531 48.847656 C 157.527344 48.847656 156.292969 49.285156 155.425781 50.15625 C 155.011719 50.5625 154.703125 51.039062 154.507812 51.585938 L 154.484375 51.585938 Z M 121.085938 47.152344 L 120.964844 47.082031 C 119.152344 48.21875 117.726562 49.210938 116.6875 50.011719 C 116.769531 50.628906 116.808594 51.25 116.808594 51.875 C 116.433594 52.730469 115.996094 53.554688 115.503906 54.34375 L 115.574219 54.441406 L 116.808594 54.441406 L 116.808594 63.546875 C 116.519531 63.761719 116.300781 63.933594 116.011719 64.128906 L 116.011719 64.199219 C 117.105469 65.359375 118.335938 66.34375 119.707031 67.15625 L 119.78125 67.15625 C 121.003906 66.234375 122.292969 65.417969 123.648438 64.710938 L 123.453125 64.394531 C 123.164062 64.511719 122.882812 64.640625 122.609375 64.785156 C 121.976562 64.449219 121.371094 64.070312 120.796875 63.644531 L 120.796875 54.464844 L 120.964844 54.464844 C 121.714844 54.457031 122.464844 54.488281 123.210938 54.5625 C 124.371094 53.039062 124.878906 52.191406 125.074219 51.632812 L 125 51.558594 C 124.054688 51.683594 123.105469 51.738281 122.152344 51.730469 L 120.796875 51.730469 C 120.796875 50.199219 120.894531 48.671875 121.085938 47.152344 M 86.503906 67.035156 L 86.574219 67.035156 C 87.832031 66.113281 89.234375 65.167969 90.417969 64.394531 L 90.222656 64.082031 C 89.839844 64.25 89.5 64.417969 89.136719 64.589844 C 88.824219 64.355469 88.542969 64.085938 88.292969 63.789062 L 88.292969 55.992188 C 88.292969 54.320312 88.363281 53.496094 88.414062 52.84375 C 81.089844 48.316406 79.035156 46.910156 77.925781 45.652344 L 77.804688 45.675781 C 77.789062 47.429688 77.964844 49.164062 78.335938 50.882812 C 79.4375 51.382812 80.5 51.953125 81.523438 52.601562 C 80.316406 53.207031 78.964844 53.808594 77.683594 54.34375 C 77.785156 55.40625 77.828125 56.472656 77.804688 57.539062 L 77.804688 64.515625 C 78.539062 65.550781 79.457031 66.378906 80.558594 67.007812 L 80.632812 67.007812 C 81.769531 66.183594 83.050781 65.335938 84.28125 64.558594 C 84.878906 65.511719 85.621094 66.335938 86.503906 67.03125 M 58.324219 50.398438 L 58.398438 50.398438 C 59.558594 49.597656 60.332031 49.039062 61.34375 48.21875 L 61.34375 48.144531 C 60.652344 47.257812 59.910156 46.410156 59.121094 45.605469 L 59.050781 45.605469 C 58.109375 46.28125 57.117188 46.960938 56.078125 47.832031 L 56.078125 47.90625 C 56.746094 48.808594 57.496094 49.640625 58.324219 50.398438 M 173.863281 50.398438 L 173.9375 50.398438 C 175.097656 49.597656 175.871094 49.039062 176.886719 48.21875 L 176.886719 48.144531 C 176.191406 47.257812 175.449219 46.410156 174.664062 45.605469 L 174.589844 45.605469 C 173.648438 46.28125 172.65625 46.960938 171.617188 47.832031 L 171.617188 47.902344 C 172.292969 48.800781 173.042969 49.632812 173.863281 50.398438 M 45.710938 65 L 45.734375 64.925781 L 45.734375 56.910156 L 49.238281 56.910156 L 49.238281 64.78125 C 49.960938 65.648438 50.789062 66.402344 51.726562 67.035156 L 51.800781 67.035156 C 53.140625 66.03125 54.535156 65.113281 55.980469 64.273438 L 55.789062 63.933594 C 55.375 64.101562 55.039062 64.273438 54.675781 64.441406 C 54.191406 64.210938 53.789062 63.878906 53.46875 63.449219 L 53.46875 50.226562 C 53.425781 48.679688 53.59375 47.152344 53.976562 45.652344 L 53.855469 45.578125 C 52.121094 46.546875 50.484375 47.660156 48.949219 48.921875 C 49.175781 49.851562 49.273438 50.796875 49.238281 51.753906 L 49.238281 54.199219 L 45.761719 54.199219 L 45.761719 50.011719 C 45.761719 47.59375 45.929688 46.9375 46.34375 45.679688 L 46.246094 45.65625 C 45.402344 46.816406 45.109375 47.808594 45.109375 50.257812 L 45.109375 64.46875 C 44.511719 64.160156 43.875 64.015625 43.203125 64.035156 C 42.292969 64.039062 41.414062 64.207031 40.566406 64.542969 L 40.542969 64.519531 C 43.636719 61.757812 43.734375 61.273438 43.734375 59.265625 L 43.734375 50.6875 C 43.734375 48.144531 44.046875 47.03125 44.726562 45.796875 L 44.628906 45.699219 C 44.027344 46.070312 43.375 46.265625 42.671875 46.28125 C 41.730469 46.28125 40.449219 45.796875 39.3125 45.796875 C 38.453125 45.773438 37.714844 46.058594 37.089844 46.644531 C 36.527344 47.214844 36.246094 47.902344 36.242188 48.703125 C 36.246094 49.125 36.308594 49.535156 36.4375 49.9375 L 36.511719 49.9375 C 36.597656 49.628906 36.757812 49.363281 36.992188 49.140625 C 37.363281 48.777344 37.804688 48.609375 38.320312 48.628906 C 39.070312 48.628906 39.578125 48.945312 40.28125 48.945312 C 40.980469 48.945312 41.535156 48.703125 42.625 47.953125 L 42.648438 47.976562 C 39.796875 50.953125 39.699219 51.484375 39.699219 53.785156 L 39.699219 54.199219 C 39.261719 54.179688 38.828125 54.140625 38.394531 54.078125 C 37.550781 55.011719 36.769531 55.996094 36.050781 57.03125 L 36.121094 57.101562 C 36.890625 56.980469 37.664062 56.925781 38.441406 56.933594 L 39.699219 56.933594 L 39.699219 60.855469 C 39.699219 63.277344 39.359375 64.269531 37.332031 66.886719 L 37.425781 67.007812 C 38.433594 66.550781 39.488281 66.316406 40.59375 66.304688 C 41.363281 66.265625 42.03125 66.507812 42.597656 67.03125 L 42.671875 67.03125 C 43.597656 66.222656 44.613281 65.542969 45.714844 64.996094 M 156.90625 57.25 C 156.910156 56.226562 157.113281 55.242188 157.515625 54.300781 C 157.917969 53.359375 158.488281 52.535156 159.226562 51.828125 L 159.128906 51.707031 C 157.71875 52.167969 156.496094 52.925781 155.457031 53.980469 C 154.8125 54.636719 154.316406 55.386719 153.96875 56.238281 C 153.621094 57.089844 153.445312 57.976562 153.449219 58.894531 C 153.425781 59.960938 153.617188 60.984375 154.019531 61.96875 C 154.425781 62.957031 155.007812 63.820312 155.769531 64.5625 C 157.414062 66.207031 159.683594 67.152344 162.511719 67.152344 C 163.667969 67.191406 164.789062 67.003906 165.867188 66.582031 C 166.945312 66.160156 167.898438 65.542969 168.722656 64.730469 C 169.367188 64.066406 169.867188 63.308594 170.222656 62.457031 C 170.574219 61.605469 170.761719 60.714844 170.777344 59.789062 L 170.609375 59.765625 C 170.167969 60.59375 169.597656 61.316406 168.894531 61.933594 C 168.191406 62.550781 167.402344 63.023438 166.523438 63.351562 L 166.523438 49.964844 C 167.007812 49.988281 167.273438 49.988281 167.417969 49.988281 C 169.257812 49.988281 170.660156 48.828125 171.382812 45.269531 L 171.214844 45.195312 C 170.511719 46.140625 169.59375 46.453125 168.289062 46.453125 C 166.164062 46.453125 162.683594 45.609375 160.097656 45.609375 C 158.066406 45.609375 156.351562 46.234375 155.214844 47.375 C 154.808594 47.765625 154.496094 48.222656 154.28125 48.746094 C 154.066406 49.269531 153.96875 49.8125 153.980469 50.378906 C 153.988281 51.058594 154.125 51.714844 154.390625 52.339844 L 154.488281 52.339844 C 154.652344 51.59375 154.996094 50.949219 155.527344 50.402344 C 156.351562 49.578125 157.535156 49.09375 159.203125 49.09375 C 160.945312 49.148438 162.679688 49.324219 164.398438 49.628906 C 163.09375 50.113281 161.425781 50.789062 160.335938 51.296875 C 160.511719 52.1875 160.589844 53.082031 160.578125 53.988281 L 160.578125 61.324219 C 160.578125 62.316406 160.554688 62.726562 160.265625 63.09375 C 159.746094 62.851562 159.28125 62.539062 158.863281 62.148438 C 158.210938 61.5 157.71875 60.753906 157.375 59.902344 C 157.035156 59.050781 156.875 58.164062 156.902344 57.25 " fill-opacity="1" fill-rule="nonzero"/></g></svg>