<svg xmlns="http://www.w3.org/2000/svg" xmlns:xlink="http://www.w3.org/1999/xlink" width="300" zoomAndPan="magnify" viewBox="0 0 224.87999 112.499997" height="150" preserveAspectRatio="xMidYMid meet" version="1.0"><defs><clipPath id="a75c97db78"><path d="M 0.4375 0 L 224.324219 0 L 224.324219 112.003906 L 0.4375 112.003906 Z M 0.4375 0 " clip-rule="nonzero"/></clipPath><clipPath id="31485b8e95"><path d="M 55.027344 0 L 169.855469 0 L 169.855469 112 L 55.027344 112 Z M 55.027344 0 " clip-rule="nonzero"/></clipPath><clipPath id="df6f931e2c"><path d="M 60.441406 4.003906 L 113 4.003906 L 113 107.792969 L 60.441406 107.792969 Z M 60.441406 4.003906 " clip-rule="nonzero"/></clipPath></defs><g clip-path="url(#a75c97db78)"><path fill="#ffffff" d="M 0.4375 0 L 224.441406 0 L 224.441406 119.46875 L 0.4375 119.46875 Z M 0.4375 0 " fill-opacity="1" fill-rule="nonzero"/><path fill="#ffffff" d="M 0.4375 0 L 224.441406 0 L 224.441406 112.003906 L 0.4375 112.003906 Z M 0.4375 0 " fill-opacity="1" fill-rule="nonzero"/><path fill="#ffffff" d="M 0.4375 0 L 224.441406 0 L 224.441406 112.003906 L 0.4375 112.003906 Z M 0.4375 0 " fill-opacity="1" fill-rule="nonzero"/></g><g clip-path="url(#31485b8e95)"><path fill="#000000" d="M 55.027344 0 L 170.003906 0 L 170.003906 111.828125 L 55.027344 111.828125 Z M 55.027344 0 " fill-opacity="1" fill-rule="nonzero"/></g><g clip-path="url(#df6f931e2c)"><path fill="#22bbbe" d="M 112.144531 8.019531 L 112.144531 4.609375 C 83.589844 4.609375 60.441406 27.605469 60.441406 55.96875 C 60.441406 84.335938 83.589844 107.328125 112.144531 107.328125 L 112.144531 103.917969 C 93.609375 103.902344 75.9375 93.214844 67.992188 75.277344 C 57.261719 51.042969 68.332031 22.753906 92.726562 12.09375 C 98.914062 9.378906 105.386719 8.023438 112.144531 8.019531 " fill-opacity="1" fill-rule="evenodd"/></g><path fill="#7dad41" d="M 94.097656 15.230469 L 92.714844 12.097656 C 68.316406 22.761719 57.246094 51.050781 67.976562 75.28125 C 78.710938 99.515625 107.1875 110.515625 131.582031 99.851562 L 130.195312 96.722656 C 117.582031 102.222656 102.589844 101.894531 89.742188 94.523438 C 68.3125 82.234375 60.96875 55.011719 73.34375 33.71875 C 75.726562 29.609375 78.691406 25.972656 82.242188 22.8125 C 85.789062 19.652344 89.742188 17.125 94.101562 15.230469 " fill-opacity="1" fill-rule="evenodd"/><path fill="#f4b719" d="M 132.835938 20.371094 L 134.550781 17.421875 C 113.117188 5.128906 85.714844 12.425781 73.339844 33.714844 C 60.964844 55.003906 68.308594 82.226562 89.742188 94.519531 L 91.460938 91.5625 C 88.007812 89.574219 84.90625 87.136719 82.160156 84.253906 C 66.433594 67.792969 67.121094 41.785156 83.691406 26.164062 C 97.296875 13.339844 117.378906 11.503906 132.835938 20.371094 " fill-opacity="1" fill-rule="evenodd"/><path fill="#e55824" d="M 86.042969 28.644531 L 83.679688 26.171875 C 67.109375 41.792969 66.417969 67.792969 82.140625 84.253906 C 97.867188 100.714844 124.046875 101.394531 140.617188 85.773438 L 138.246094 83.292969 C 129.410156 91.605469 116.714844 95.554688 103.9375 92.742188 C 83.496094 88.238281 70.597656 68.125 75.128906 47.816406 C 75.945312 44.148438 77.28125 40.675781 79.140625 37.410156 C 81 34.140625 83.300781 31.21875 86.042969 28.644531 " fill-opacity="1" fill-rule="evenodd"/><path fill="#b52c80" d="M 119.605469 22.542969 L 120.351562 19.199219 C 99.90625 14.695312 79.660156 27.507812 75.128906 47.816406 C 70.59375 68.125 83.496094 88.238281 103.9375 92.742188 L 104.683594 89.398438 L 104.679688 89.398438 C 86.089844 85.304688 74.367188 67.019531 78.484375 48.558594 C 82.605469 30.097656 101.011719 18.449219 119.597656 22.539062 L 119.605469 22.542969 " fill-opacity="1" fill-rule="evenodd"/><path fill="#fefefe" d="M 137.464844 61.183594 L 146.191406 61.183594 C 146.378906 59.976562 146.5 58.75 146.554688 57.503906 L 137.460938 57.546875 L 137.460938 61.183594 Z M 137.464844 50.644531 L 137.464844 54.160156 L 146.539062 54.113281 C 146.476562 52.949219 146.355469 51.792969 146.175781 50.644531 Z M 137.464844 50.644531 " fill-opacity="1" fill-rule="evenodd"/><path fill="#fefefe" d="M 133.652344 64.570312 L 133.652344 47.257812 L 145.460938 47.257812 C 141.582031 32.566406 128.125 21.730469 112.121094 21.730469 C 93.082031 21.730469 77.648438 37.0625 77.648438 55.96875 C 77.648438 74.878906 93.082031 90.210938 112.117188 90.210938 C 128.164062 90.210938 141.648438 79.320312 145.488281 64.570312 Z M 151.046875 62.207031 L 152.933594 60.011719 C 154.324219 61.292969 155.789062 62.082031 157.402344 62.082031 C 159.484375 62.082031 160.851562 60.898438 160.851562 59.097656 L 160.851562 59.050781 C 160.851562 57.300781 159.359375 56.191406 157.25 56.191406 C 156.011719 56.191406 154.945312 56.535156 154.050781 56.953125 L 152.214844 55.746094 L 152.710938 47.292969 L 163.082031 47.292969 L 163.082031 49.976562 L 155.339844 49.976562 L 155.066406 54.019531 C 155.886719 53.726562 156.65625 53.527344 157.824219 53.527344 C 161.195312 53.527344 163.851562 55.300781 163.851562 58.949219 L 163.851562 59 C 163.851562 62.523438 161.269531 64.84375 157.425781 64.84375 C 154.769531 64.84375 152.6875 63.78125 151.046875 62.203125 " fill-opacity="1" fill-rule="evenodd"/><path fill="#020303" d="M 129.039062 50.644531 L 119.574219 50.644531 L 119.574219 54.160156 L 129.039062 54.160156 L 129.039062 57.546875 L 119.574219 57.546875 L 119.574219 61.183594 L 129.039062 61.183594 L 129.039062 64.570312 L 115.761719 64.570312 L 115.761719 47.257812 L 129.035156 47.257812 Z M 111.753906 50.152344 L 102.167969 61.234375 L 111.753906 61.234375 L 111.753906 64.574219 L 97.234375 64.574219 L 97.234375 61.679688 L 106.824219 50.597656 L 97.535156 50.597656 L 97.535156 47.257812 L 111.753906 47.257812 Z M 146.539062 54.113281 L 146.414062 54.113281 L 137.460938 54.15625 L 137.460938 50.644531 L 146.175781 50.644531 C 145.996094 49.503906 145.761719 48.375 145.464844 47.253906 L 133.65625 47.253906 L 133.65625 64.570312 L 145.496094 64.570312 C 145.785156 63.464844 146.019531 62.335938 146.195312 61.183594 L 137.464844 61.183594 L 137.464844 57.546875 L 146.433594 57.503906 L 146.558594 57.503906 C 146.609375 56.371094 146.601562 55.242188 146.542969 54.113281 " fill-opacity="1" fill-rule="evenodd"/></svg>