<svg xmlns="http://www.w3.org/2000/svg" xmlns:xlink="http://www.w3.org/1999/xlink" zoomAndPan="magnify" preserveAspectRatio="xMidYMid meet" version="1.0" viewBox="22.61 161.43 406.05 67.31"><defs><g/><clipPath id="81d656edbf"><path d="M 23 161.425781 L 89.917969 161.425781 L 89.917969 228.734375 L 23 228.734375 Z M 23 161.425781 " clip-rule="nonzero"/></clipPath><clipPath id="4a7b64c5f6"><path d="M 60 161.425781 L 63 161.425781 L 63 164 L 60 164 Z M 60 161.425781 " clip-rule="nonzero"/></clipPath><clipPath id="2f36b1e1ec"><path d="M 51 161.425781 L 54 161.425781 L 54 164 L 51 164 Z M 51 161.425781 " clip-rule="nonzero"/></clipPath><clipPath id="3f0540f0d5"><path d="M 87 190 L 89.917969 190 L 89.917969 193 L 87 193 Z M 87 190 " clip-rule="nonzero"/></clipPath><clipPath id="eae02c1234"><path d="M 22.609375 197 L 25 197 L 25 200 L 22.609375 200 Z M 22.609375 197 " clip-rule="nonzero"/></clipPath><clipPath id="d1d55c7e12"><path d="M 22.609375 189 L 25 189 L 25 192 L 22.609375 192 Z M 22.609375 189 " clip-rule="nonzero"/></clipPath><clipPath id="eb9a4b49f1"><path d="M 49 226 L 52 226 L 52 228.734375 L 49 228.734375 Z M 49 226 " clip-rule="nonzero"/></clipPath><clipPath id="9dbcc6942a"><path d="M 58 226 L 61 226 L 61 228.734375 L 58 228.734375 Z M 58 226 " clip-rule="nonzero"/></clipPath><clipPath id="1d233d5831"><path d="M 22.609375 197 L 25 197 L 25 200 L 22.609375 200 Z M 22.609375 197 " clip-rule="nonzero"/></clipPath><clipPath id="3435e2778a"><path d="M 87 198 L 89.917969 198 L 89.917969 201 L 87 201 Z M 87 198 " clip-rule="nonzero"/></clipPath><clipPath id="181f07917d"><path d="M 28.199219 167 L 84.757812 167 L 84.757812 223 L 28.199219 223 Z M 28.199219 167 " clip-rule="nonzero"/></clipPath><clipPath id="3ad0257aec"><path d="M 28.199219 166.886719 L 84.757812 166.886719 L 84.757812 223.445312 L 28.199219 223.445312 Z M 28.199219 166.886719 " clip-rule="nonzero"/></clipPath></defs><g fill="#ffffff" fill-opacity="1"><g transform="translate(97.280173, 222.886102)"><g><path d="M 15.800781 0.796875 C 25.773438 0.796875 32.160156 -4.867188 32.320312 -13.644531 C 32.398438 -19.628906 30.164062 -23.859375 22.980469 -29.445312 C 20.988281 -31.042969 18.753906 -32.796875 16.277344 -34.871094 C 12.6875 -37.824219 10.851562 -40.296875 10.851562 -44.449219 C 10.933594 -48.4375 13.328125 -51.152344 17.476562 -51.152344 C 19.550781 -51.070312 21.625 -50.511719 22.902344 -49.714844 L 22.902344 -40.699219 L 30.085938 -40.699219 L 30.085938 -53.785156 C 27.210938 -55.78125 22.421875 -57.855469 17.554688 -57.933594 C 9.097656 -57.933594 3.273438 -52.1875 3.273438 -44.128906 C 3.273438 -38.0625 5.585938 -33.675781 11.492188 -28.886719 C 13.804688 -26.972656 15.878906 -25.136719 17.953125 -23.539062 C 22.824219 -19.628906 24.65625 -17.238281 24.65625 -13.484375 C 24.65625 -8.9375 21.464844 -5.984375 15.800781 -5.984375 C 11.332031 -5.984375 7.582031 -9.894531 6.542969 -11.730469 L 1.039062 -7.261719 C 2.871094 -3.832031 8.058594 0.796875 15.800781 0.796875 Z M 15.800781 0.796875 "/></g></g></g><g fill="#ffffff" fill-opacity="1"><g transform="translate(128.321053, 222.886102)"><g><path d="M 5.824219 0.078125 L 13.644531 0.078125 L 13.644531 -57.214844 L 5.824219 -57.214844 Z M 5.824219 0.078125 "/></g></g></g><g fill="#ffffff" fill-opacity="1"><g transform="translate(143.003548, 222.886102)"><g><path d="M 20.1875 0.796875 C 27.292969 0.796875 32.320312 -1.753906 35.351562 -5.105469 L 35.351562 -32.476562 L 19.628906 -32.476562 L 19.628906 -25.695312 L 27.609375 -25.695312 L 27.609375 -8.378906 C 27.609375 -8.21875 25.136719 -5.984375 20.1875 -5.984375 C 14.921875 -5.984375 12.367188 -8.378906 12.367188 -13.085938 L 12.367188 -44.050781 C 12.367188 -48.679688 15.003906 -51.152344 19.871094 -51.152344 C 22.023438 -51.152344 24.65625 -50.511719 26.574219 -49.796875 L 26.574219 -41.574219 L 33.753906 -41.574219 L 33.753906 -53.863281 C 30.800781 -55.699219 25.933594 -57.855469 19.949219 -57.933594 C 10.851562 -58.09375 4.628906 -52.429688 4.628906 -44.128906 L 4.628906 -13.007812 C 4.628906 -4.628906 10.851562 0.796875 20.1875 0.796875 Z M 20.1875 0.796875 "/></g></g></g><g fill="#ffffff" fill-opacity="1"><g transform="translate(178.592862, 222.886102)"><g><path d="M 29.527344 -57.214844 L 29.527344 -24.5 L 30.164062 -13.644531 C 30.164062 -13.804688 28.648438 -21.148438 27.132812 -24.976562 L 14.363281 -57.214844 L 5.824219 -57.214844 L 5.824219 0 L 13.246094 0 L 13.246094 -34.234375 L 12.527344 -45.246094 C 12.609375 -45.085938 14.125 -36.945312 15.960938 -32.71875 L 29.527344 0 L 37.027344 0 L 37.027344 -57.214844 Z M 29.527344 -57.214844 "/></g></g></g><g fill="#ffffff" fill-opacity="1"><g transform="translate(216.655888, 222.886102)"><g><path d="M 13.566406 -6.78125 L 13.566406 -26.175781 L 30.5625 -26.175781 L 30.5625 -32.957031 L 13.566406 -32.957031 L 13.566406 -50.433594 L 32.078125 -50.433594 L 32.078125 -57.214844 L 5.824219 -57.214844 L 5.824219 0 L 32.160156 0 L 32.160156 -6.78125 Z M 13.566406 -6.78125 "/></g></g></g><g fill="#ffffff" fill-opacity="1"><g transform="translate(246.659417, 222.886102)"><g><path d="M 34.394531 -57.214844 L 1.835938 -57.214844 L 1.835938 -50.433594 L 14.285156 -50.433594 L 14.285156 0 L 22.023438 0 L 22.023438 -50.433594 L 34.394531 -50.433594 Z M 34.394531 -57.214844 "/></g></g></g><g fill="#ffffff" fill-opacity="1"><g transform="translate(294.601449, 222.690744)"><g><path d="M 34.394531 -57.214844 L 1.835938 -57.214844 L 1.835938 -50.433594 L 14.285156 -50.433594 L 14.285156 0 L 22.023438 0 L 22.023438 -50.433594 L 34.394531 -50.433594 Z M 34.394531 -57.214844 "/></g></g></g><g fill="#ffffff" fill-opacity="1"><g transform="translate(326.039097, 222.690744)"><g><path d="M 30.164062 0 L 38.066406 0 L 23.0625 -57.214844 L 16.4375 -57.214844 L 1.4375 0 L 9.257812 0 L 12.210938 -12.527344 L 27.132812 -12.527344 Z M 13.804688 -19.3125 L 17.953125 -36.707031 C 18.671875 -39.421875 19.230469 -42.613281 19.710938 -45.886719 C 20.109375 -42.535156 20.667969 -39.339844 21.386719 -36.628906 L 25.535156 -19.3125 Z M 13.804688 -19.3125 "/></g></g></g><g fill="#ffffff" fill-opacity="1"><g transform="translate(360.748227, 222.690744)"><g><path d="M 20.1875 0.796875 C 27.292969 0.796875 32.320312 -1.753906 35.351562 -5.105469 L 35.351562 -32.476562 L 19.628906 -32.476562 L 19.628906 -25.695312 L 27.609375 -25.695312 L 27.609375 -8.378906 C 27.609375 -8.21875 25.136719 -5.984375 20.1875 -5.984375 C 14.921875 -5.984375 12.367188 -8.378906 12.367188 -13.085938 L 12.367188 -44.050781 C 12.367188 -48.679688 15.003906 -51.152344 19.871094 -51.152344 C 22.023438 -51.152344 24.65625 -50.511719 26.574219 -49.796875 L 26.574219 -41.574219 L 33.753906 -41.574219 L 33.753906 -53.863281 C 30.800781 -55.699219 25.933594 -57.855469 19.949219 -57.933594 C 10.851562 -58.09375 4.628906 -52.429688 4.628906 -44.128906 L 4.628906 -13.007812 C 4.628906 -4.628906 10.851562 0.796875 20.1875 0.796875 Z M 20.1875 0.796875 "/></g></g></g><g fill="#ffffff" fill-opacity="1"><g transform="translate(396.33508, 222.690744)"><g><path d="M 15.800781 0.796875 C 25.773438 0.796875 32.160156 -4.867188 32.320312 -13.644531 C 32.398438 -19.628906 30.164062 -23.859375 22.980469 -29.445312 C 20.988281 -31.042969 18.753906 -32.796875 16.277344 -34.871094 C 12.6875 -37.824219 10.851562 -40.300781 10.851562 -44.449219 C 10.933594 -48.4375 13.328125 -51.152344 17.476562 -51.152344 C 19.550781 -51.070312 21.625 -50.511719 22.902344 -49.714844 L 22.902344 -40.699219 L 30.085938 -40.699219 L 30.085938 -53.785156 C 27.210938 -55.78125 22.421875 -57.855469 17.554688 -57.933594 C 9.097656 -57.933594 3.273438 -52.1875 3.273438 -44.128906 C 3.273438 -38.066406 5.585938 -33.675781 11.492188 -28.886719 C 13.804688 -26.972656 15.878906 -25.136719 17.953125 -23.539062 C 22.824219 -19.628906 24.65625 -17.238281 24.65625 -13.484375 C 24.65625 -8.9375 21.464844 -5.984375 15.800781 -5.984375 C 11.332031 -5.984375 7.582031 -9.894531 6.542969 -11.730469 L 1.039062 -7.261719 C 2.871094 -3.832031 8.058594 0.796875 15.800781 0.796875 Z M 15.800781 0.796875 "/></g></g></g><g clip-path="url(#81d656edbf)"><path fill="#ffffff" d="M 89.78125 195.199219 C 89.78125 193.421875 87.171875 193.222656 86.292969 191.566406 C 86.613281 189.613281 89.277344 188.78125 88.832031 187.003906 C 88.390625 185.25 85.71875 185.746094 84.492188 184.253906 C 84.15625 182.203125 86.679688 180.683594 85.777344 179.035156 C 84.878906 177.390625 82.265625 178.695312 80.71875 177.339844 C 80.644531 177.238281 80.574219 177.140625 80.496094 177.039062 L 80.582031 177.128906 C 79.246094 175.183594 81.582031 172.835938 80.175781 171.421875 C 78.925781 170.167969 76.9375 171.878906 75.148438 171.332031 C 74.003906 169.726562 75.296875 167.246094 73.730469 166.304688 C 72.183594 165.378906 70.644531 167.625 68.726562 167.441406 C 67.046875 166.230469 67.757812 163.363281 65.957031 162.835938 C 64.140625 162.304688 63.210938 165.167969 61.101562 165.234375 C 60.949219 165.210938 60.796875 165.1875 60.644531 165.167969 L 60.945312 165.179688 C 58.632812 164.75 58.625 161.433594 56.636719 161.433594 C 54.871094 161.433594 54.667969 164.054688 53.019531 164.9375 C 51.074219 164.613281 50.242188 161.941406 48.472656 162.390625 C 46.726562 162.832031 47.21875 165.515625 45.734375 166.746094 C 43.691406 167.082031 42.179688 164.546875 40.535156 165.453125 C 38.804688 166.40625 40.347656 169.273438 38.597656 170.78125 C 38.453125 170.886719 38.308594 170.996094 38.167969 171.109375 L 38.640625 170.667969 C 36.699219 172.007812 34.359375 169.667969 32.953125 171.078125 C 31.703125 172.332031 33.40625 174.328125 32.863281 176.121094 C 31.261719 177.273438 28.792969 175.972656 27.855469 177.546875 C 26.933594 179.097656 29.171875 180.644531 28.988281 182.570312 C 27.78125 184.257812 24.925781 183.539062 24.402344 185.347656 C 23.84375 187.265625 27.015625 188.199219 26.777344 190.546875 C 26.765625 190.691406 26.757812 190.796875 26.75 190.878906 C 26.734375 191.015625 26.714844 191.15625 26.699219 191.292969 L 26.734375 190.378906 C 26.304688 192.703125 23 192.710938 23 194.707031 C 23 196.480469 25.613281 196.683594 26.492188 198.339844 C 26.171875 200.289062 23.507812 201.125 23.953125 202.902344 C 24.394531 204.652344 27.066406 204.15625 28.292969 205.648438 C 28.628906 207.699219 26.101562 209.21875 27.007812 210.871094 C 27.964844 212.621094 30.863281 211.027344 32.351562 212.859375 C 32.46875 213 32.550781 213.097656 32.609375 213.15625 C 32.6875 213.261719 32.769531 213.371094 32.851562 213.476562 L 32.203125 212.773438 C 33.535156 214.71875 31.203125 217.070312 32.609375 218.480469 C 33.859375 219.734375 35.847656 218.027344 37.636719 218.570312 C 38.78125 220.175781 37.488281 222.660156 39.054688 223.597656 C 40.601562 224.523438 42.140625 222.277344 44.058594 222.460938 C 45.738281 223.671875 45.023438 226.539062 46.828125 227.066406 C 48.734375 227.625 49.664062 224.441406 52.007812 224.679688 C 52.039062 224.679688 52.070312 224.6875 52.097656 224.6875 C 52.25 224.710938 52.402344 224.734375 52.554688 224.753906 L 51.839844 224.726562 C 54.152344 225.152344 54.160156 228.46875 56.148438 228.46875 C 57.914062 228.46875 58.117188 225.851562 59.765625 224.96875 C 61.710938 225.289062 62.542969 227.960938 64.3125 227.515625 C 66.058594 227.074219 65.5625 224.390625 67.050781 223.15625 C 69.09375 222.824219 70.605469 225.355469 72.25 224.449219 C 73.933594 223.523438 72.515625 220.78125 74.050781 219.246094 C 74.183594 219.152344 74.316406 219.054688 74.445312 218.957031 L 74.144531 219.234375 C 76.085938 217.894531 78.425781 220.238281 79.832031 218.828125 C 81.082031 217.570312 79.378906 215.574219 79.921875 213.78125 C 81.523438 212.628906 83.992188 213.929688 84.929688 212.355469 C 85.851562 210.804688 83.613281 209.257812 83.796875 207.332031 C 85.003906 205.648438 87.859375 206.363281 88.382812 204.554688 C 88.90625 202.75 86.125 201.816406 85.996094 199.75 C 86.019531 199.621094 86.039062 199.496094 86.054688 199.371094 L 86.050781 199.523438 C 86.476562 197.199219 89.78125 197.191406 89.78125 195.195312 Z M 56.394531 222.503906 C 41.234375 222.503906 28.945312 210.167969 28.945312 194.953125 C 28.945312 179.734375 41.234375 167.398438 56.390625 167.398438 C 71.550781 167.398438 83.839844 179.734375 83.839844 194.953125 C 83.839844 210.167969 71.550781 222.503906 56.390625 222.503906 Z M 56.394531 222.503906 " fill-opacity="1" fill-rule="nonzero"/></g><path fill="#ffffff" d="M 37.875 168.628906 C 37.875 168.902344 37.78125 169.132812 37.589844 169.320312 C 37.398438 169.511719 37.167969 169.609375 36.898438 169.609375 C 36.628906 169.609375 36.402344 169.511719 36.210938 169.320312 C 36.019531 169.132812 35.925781 168.902344 35.925781 168.628906 C 35.925781 168.359375 36.019531 168.128906 36.210938 167.9375 C 36.402344 167.746094 36.628906 167.652344 36.898438 167.652344 C 37.167969 167.652344 37.398438 167.746094 37.589844 167.9375 C 37.78125 168.128906 37.875 168.359375 37.875 168.628906 Z M 37.875 168.628906 " fill-opacity="1" fill-rule="nonzero"/><path fill="#ffffff" d="M 45.554688 164.210938 C 45.554688 164.480469 45.460938 164.714844 45.269531 164.902344 C 45.082031 165.09375 44.851562 165.191406 44.582031 165.191406 C 44.3125 165.191406 44.082031 165.09375 43.890625 164.902344 C 43.699219 164.714844 43.605469 164.480469 43.605469 164.210938 C 43.605469 163.941406 43.699219 163.710938 43.890625 163.519531 C 44.082031 163.328125 44.3125 163.234375 44.582031 163.234375 C 44.851562 163.234375 45.082031 163.328125 45.269531 163.519531 C 45.460938 163.710938 45.554688 163.941406 45.554688 164.210938 Z M 45.554688 164.210938 " fill-opacity="1" fill-rule="nonzero"/><g clip-path="url(#4a7b64c5f6)"><path fill="#ffffff" d="M 62.710938 162.410156 C 62.710938 162.683594 62.613281 162.914062 62.425781 163.105469 C 62.234375 163.296875 62.003906 163.390625 61.734375 163.390625 C 61.464844 163.390625 61.234375 163.296875 61.042969 163.105469 C 60.855469 162.914062 60.757812 162.683594 60.757812 162.410156 C 60.757812 162.140625 60.855469 161.910156 61.042969 161.71875 C 61.234375 161.527344 61.464844 161.433594 61.734375 161.433594 C 62.003906 161.433594 62.234375 161.527344 62.425781 161.71875 C 62.613281 161.910156 62.710938 162.140625 62.710938 162.410156 Z M 62.710938 162.410156 " fill-opacity="1" fill-rule="nonzero"/></g><g clip-path="url(#2f36b1e1ec)"><path fill="#ffffff" d="M 53.523438 162.410156 C 53.523438 162.683594 53.429688 162.914062 53.238281 163.105469 C 53.046875 163.296875 52.816406 163.390625 52.546875 163.390625 C 52.277344 163.390625 52.050781 163.296875 51.859375 163.105469 C 51.667969 162.914062 51.574219 162.683594 51.574219 162.410156 C 51.574219 162.140625 51.667969 161.910156 51.859375 161.71875 C 52.050781 161.527344 52.277344 161.433594 52.546875 161.433594 C 52.816406 161.433594 53.046875 161.527344 53.238281 161.71875 C 53.429688 161.910156 53.523438 162.140625 53.523438 162.410156 Z M 53.523438 162.410156 " fill-opacity="1" fill-rule="nonzero"/></g><path fill="#ffffff" d="M 70.753906 164.878906 C 70.753906 165.148438 70.660156 165.378906 70.46875 165.570312 C 70.277344 165.761719 70.050781 165.859375 69.78125 165.859375 C 69.511719 165.859375 69.28125 165.761719 69.089844 165.570312 C 68.898438 165.378906 68.804688 165.148438 68.804688 164.878906 C 68.804688 164.609375 68.898438 164.378906 69.089844 164.1875 C 69.28125 163.996094 69.511719 163.902344 69.78125 163.902344 C 70.050781 163.902344 70.277344 163.996094 70.46875 164.1875 C 70.660156 164.378906 70.753906 164.609375 70.753906 164.878906 Z M 70.753906 164.878906 " fill-opacity="1" fill-rule="nonzero"/><path fill="#ffffff" d="M 77.820312 169.519531 C 77.820312 169.789062 77.726562 170.023438 77.535156 170.210938 C 77.34375 170.402344 77.113281 170.5 76.84375 170.5 C 76.578125 170.5 76.347656 170.402344 76.15625 170.210938 C 75.964844 170.023438 75.871094 169.789062 75.871094 169.519531 C 75.871094 169.25 75.964844 169.019531 76.15625 168.828125 C 76.347656 168.636719 76.578125 168.542969 76.84375 168.542969 C 77.113281 168.542969 77.34375 168.636719 77.535156 168.828125 C 77.726562 169.019531 77.820312 169.25 77.820312 169.519531 Z M 77.820312 169.519531 " fill-opacity="1" fill-rule="nonzero"/><path fill="#ffffff" d="M 87.671875 183.304688 C 87.671875 183.574219 87.578125 183.804688 87.386719 183.996094 C 87.195312 184.1875 86.96875 184.28125 86.699219 184.28125 C 86.429688 184.28125 86.199219 184.1875 86.007812 183.996094 C 85.816406 183.804688 85.722656 183.574219 85.722656 183.304688 C 85.722656 183.035156 85.816406 182.804688 86.007812 182.613281 C 86.199219 182.421875 86.429688 182.324219 86.699219 182.324219 C 86.96875 182.324219 87.195312 182.421875 87.386719 182.613281 C 87.578125 182.804688 87.671875 183.035156 87.671875 183.304688 Z M 87.671875 183.304688 " fill-opacity="1" fill-rule="nonzero"/><path fill="#ffffff" d="M 83.449219 175.96875 C 83.449219 176.238281 83.355469 176.472656 83.164062 176.660156 C 82.972656 176.851562 82.746094 176.949219 82.476562 176.949219 C 82.207031 176.949219 81.976562 176.851562 81.785156 176.660156 C 81.59375 176.472656 81.5 176.238281 81.5 175.96875 C 81.5 175.699219 81.59375 175.46875 81.785156 175.277344 C 81.976562 175.085938 82.207031 174.992188 82.476562 174.992188 C 82.746094 174.992188 82.972656 175.085938 83.164062 175.277344 C 83.355469 175.46875 83.449219 175.699219 83.449219 175.96875 Z M 83.449219 175.96875 " fill-opacity="1" fill-rule="nonzero"/><g clip-path="url(#3f0540f0d5)"><path fill="#ffffff" d="M 89.625 191.527344 C 89.625 191.800781 89.527344 192.03125 89.335938 192.222656 C 89.148438 192.410156 88.917969 192.507812 88.648438 192.507812 C 88.378906 192.507812 88.148438 192.410156 87.957031 192.222656 C 87.769531 192.03125 87.671875 191.800781 87.671875 191.527344 C 87.671875 191.257812 87.769531 191.027344 87.957031 190.835938 C 88.148438 190.644531 88.378906 190.550781 88.648438 190.550781 C 88.917969 190.550781 89.148438 190.644531 89.335938 190.835938 C 89.527344 191.027344 89.625 191.257812 89.625 191.527344 Z M 89.625 191.527344 " fill-opacity="1" fill-rule="nonzero"/></g><g clip-path="url(#eae02c1234)"><path fill="#ffffff" d="M 24.644531 198.863281 C 24.644531 199.132812 24.550781 199.367188 24.359375 199.554688 C 24.167969 199.746094 23.9375 199.84375 23.667969 199.84375 C 23.398438 199.84375 23.171875 199.746094 22.980469 199.554688 C 22.789062 199.367188 22.695312 199.132812 22.695312 198.863281 C 22.695312 198.59375 22.789062 198.363281 22.980469 198.171875 C 23.171875 197.980469 23.398438 197.886719 23.667969 197.886719 C 23.9375 197.886719 24.167969 197.980469 24.359375 198.171875 C 24.550781 198.363281 24.644531 198.59375 24.644531 198.863281 Z M 24.644531 198.863281 " fill-opacity="1" fill-rule="nonzero"/></g><g clip-path="url(#d1d55c7e12)"><path fill="#ffffff" d="M 24.574219 190.324219 C 24.574219 190.59375 24.480469 190.824219 24.289062 191.015625 C 24.097656 191.207031 23.867188 191.300781 23.597656 191.300781 C 23.328125 191.300781 23.101562 191.207031 22.910156 191.015625 C 22.71875 190.824219 22.625 190.59375 22.625 190.324219 C 22.625 190.050781 22.71875 189.820312 22.910156 189.628906 C 23.101562 189.441406 23.328125 189.34375 23.597656 189.34375 C 23.867188 189.34375 24.097656 189.441406 24.289062 189.628906 C 24.480469 189.820312 24.574219 190.050781 24.574219 190.324219 Z M 24.574219 190.324219 " fill-opacity="1" fill-rule="nonzero"/></g><path fill="#ffffff" d="M 31.417969 174.433594 C 31.417969 174.703125 31.324219 174.933594 31.132812 175.125 C 30.941406 175.316406 30.710938 175.414062 30.445312 175.414062 C 30.175781 175.414062 29.945312 175.316406 29.753906 175.125 C 29.5625 174.933594 29.46875 174.703125 29.46875 174.433594 C 29.46875 174.164062 29.5625 173.933594 29.753906 173.742188 C 29.945312 173.550781 30.175781 173.453125 30.445312 173.453125 C 30.710938 173.453125 30.941406 173.550781 31.132812 173.742188 C 31.324219 173.933594 31.417969 174.164062 31.417969 174.433594 Z M 31.417969 174.433594 " fill-opacity="1" fill-rule="nonzero"/><path fill="#ffffff" d="M 27.214844 181.492188 C 27.214844 181.761719 27.121094 181.992188 26.929688 182.183594 C 26.742188 182.375 26.511719 182.46875 26.242188 182.46875 C 25.972656 182.46875 25.742188 182.375 25.550781 182.183594 C 25.363281 181.992188 25.265625 181.761719 25.265625 181.492188 C 25.265625 181.222656 25.363281 180.992188 25.550781 180.800781 C 25.742188 180.609375 25.972656 180.511719 26.242188 180.511719 C 26.511719 180.511719 26.742188 180.609375 26.929688 180.800781 C 27.121094 180.992188 27.214844 181.222656 27.214844 181.492188 Z M 27.214844 181.492188 " fill-opacity="1" fill-rule="nonzero"/><path fill="#ffffff" d="M 76.589844 221.542969 C 76.589844 221.8125 76.496094 222.042969 76.304688 222.234375 C 76.113281 222.425781 75.886719 222.519531 75.617188 222.519531 C 75.347656 222.519531 75.117188 222.425781 74.925781 222.234375 C 74.734375 222.042969 74.640625 221.8125 74.640625 221.542969 C 74.640625 221.273438 74.734375 221.042969 74.925781 220.851562 C 75.117188 220.660156 75.347656 220.5625 75.617188 220.5625 C 75.886719 220.5625 76.113281 220.660156 76.304688 220.851562 C 76.496094 221.042969 76.589844 221.273438 76.589844 221.542969 Z M 76.589844 221.542969 " fill-opacity="1" fill-rule="nonzero"/><path fill="#ffffff" d="M 68.910156 225.960938 C 68.910156 226.230469 68.8125 226.460938 68.625 226.652344 C 68.433594 226.84375 68.203125 226.941406 67.933594 226.941406 C 67.664062 226.941406 67.433594 226.84375 67.246094 226.652344 C 67.054688 226.460938 66.960938 226.230469 66.960938 225.960938 C 66.960938 225.691406 67.054688 225.460938 67.246094 225.269531 C 67.433594 225.078125 67.664062 224.980469 67.933594 224.980469 C 68.203125 224.980469 68.433594 225.078125 68.625 225.269531 C 68.8125 225.460938 68.910156 225.691406 68.910156 225.960938 Z M 68.910156 225.960938 " fill-opacity="1" fill-rule="nonzero"/><g clip-path="url(#eb9a4b49f1)"><path fill="#ffffff" d="M 51.757812 227.761719 C 51.757812 228.03125 51.660156 228.261719 51.46875 228.453125 C 51.28125 228.644531 51.050781 228.738281 50.78125 228.738281 C 50.511719 228.738281 50.28125 228.644531 50.089844 228.453125 C 49.902344 228.261719 49.804688 228.03125 49.804688 227.761719 C 49.804688 227.492188 49.902344 227.257812 50.089844 227.070312 C 50.28125 226.878906 50.511719 226.78125 50.78125 226.78125 C 51.050781 226.78125 51.28125 226.878906 51.46875 227.070312 C 51.660156 227.257812 51.757812 227.492188 51.757812 227.761719 Z M 51.757812 227.761719 " fill-opacity="1" fill-rule="nonzero"/></g><g clip-path="url(#9dbcc6942a)"><path fill="#ffffff" d="M 60.941406 227.761719 C 60.941406 228.03125 60.847656 228.261719 60.65625 228.453125 C 60.464844 228.644531 60.234375 228.738281 59.96875 228.738281 C 59.699219 228.738281 59.46875 228.644531 59.277344 228.453125 C 59.085938 228.261719 58.992188 228.03125 58.992188 227.761719 C 58.992188 227.492188 59.085938 227.257812 59.277344 227.070312 C 59.46875 226.878906 59.699219 226.78125 59.96875 226.78125 C 60.234375 226.78125 60.464844 226.878906 60.65625 227.070312 C 60.847656 227.257812 60.941406 227.492188 60.941406 227.761719 Z M 60.941406 227.761719 " fill-opacity="1" fill-rule="nonzero"/></g><path fill="#ffffff" d="M 43.710938 225.292969 C 43.710938 225.5625 43.613281 225.792969 43.425781 225.984375 C 43.234375 226.175781 43.003906 226.273438 42.734375 226.273438 C 42.464844 226.273438 42.234375 226.175781 42.046875 225.984375 C 41.855469 225.792969 41.761719 225.5625 41.761719 225.292969 C 41.761719 225.023438 41.855469 224.792969 42.046875 224.601562 C 42.234375 224.410156 42.464844 224.316406 42.734375 224.316406 C 43.003906 224.316406 43.234375 224.410156 43.425781 224.601562 C 43.613281 224.792969 43.710938 225.023438 43.710938 225.292969 Z M 43.710938 225.292969 " fill-opacity="1" fill-rule="nonzero"/><path fill="#ffffff" d="M 36.644531 220.652344 C 36.644531 220.921875 36.550781 221.152344 36.359375 221.34375 C 36.167969 221.535156 35.9375 221.632812 35.667969 221.632812 C 35.402344 221.632812 35.171875 221.535156 34.980469 221.34375 C 34.789062 221.152344 34.695312 220.921875 34.695312 220.652344 C 34.695312 220.382812 34.789062 220.152344 34.980469 219.960938 C 35.171875 219.769531 35.402344 219.671875 35.667969 219.671875 C 35.9375 219.671875 36.167969 219.769531 36.359375 219.960938 C 36.550781 220.152344 36.644531 220.382812 36.644531 220.652344 Z M 36.644531 220.652344 " fill-opacity="1" fill-rule="nonzero"/><path fill="#ffffff" d="M 26.792969 206.867188 C 26.792969 207.140625 26.695312 207.371094 26.507812 207.5625 C 26.316406 207.753906 26.085938 207.847656 25.816406 207.847656 C 25.546875 207.847656 25.316406 207.753906 25.128906 207.5625 C 24.9375 207.371094 24.84375 207.140625 24.84375 206.867188 C 24.84375 206.597656 24.9375 206.367188 25.128906 206.175781 C 25.316406 205.984375 25.546875 205.890625 25.816406 205.890625 C 26.085938 205.890625 26.316406 205.984375 26.507812 206.175781 C 26.695312 206.367188 26.792969 206.597656 26.792969 206.867188 Z M 26.792969 206.867188 " fill-opacity="1" fill-rule="nonzero"/><path fill="#ffffff" d="M 31.015625 214.203125 C 31.015625 214.472656 30.917969 214.703125 30.730469 214.894531 C 30.539062 215.085938 30.308594 215.183594 30.039062 215.183594 C 29.769531 215.183594 29.539062 215.085938 29.351562 214.894531 C 29.160156 214.703125 29.066406 214.472656 29.066406 214.203125 C 29.066406 213.933594 29.160156 213.703125 29.351562 213.511719 C 29.539062 213.320312 29.769531 213.222656 30.039062 213.222656 C 30.308594 213.222656 30.539062 213.320312 30.730469 213.511719 C 30.917969 213.703125 31.015625 213.933594 31.015625 214.203125 Z M 31.015625 214.203125 " fill-opacity="1" fill-rule="nonzero"/><g clip-path="url(#1d233d5831)"><path fill="#ffffff" d="M 24.84375 198.644531 C 24.84375 198.914062 24.746094 199.144531 24.558594 199.335938 C 24.367188 199.527344 24.136719 199.621094 23.867188 199.621094 C 23.597656 199.621094 23.367188 199.527344 23.175781 199.335938 C 22.988281 199.144531 22.890625 198.914062 22.890625 198.644531 C 22.890625 198.375 22.988281 198.144531 23.175781 197.953125 C 23.367188 197.761719 23.597656 197.664062 23.867188 197.664062 C 24.136719 197.664062 24.367188 197.761719 24.558594 197.953125 C 24.746094 198.144531 24.84375 198.375 24.84375 198.644531 Z M 24.84375 198.644531 " fill-opacity="1" fill-rule="nonzero"/></g><g clip-path="url(#3435e2778a)"><path fill="#ffffff" d="M 89.890625 199.851562 C 89.890625 200.121094 89.796875 200.351562 89.605469 200.542969 C 89.414062 200.734375 89.183594 200.828125 88.917969 200.828125 C 88.648438 200.828125 88.417969 200.734375 88.226562 200.542969 C 88.035156 200.351562 87.941406 200.121094 87.941406 199.851562 C 87.941406 199.578125 88.035156 199.347656 88.226562 199.15625 C 88.417969 198.964844 88.648438 198.871094 88.917969 198.871094 C 89.183594 198.871094 89.414062 198.964844 89.605469 199.15625 C 89.796875 199.347656 89.890625 199.578125 89.890625 199.851562 Z M 89.890625 199.851562 " fill-opacity="1" fill-rule="nonzero"/></g><path fill="#ffffff" d="M 83.046875 215.738281 C 83.046875 216.007812 82.953125 216.238281 82.761719 216.429688 C 82.570312 216.621094 82.339844 216.71875 82.070312 216.71875 C 81.800781 216.71875 81.574219 216.621094 81.382812 216.429688 C 81.191406 216.238281 81.097656 216.007812 81.097656 215.738281 C 81.097656 215.46875 81.191406 215.238281 81.382812 215.046875 C 81.574219 214.855469 81.800781 214.761719 82.070312 214.761719 C 82.339844 214.761719 82.570312 214.855469 82.761719 215.046875 C 82.953125 215.238281 83.046875 215.46875 83.046875 215.738281 Z M 83.046875 215.738281 " fill-opacity="1" fill-rule="nonzero"/><path fill="#ffffff" d="M 87.25 208.679688 C 87.25 208.949219 87.152344 209.183594 86.964844 209.371094 C 86.773438 209.5625 86.542969 209.660156 86.273438 209.660156 C 86.003906 209.660156 85.773438 209.5625 85.585938 209.371094 C 85.394531 209.183594 85.300781 208.949219 85.300781 208.679688 C 85.300781 208.410156 85.394531 208.179688 85.585938 207.988281 C 85.773438 207.796875 86.003906 207.703125 86.273438 207.703125 C 86.542969 207.703125 86.773438 207.796875 86.964844 207.988281 C 87.152344 208.179688 87.25 208.410156 87.25 208.679688 Z M 87.25 208.679688 " fill-opacity="1" fill-rule="nonzero"/><g clip-path="url(#181f07917d)"><path fill="#ffffff" d="M 75.984375 175.65625 C 70.773438 170.445312 63.84375 167.574219 56.476562 167.574219 C 49.105469 167.574219 42.179688 170.445312 36.96875 175.65625 C 31.757812 180.867188 28.886719 187.792969 28.886719 195.164062 C 28.886719 202.535156 31.757812 209.460938 36.96875 214.671875 C 42.179688 219.882812 49.105469 222.753906 56.472656 222.753906 C 63.84375 222.753906 70.773438 219.882812 75.980469 214.671875 C 81.191406 209.460938 84.0625 202.535156 84.0625 195.164062 C 84.0625 187.796875 81.191406 180.867188 75.980469 175.65625 Z M 56.476562 168.210938 C 68.375 168.210938 78.5 175.96875 82.058594 186.6875 L 72.34375 186.6875 L 73.675781 185.886719 L 72.054688 186.6875 L 70.042969 186.6875 L 72.945312 184.640625 L 69.46875 186.6875 L 68.734375 186.6875 L 72.386719 183.820312 L 68.039062 186.6875 L 67.105469 186.6875 L 71.503906 182.675781 L 66.300781 186.6875 L 66.136719 186.6875 L 70.851562 181.929688 L 65.292969 186.6875 L 64.894531 186.6875 L 69.835938 180.902344 L 64.542969 186.15625 L 69.09375 180.246094 L 63.230469 186.6875 L 63.128906 186.6875 L 67.957031 179.351562 L 63.359375 185.222656 L 67.140625 178.792969 L 61.808594 186.363281 L 65.902344 178.046875 L 62.070312 184.445312 L 65.023438 177.59375 L 60.671875 185.769531 L 63.703125 177.011719 L 60.695312 183.832031 L 62.773438 176.667969 L 59.472656 185.320312 L 61.386719 176.253906 L 59.253906 183.394531 L 60.421875 176.027344 L 58.222656 185.027344 L 58.996094 175.789062 L 57.765625 183.144531 L 58.011719 175.6875 L 56.949219 184.886719 L 56.566406 175.625 L 56.261719 183.074219 L 55.578125 175.644531 L 55.648438 183.101562 L 54.589844 175.714844 L 55.148438 184.960938 L 53.15625 175.90625 L 54.15625 183.296875 L 52.1875 176.101562 L 53.886719 185.207031 L 50.789062 176.46875 L 52.695312 183.675781 L 49.847656 176.78125 L 52.667969 185.605469 L 48.507812 177.320312 L 51.296875 184.234375 L 47.613281 177.746094 L 51.507812 186.152344 L 46.347656 178.449219 L 49.976562 184.964844 L 45.515625 178.984375 L 50.335938 186.695312 L 50.300781 186.695312 L 44.347656 179.839844 L 48.757812 185.851562 L 43.589844 180.46875 L 48.65625 186.691406 L 48.367188 186.691406 L 42.535156 181.464844 L 47.480469 186.691406 L 47.429688 186.691406 L 41.863281 182.1875 L 46.578125 186.691406 L 45.832031 186.691406 L 40.945312 183.300781 L 45.0625 186.691406 L 44.53125 186.691406 L 40.363281 184.101562 L 43.851562 186.691406 L 42.203125 186.691406 L 39.589844 185.324219 L 41.75 186.691406 L 40.199219 186.691406 L 39.113281 186.191406 L 40 186.691406 L 30.890625 186.691406 C 34.449219 175.964844 44.574219 168.210938 56.476562 168.210938 Z M 56.476562 222.113281 C 44.800781 222.113281 34.835938 214.652344 31.101562 204.246094 L 40.503906 204.246094 L 39.511719 204.878906 L 40.710938 204.246094 L 42.769531 204.246094 L 40.277344 206.105469 L 43.253906 204.246094 L 44.074219 204.246094 L 40.851562 206.910156 L 44.675781 204.246094 L 45.707031 204.246094 L 41.761719 208.035156 L 46.417969 204.246094 L 46.683594 204.246094 L 42.429688 208.761719 L 47.445312 204.246094 L 47.949219 204.246094 L 43.472656 209.765625 L 48.628906 204.378906 L 44.230469 210.402344 L 49.554688 204.246094 L 49.757812 204.246094 L 45.390625 211.265625 L 49.835938 205.28125 L 46.21875 211.804688 L 51.261719 204.246094 L 51.292969 204.246094 L 47.480469 212.515625 L 51.144531 206.027344 L 48.367188 212.949219 L 52.511719 204.667969 L 49.703125 213.5 L 52.539062 206.605469 L 50.640625 213.820312 L 53.722656 205.085938 L 52.035156 214.199219 L 53.988281 207.003906 L 53.003906 214.402344 L 54.976562 205.351562 L 54.4375 214.605469 L 55.480469 207.222656 L 55.421875 214.683594 L 56.253906 205.457031 L 56.871094 214.707031 L 56.988281 207.253906 L 57.859375 214.660156 L 57.535156 205.402344 L 59.296875 214.503906 L 58.484375 207.09375 L 60.273438 214.335938 L 58.800781 205.191406 L 61.679688 214.003906 L 59.953125 206.75 L 62.625 213.714844 L 60.027344 204.820312 L 63.980469 213.207031 L 61.367188 206.226562 L 64.882812 212.804688 L 61.203125 204.304688 L 66.164062 212.132812 L 62.703125 205.53125 L 67.011719 211.621094 L 62.65625 204.242188 L 62.796875 204.242188 L 68.199219 210.796875 L 63.945312 204.671875 L 68.976562 210.179688 L 64.382812 204.242188 L 64.78125 204.242188 L 70.050781 209.214844 L 65.582031 204.242188 L 65.738281 204.242188 L 70.746094 208.511719 L 66.503906 204.242188 L 67.355469 204.242188 L 71.695312 207.417969 L 68.03125 204.242188 L 68.660156 204.242188 L 72.296875 206.632812 L 69.238281 204.242188 L 70.964844 204.242188 L 73.101562 205.429688 L 71.324219 204.242188 L 72.921875 204.242188 L 73.601562 204.574219 L 73.042969 204.242188 L 81.847656 204.242188 C 78.109375 214.648438 68.148438 222.109375 56.472656 222.109375 Z M 30.882812 203.609375 C 30.003906 200.953125 29.523438 198.113281 29.523438 195.164062 C 29.523438 192.4375 29.933594 189.804688 30.6875 187.324219 L 82.261719 187.324219 C 83.019531 189.804688 83.429688 192.4375 83.429688 195.164062 C 83.429688 198.113281 82.949219 200.953125 82.070312 203.609375 Z M 30.882812 203.609375 " fill-opacity="1" fill-rule="nonzero"/></g><g clip-path="url(#3ad0257aec)"><path fill="#ffffff" d="M 76.46875 175.167969 C 71.128906 169.828125 64.027344 166.886719 56.476562 166.886719 C 48.921875 166.886719 41.820312 169.828125 36.480469 175.167969 C 31.140625 180.511719 28.199219 187.609375 28.199219 195.164062 C 28.199219 202.71875 31.140625 209.820312 36.480469 215.160156 C 41.820312 220.5 48.921875 223.441406 56.476562 223.441406 C 64.03125 223.441406 71.128906 220.5 76.472656 215.160156 C 81.8125 209.820312 84.753906 202.71875 84.753906 195.164062 C 84.753906 187.609375 81.8125 180.511719 76.472656 175.167969 Z M 56.476562 223.335938 C 40.941406 223.335938 28.304688 210.699219 28.304688 195.164062 C 28.304688 179.632812 40.941406 166.992188 56.476562 166.992188 C 72.011719 166.992188 84.648438 179.628906 84.648438 195.164062 C 84.648438 210.699219 72.011719 223.335938 56.476562 223.335938 Z M 56.476562 223.335938 " fill-opacity="1" fill-rule="nonzero"/></g><g fill="#ffffff" fill-opacity="1"><g transform="translate(38.574662, 200.665306)"><g><path d="M 3.027344 0.152344 C 4.9375 0.152344 6.160156 -0.933594 6.191406 -2.613281 C 6.207031 -3.761719 5.777344 -4.570312 4.402344 -5.640625 C 4.019531 -5.945312 3.59375 -6.285156 3.117188 -6.679688 C 2.429688 -7.246094 2.078125 -7.71875 2.078125 -8.515625 C 2.09375 -9.28125 2.554688 -9.800781 3.347656 -9.800781 C 3.746094 -9.785156 4.144531 -9.675781 4.386719 -9.523438 L 4.386719 -7.796875 L 5.761719 -7.796875 L 5.761719 -10.304688 C 5.214844 -10.6875 4.296875 -11.082031 3.363281 -11.097656 C 1.742188 -11.097656 0.625 -10 0.625 -8.453125 C 0.625 -7.292969 1.070312 -6.453125 2.203125 -5.535156 C 2.644531 -5.167969 3.042969 -4.816406 3.441406 -4.511719 C 4.371094 -3.761719 4.722656 -3.300781 4.722656 -2.582031 C 4.722656 -1.710938 4.113281 -1.148438 3.027344 -1.148438 C 2.171875 -1.148438 1.453125 -1.894531 1.253906 -2.246094 L 0.199219 -1.390625 C 0.550781 -0.734375 1.542969 0.152344 3.027344 0.152344 Z M 3.027344 0.152344 "/></g></g></g><g fill="#ffffff" fill-opacity="1"><g transform="translate(44.517796, 200.665306)"><g><path d="M 1.117188 0.015625 L 2.613281 0.015625 L 2.613281 -10.960938 L 1.117188 -10.960938 Z M 1.117188 0.015625 "/></g></g></g><g fill="#ffffff" fill-opacity="1"><g transform="translate(47.328515, 200.665306)"><g><path d="M 3.867188 0.152344 C 5.230469 0.152344 6.191406 -0.335938 6.773438 -0.976562 L 6.773438 -6.222656 L 3.761719 -6.222656 L 3.761719 -4.921875 L 5.289062 -4.921875 L 5.289062 -1.605469 C 5.289062 -1.574219 4.816406 -1.148438 3.867188 -1.148438 C 2.859375 -1.148438 2.371094 -1.605469 2.371094 -2.507812 L 2.371094 -8.4375 C 2.371094 -9.324219 2.875 -9.800781 3.808594 -9.800781 C 4.21875 -9.800781 4.722656 -9.675781 5.089844 -9.539062 L 5.089844 -7.964844 L 6.46875 -7.964844 L 6.46875 -10.320312 C 5.902344 -10.671875 4.96875 -11.082031 3.820312 -11.097656 C 2.078125 -11.128906 0.886719 -10.042969 0.886719 -8.453125 L 0.886719 -2.492188 C 0.886719 -0.886719 2.078125 0.152344 3.867188 0.152344 Z M 3.867188 0.152344 "/></g></g></g><g fill="#ffffff" fill-opacity="1"><g transform="translate(54.142608, 200.665306)"><g><path d="M 5.65625 -10.960938 L 5.65625 -4.695312 L 5.777344 -2.613281 C 5.777344 -2.644531 5.488281 -4.050781 5.199219 -4.785156 L 2.75 -10.960938 L 1.117188 -10.960938 L 1.117188 0 L 2.539062 0 L 2.539062 -6.558594 L 2.398438 -8.667969 C 2.414062 -8.636719 2.707031 -7.078125 3.058594 -6.269531 L 5.65625 0 L 7.09375 0 L 7.09375 -10.960938 Z M 5.65625 -10.960938 "/></g></g></g><g fill="#ffffff" fill-opacity="1"><g transform="translate(61.430388, 200.665306)"><g><path d="M 2.597656 -1.300781 L 2.597656 -5.015625 L 5.855469 -5.015625 L 5.855469 -6.3125 L 2.597656 -6.3125 L 2.597656 -9.664062 L 6.144531 -9.664062 L 6.144531 -10.960938 L 1.117188 -10.960938 L 1.117188 0 L 6.160156 0 L 6.160156 -1.300781 Z M 2.597656 -1.300781 "/></g></g></g><g fill="#ffffff" fill-opacity="1"><g transform="translate(67.174877, 200.665306)"><g><path d="M 6.589844 -10.960938 L 0.351562 -10.960938 L 0.351562 -9.664062 L 2.738281 -9.664062 L 2.738281 0 L 4.21875 0 L 4.21875 -9.664062 L 6.589844 -9.664062 Z M 6.589844 -10.960938 "/></g></g></g></svg>