<svg xmlns="http://www.w3.org/2000/svg" xmlns:xlink="http://www.w3.org/1999/xlink" width="250" zoomAndPan="magnify" viewBox="0 0 187.5 56.249996" height="75" preserveAspectRatio="xMidYMid meet" version="1.0"><defs><clipPath id="8a96b7168b"><path d="M 4.667969 1.78125 L 56.472656 1.78125 L 56.472656 53.917969 L 4.667969 53.917969 Z M 4.667969 1.78125 " clip-rule="nonzero"/></clipPath><clipPath id="15f5acd241"><path d="M 34.015625 1.78125 L 35.980469 1.78125 L 35.980469 3.957031 L 34.015625 3.957031 Z M 34.015625 1.78125 " clip-rule="nonzero"/></clipPath><clipPath id="e65c4b0797"><path d="M 26.148438 1.78125 L 29 1.78125 L 29 3.957031 L 26.148438 3.957031 Z M 26.148438 1.78125 " clip-rule="nonzero"/></clipPath><clipPath id="cb8743607c"><path d="M 54.664062 24 L 56.472656 24 L 56.472656 26 L 54.664062 26 Z M 54.664062 24 " clip-rule="nonzero"/></clipPath><clipPath id="0b1f660ca4"><path d="M 4.667969 30 L 6.484375 30 L 6.484375 31.664062 L 4.667969 31.664062 Z M 4.667969 30 " clip-rule="nonzero"/></clipPath><clipPath id="3b13da5d96"><path d="M 4.667969 23 L 6.484375 23 L 6.484375 25 L 4.667969 25 Z M 4.667969 23 " clip-rule="nonzero"/></clipPath><clipPath id="de85aac5e1"><path d="M 25.164062 52 L 27.132812 52 L 27.132812 53.917969 L 25.164062 53.917969 Z M 25.164062 52 " clip-rule="nonzero"/></clipPath><clipPath id="649d2b7d7f"><path d="M 32.046875 52 L 35 52 L 35 53.917969 L 32.046875 53.917969 Z M 32.046875 52 " clip-rule="nonzero"/></clipPath><clipPath id="34b452da46"><path d="M 4.667969 29.683594 L 6.484375 29.683594 L 6.484375 31.664062 L 4.667969 31.664062 Z M 4.667969 29.683594 " clip-rule="nonzero"/></clipPath><clipPath id="8c8081debd"><path d="M 54.664062 30.671875 L 56.472656 30.671875 L 56.472656 32.652344 L 54.664062 32.652344 Z M 54.664062 30.671875 " clip-rule="nonzero"/></clipPath><clipPath id="e98cede811"><path d="M 9.105469 5.507812 L 52.160156 5.507812 L 52.160156 48.832031 L 9.105469 48.832031 Z M 9.105469 5.507812 " clip-rule="nonzero"/></clipPath></defs><g clip-path="url(#8a96b7168b)"><path fill="#000000" d="M 56.375 27.941406 C 56.375 26.570312 54.363281 26.410156 53.683594 25.128906 C 53.929688 23.617188 55.980469 22.96875 55.640625 21.59375 C 55.300781 20.238281 53.242188 20.621094 52.296875 19.464844 C 52.039062 17.875 53.984375 16.703125 53.289062 15.421875 C 52.597656 14.148438 50.585938 15.160156 49.394531 14.109375 C 49.335938 14.03125 49.28125 13.953125 49.226562 13.875 L 49.289062 13.945312 C 48.261719 12.4375 50.058594 10.621094 48.976562 9.527344 C 48.015625 8.554688 46.484375 9.878906 45.109375 9.457031 C 44.222656 8.214844 45.21875 6.289062 44.011719 5.5625 C 42.824219 4.84375 41.640625 6.585938 40.160156 6.441406 C 38.871094 5.503906 39.417969 3.28125 38.03125 2.875 C 36.632812 2.464844 35.917969 4.679688 34.292969 4.730469 C 34.175781 4.714844 34.058594 4.695312 33.941406 4.679688 L 34.171875 4.6875 C 32.390625 4.355469 32.386719 1.789062 30.859375 1.789062 C 29.496094 1.789062 29.339844 3.820312 28.070312 4.503906 C 26.574219 4.25 25.933594 2.183594 24.570312 2.527344 C 23.226562 2.871094 23.605469 4.949219 22.464844 5.902344 C 20.890625 6.160156 19.726562 4.203125 18.460938 4.902344 C 17.128906 5.640625 18.316406 7.863281 16.96875 9.027344 C 16.859375 9.109375 16.746094 9.195312 16.636719 9.285156 L 17.003906 8.941406 C 15.507812 9.980469 13.707031 8.167969 12.625 9.257812 C 11.664062 10.230469 12.972656 11.777344 12.554688 13.164062 C 11.324219 14.058594 9.421875 13.050781 8.699219 14.269531 C 7.988281 15.472656 9.714844 16.671875 9.570312 18.164062 C 8.640625 19.46875 6.445312 18.910156 6.042969 20.3125 C 5.613281 21.800781 8.054688 22.519531 7.871094 24.339844 C 7.863281 24.449219 7.855469 24.53125 7.851562 24.59375 C 7.835938 24.703125 7.824219 24.808594 7.808594 24.917969 L 7.835938 24.210938 C 7.507812 26.007812 4.960938 26.015625 4.960938 27.5625 C 4.960938 28.933594 6.976562 29.09375 7.652344 30.375 C 7.40625 31.886719 5.355469 32.53125 5.695312 33.910156 C 6.039062 35.265625 8.09375 34.882812 9.039062 36.039062 C 9.292969 37.628906 7.351562 38.800781 8.046875 40.082031 C 8.785156 41.4375 11.015625 40.207031 12.160156 41.621094 C 12.25 41.730469 12.3125 41.804688 12.359375 41.851562 C 12.421875 41.9375 12.484375 42.019531 12.546875 42.097656 L 12.042969 41.554688 C 13.074219 43.0625 11.277344 44.882812 12.359375 45.976562 C 13.320312 46.945312 14.851562 45.625 16.226562 46.046875 C 17.109375 47.289062 16.117188 49.214844 17.324219 49.941406 C 18.511719 50.660156 19.695312 48.917969 21.175781 49.058594 C 22.464844 50 21.917969 52.21875 23.300781 52.628906 C 24.773438 53.058594 25.488281 50.59375 27.292969 50.777344 C 27.316406 50.78125 27.339844 50.785156 27.363281 50.785156 C 27.476562 50.804688 27.597656 50.820312 27.710938 50.835938 L 27.164062 50.816406 C 28.945312 51.144531 28.949219 53.714844 30.480469 53.714844 C 31.839844 53.714844 31.996094 51.683594 33.265625 51 C 34.761719 51.25 35.402344 53.320312 36.765625 52.976562 C 38.109375 52.632812 37.730469 50.550781 38.871094 49.597656 C 40.445312 49.339844 41.609375 51.300781 42.875 50.601562 C 44.171875 49.882812 43.078125 47.761719 44.261719 46.570312 C 44.363281 46.496094 44.464844 46.421875 44.566406 46.34375 L 44.332031 46.5625 C 45.824219 45.523438 47.628906 47.335938 48.710938 46.246094 C 49.671875 45.273438 48.359375 43.726562 48.78125 42.335938 C 50.011719 41.445312 51.914062 42.449219 52.636719 41.234375 C 53.347656 40.03125 51.621094 38.832031 51.765625 37.339844 C 52.695312 36.035156 54.890625 36.589844 55.292969 35.1875 C 55.699219 33.792969 53.554688 33.070312 53.457031 31.464844 C 53.472656 31.371094 53.488281 31.273438 53.503906 31.171875 L 53.496094 31.292969 C 53.828125 29.492188 56.371094 29.488281 56.371094 27.941406 Z M 30.667969 49.089844 C 19 49.089844 9.539062 39.535156 9.539062 27.75 C 9.539062 15.964844 18.996094 6.410156 30.664062 6.410156 C 42.335938 6.410156 51.796875 15.964844 51.796875 27.75 C 51.796875 39.535156 42.335938 49.089844 30.664062 49.089844 Z M 30.667969 49.089844 " fill-opacity="1" fill-rule="nonzero"/></g><path fill="#000000" d="M 16.410156 7.363281 C 16.410156 7.570312 16.339844 7.75 16.191406 7.898438 C 16.046875 8.046875 15.871094 8.121094 15.664062 8.121094 C 15.457031 8.121094 15.277344 8.046875 15.132812 7.898438 C 14.984375 7.75 14.910156 7.570312 14.910156 7.363281 C 14.910156 7.15625 14.984375 6.976562 15.132812 6.824219 C 15.277344 6.679688 15.457031 6.605469 15.664062 6.605469 C 15.871094 6.605469 16.046875 6.679688 16.191406 6.824219 C 16.339844 6.976562 16.410156 7.15625 16.410156 7.363281 Z M 16.410156 7.363281 " fill-opacity="1" fill-rule="nonzero"/><path fill="#000000" d="M 22.328125 3.9375 C 22.328125 4.152344 22.253906 4.328125 22.105469 4.476562 C 21.957031 4.625 21.78125 4.699219 21.574219 4.699219 C 21.367188 4.699219 21.191406 4.625 21.042969 4.476562 C 20.898438 4.328125 20.824219 4.152344 20.824219 3.9375 C 20.824219 3.730469 20.898438 3.550781 21.042969 3.40625 C 21.191406 3.253906 21.367188 3.179688 21.574219 3.179688 C 21.78125 3.179688 21.957031 3.253906 22.105469 3.40625 C 22.253906 3.550781 22.328125 3.730469 22.328125 3.9375 Z M 22.328125 3.9375 " fill-opacity="1" fill-rule="nonzero"/><g clip-path="url(#15f5acd241)"><path fill="#000000" d="M 35.53125 2.546875 C 35.53125 2.753906 35.457031 2.933594 35.308594 3.082031 C 35.164062 3.230469 34.988281 3.304688 34.78125 3.304688 C 34.570312 3.304688 34.394531 3.230469 34.25 3.082031 C 34.101562 2.933594 34.03125 2.753906 34.03125 2.546875 C 34.03125 2.339844 34.101562 2.15625 34.25 2.011719 C 34.394531 1.863281 34.570312 1.789062 34.78125 1.789062 C 34.988281 1.789062 35.164062 1.863281 35.308594 2.011719 C 35.457031 2.15625 35.53125 2.339844 35.53125 2.546875 Z M 35.53125 2.546875 " fill-opacity="1" fill-rule="nonzero"/></g><g clip-path="url(#e65c4b0797)"><path fill="#000000" d="M 28.460938 2.546875 C 28.460938 2.753906 28.382812 2.933594 28.238281 3.082031 C 28.09375 3.230469 27.914062 3.304688 27.707031 3.304688 C 27.5 3.304688 27.324219 3.230469 27.179688 3.082031 C 27.03125 2.933594 26.960938 2.753906 26.960938 2.546875 C 26.960938 2.339844 27.03125 2.15625 27.179688 2.011719 C 27.324219 1.863281 27.5 1.789062 27.707031 1.789062 C 27.914062 1.789062 28.09375 1.863281 28.238281 2.011719 C 28.382812 2.15625 28.460938 2.339844 28.460938 2.546875 Z M 28.460938 2.546875 " fill-opacity="1" fill-rule="nonzero"/></g><path fill="#000000" d="M 41.722656 4.457031 C 41.722656 4.664062 41.652344 4.847656 41.503906 4.992188 C 41.359375 5.140625 41.183594 5.214844 40.976562 5.214844 C 40.769531 5.214844 40.589844 5.140625 40.441406 4.992188 C 40.296875 4.847656 40.222656 4.664062 40.222656 4.457031 C 40.222656 4.246094 40.296875 4.070312 40.441406 3.921875 C 40.589844 3.773438 40.769531 3.699219 40.976562 3.699219 C 41.183594 3.699219 41.359375 3.773438 41.503906 3.921875 C 41.652344 4.070312 41.722656 4.246094 41.722656 4.457031 Z M 41.722656 4.457031 " fill-opacity="1" fill-rule="nonzero"/><path fill="#000000" d="M 47.164062 8.050781 C 47.164062 8.261719 47.089844 8.441406 46.945312 8.589844 C 46.796875 8.734375 46.621094 8.8125 46.414062 8.8125 C 46.207031 8.8125 46.03125 8.734375 45.878906 8.589844 C 45.734375 8.441406 45.660156 8.261719 45.660156 8.050781 C 45.660156 7.84375 45.734375 7.664062 45.878906 7.519531 C 46.03125 7.367188 46.207031 7.292969 46.414062 7.292969 C 46.621094 7.292969 46.796875 7.367188 46.945312 7.519531 C 47.089844 7.664062 47.164062 7.84375 47.164062 8.050781 Z M 47.164062 8.050781 " fill-opacity="1" fill-rule="nonzero"/><path fill="#000000" d="M 54.75 18.730469 C 54.75 18.9375 54.675781 19.117188 54.527344 19.265625 C 54.378906 19.414062 54.203125 19.488281 53.996094 19.488281 C 53.789062 19.488281 53.613281 19.414062 53.464844 19.265625 C 53.320312 19.117188 53.246094 18.9375 53.246094 18.730469 C 53.246094 18.519531 53.320312 18.339844 53.464844 18.191406 C 53.613281 18.046875 53.789062 17.96875 53.996094 17.96875 C 54.203125 17.96875 54.378906 18.046875 54.527344 18.191406 C 54.675781 18.339844 54.75 18.519531 54.75 18.730469 Z M 54.75 18.730469 " fill-opacity="1" fill-rule="nonzero"/><path fill="#000000" d="M 51.496094 13.046875 C 51.496094 13.257812 51.421875 13.433594 51.277344 13.585938 C 51.128906 13.734375 50.953125 13.804688 50.746094 13.804688 C 50.539062 13.804688 50.363281 13.734375 50.214844 13.585938 C 50.070312 13.433594 49.996094 13.257812 49.996094 13.046875 C 49.996094 12.839844 50.070312 12.660156 50.214844 12.511719 C 50.363281 12.363281 50.539062 12.292969 50.746094 12.292969 C 50.953125 12.292969 51.128906 12.363281 51.277344 12.511719 C 51.421875 12.660156 51.496094 12.839844 51.496094 13.046875 Z M 51.496094 13.046875 " fill-opacity="1" fill-rule="nonzero"/><g clip-path="url(#cb8743607c)"><path fill="#000000" d="M 56.25 25.101562 C 56.25 25.308594 56.171875 25.488281 56.027344 25.636719 C 55.882812 25.785156 55.707031 25.859375 55.496094 25.859375 C 55.289062 25.859375 55.113281 25.785156 54.96875 25.636719 C 54.820312 25.488281 54.75 25.308594 54.75 25.101562 C 54.75 24.890625 54.820312 24.714844 54.96875 24.5625 C 55.113281 24.417969 55.289062 24.34375 55.496094 24.34375 C 55.707031 24.34375 55.882812 24.417969 56.027344 24.5625 C 56.171875 24.714844 56.25 24.890625 56.25 25.101562 Z M 56.25 25.101562 " fill-opacity="1" fill-rule="nonzero"/></g><g clip-path="url(#0b1f660ca4)"><path fill="#000000" d="M 6.230469 30.78125 C 6.230469 30.992188 6.15625 31.167969 6.007812 31.320312 C 5.859375 31.464844 5.683594 31.539062 5.476562 31.539062 C 5.269531 31.539062 5.09375 31.464844 4.945312 31.320312 C 4.800781 31.167969 4.726562 30.992188 4.726562 30.78125 C 4.726562 30.574219 4.800781 30.394531 4.945312 30.246094 C 5.09375 30.097656 5.269531 30.023438 5.476562 30.023438 C 5.683594 30.023438 5.859375 30.097656 6.007812 30.246094 C 6.15625 30.394531 6.230469 30.574219 6.230469 30.78125 Z M 6.230469 30.78125 " fill-opacity="1" fill-rule="nonzero"/></g><g clip-path="url(#3b13da5d96)"><path fill="#000000" d="M 6.175781 24.164062 C 6.175781 24.375 6.101562 24.554688 5.953125 24.703125 C 5.808594 24.847656 5.628906 24.921875 5.421875 24.921875 C 5.214844 24.921875 5.039062 24.847656 4.894531 24.703125 C 4.746094 24.554688 4.675781 24.375 4.675781 24.164062 C 4.675781 23.957031 4.746094 23.777344 4.894531 23.632812 C 5.039062 23.480469 5.214844 23.40625 5.421875 23.40625 C 5.628906 23.40625 5.808594 23.480469 5.953125 23.632812 C 6.101562 23.777344 6.175781 23.957031 6.175781 24.164062 Z M 6.175781 24.164062 " fill-opacity="1" fill-rule="nonzero"/></g><path fill="#000000" d="M 11.441406 11.859375 C 11.441406 12.066406 11.367188 12.246094 11.222656 12.394531 C 11.078125 12.542969 10.898438 12.617188 10.691406 12.617188 C 10.484375 12.617188 10.308594 12.542969 10.164062 12.394531 C 10.015625 12.246094 9.945312 12.066406 9.945312 11.859375 C 9.945312 11.648438 10.015625 11.472656 10.164062 11.320312 C 10.308594 11.175781 10.484375 11.101562 10.691406 11.101562 C 10.898438 11.101562 11.078125 11.175781 11.222656 11.320312 C 11.367188 11.472656 11.441406 11.648438 11.441406 11.859375 Z M 11.441406 11.859375 " fill-opacity="1" fill-rule="nonzero"/><path fill="#000000" d="M 8.207031 17.324219 C 8.207031 17.535156 8.132812 17.714844 7.988281 17.859375 C 7.84375 18.007812 7.667969 18.085938 7.457031 18.085938 C 7.25 18.085938 7.074219 18.007812 6.929688 17.859375 C 6.777344 17.714844 6.707031 17.535156 6.707031 17.324219 C 6.707031 17.113281 6.777344 16.9375 6.929688 16.789062 C 7.074219 16.640625 7.25 16.566406 7.457031 16.566406 C 7.667969 16.566406 7.84375 16.640625 7.988281 16.789062 C 8.132812 16.9375 8.207031 17.113281 8.207031 17.324219 Z M 8.207031 17.324219 " fill-opacity="1" fill-rule="nonzero"/><path fill="#000000" d="M 46.21875 48.347656 C 46.21875 48.558594 46.144531 48.734375 45.996094 48.886719 C 45.847656 49.03125 45.671875 49.105469 45.464844 49.105469 C 45.257812 49.105469 45.082031 49.03125 44.933594 48.886719 C 44.789062 48.734375 44.714844 48.558594 44.714844 48.347656 C 44.714844 48.140625 44.789062 47.957031 44.933594 47.8125 C 45.082031 47.664062 45.257812 47.589844 45.464844 47.589844 C 45.671875 47.589844 45.847656 47.664062 45.996094 47.8125 C 46.144531 47.957031 46.21875 48.140625 46.21875 48.347656 Z M 46.21875 48.347656 " fill-opacity="1" fill-rule="nonzero"/><path fill="#000000" d="M 40.304688 51.769531 C 40.304688 51.976562 40.230469 52.160156 40.082031 52.308594 C 39.9375 52.453125 39.761719 52.527344 39.554688 52.527344 C 39.347656 52.527344 39.167969 52.453125 39.023438 52.308594 C 38.875 52.160156 38.800781 51.976562 38.800781 51.769531 C 38.800781 51.5625 38.875 51.382812 39.023438 51.234375 C 39.167969 51.085938 39.347656 51.011719 39.554688 51.011719 C 39.761719 51.011719 39.9375 51.085938 40.082031 51.234375 C 40.230469 51.382812 40.304688 51.5625 40.304688 51.769531 Z M 40.304688 51.769531 " fill-opacity="1" fill-rule="nonzero"/><g clip-path="url(#de85aac5e1)"><path fill="#000000" d="M 27.097656 53.164062 C 27.097656 53.375 27.023438 53.550781 26.878906 53.703125 C 26.734375 53.847656 26.554688 53.921875 26.347656 53.921875 C 26.140625 53.921875 25.964844 53.847656 25.820312 53.703125 C 25.671875 53.550781 25.597656 53.375 25.597656 53.164062 C 25.597656 52.957031 25.671875 52.777344 25.820312 52.628906 C 25.964844 52.480469 26.140625 52.40625 26.347656 52.40625 C 26.554688 52.40625 26.734375 52.480469 26.878906 52.628906 C 27.023438 52.777344 27.097656 52.957031 27.097656 53.164062 Z M 27.097656 53.164062 " fill-opacity="1" fill-rule="nonzero"/></g><g clip-path="url(#649d2b7d7f)"><path fill="#000000" d="M 34.167969 53.164062 C 34.167969 53.375 34.097656 53.550781 33.949219 53.703125 C 33.804688 53.847656 33.628906 53.921875 33.417969 53.921875 C 33.210938 53.921875 33.035156 53.847656 32.890625 53.703125 C 32.742188 53.550781 32.671875 53.375 32.671875 53.164062 C 32.671875 52.957031 32.742188 52.777344 32.890625 52.628906 C 33.035156 52.480469 33.210938 52.40625 33.417969 52.40625 C 33.628906 52.40625 33.804688 52.480469 33.949219 52.628906 C 34.097656 52.777344 34.167969 52.957031 34.167969 53.164062 Z M 34.167969 53.164062 " fill-opacity="1" fill-rule="nonzero"/></g><path fill="#000000" d="M 20.90625 51.25 C 20.90625 51.464844 20.832031 51.640625 20.6875 51.789062 C 20.539062 51.941406 20.359375 52.011719 20.152344 52.011719 C 19.945312 52.011719 19.769531 51.941406 19.621094 51.789062 C 19.476562 51.640625 19.402344 51.464844 19.402344 51.25 C 19.402344 51.042969 19.476562 50.863281 19.621094 50.71875 C 19.769531 50.566406 19.945312 50.492188 20.152344 50.492188 C 20.359375 50.492188 20.539062 50.566406 20.6875 50.71875 C 20.832031 50.863281 20.90625 51.042969 20.90625 51.25 Z M 20.90625 51.25 " fill-opacity="1" fill-rule="nonzero"/><path fill="#000000" d="M 15.46875 47.65625 C 15.46875 47.871094 15.394531 48.046875 15.25 48.195312 C 15.097656 48.339844 14.921875 48.417969 14.714844 48.417969 C 14.507812 48.417969 14.332031 48.339844 14.183594 48.195312 C 14.039062 48.046875 13.964844 47.871094 13.964844 47.65625 C 13.964844 47.449219 14.039062 47.269531 14.183594 47.125 C 14.332031 46.972656 14.507812 46.898438 14.714844 46.898438 C 14.921875 46.898438 15.097656 46.972656 15.25 47.125 C 15.394531 47.269531 15.46875 47.449219 15.46875 47.65625 Z M 15.46875 47.65625 " fill-opacity="1" fill-rule="nonzero"/><path fill="#000000" d="M 7.882812 36.980469 C 7.882812 37.191406 7.808594 37.371094 7.664062 37.519531 C 7.515625 37.664062 7.339844 37.738281 7.132812 37.738281 C 6.925781 37.738281 6.75 37.664062 6.601562 37.519531 C 6.453125 37.371094 6.378906 37.191406 6.378906 36.980469 C 6.378906 36.773438 6.453125 36.59375 6.601562 36.445312 C 6.75 36.296875 6.925781 36.222656 7.132812 36.222656 C 7.339844 36.222656 7.515625 36.296875 7.664062 36.445312 C 7.808594 36.59375 7.882812 36.773438 7.882812 36.980469 Z M 7.882812 36.980469 " fill-opacity="1" fill-rule="nonzero"/><path fill="#000000" d="M 11.128906 42.664062 C 11.128906 42.871094 11.058594 43.050781 10.910156 43.199219 C 10.765625 43.347656 10.589844 43.421875 10.382812 43.421875 C 10.175781 43.421875 9.996094 43.347656 9.851562 43.199219 C 9.707031 43.050781 9.632812 42.871094 9.632812 42.664062 C 9.632812 42.453125 9.707031 42.277344 9.851562 42.125 C 9.996094 41.980469 10.175781 41.90625 10.382812 41.90625 C 10.589844 41.90625 10.765625 41.980469 10.910156 42.125 C 11.058594 42.277344 11.128906 42.453125 11.128906 42.664062 Z M 11.128906 42.664062 " fill-opacity="1" fill-rule="nonzero"/><g clip-path="url(#34b452da46)"><path fill="#000000" d="M 6.378906 30.613281 C 6.378906 30.820312 6.304688 31 6.160156 31.148438 C 6.015625 31.296875 5.835938 31.371094 5.628906 31.371094 C 5.421875 31.371094 5.246094 31.296875 5.101562 31.148438 C 4.953125 31 4.882812 30.820312 4.882812 30.613281 C 4.882812 30.402344 4.953125 30.222656 5.101562 30.074219 C 5.246094 29.925781 5.421875 29.855469 5.628906 29.855469 C 5.835938 29.855469 6.015625 29.925781 6.160156 30.074219 C 6.304688 30.222656 6.378906 30.402344 6.378906 30.613281 Z M 6.378906 30.613281 " fill-opacity="1" fill-rule="nonzero"/></g><g clip-path="url(#8c8081debd)"><path fill="#000000" d="M 56.453125 31.546875 C 56.453125 31.757812 56.382812 31.933594 56.234375 32.082031 C 56.089844 32.230469 55.914062 32.304688 55.707031 32.304688 C 55.496094 32.304688 55.320312 32.230469 55.175781 32.082031 C 55.023438 31.933594 54.953125 31.757812 54.953125 31.546875 C 54.953125 31.335938 55.023438 31.15625 55.175781 31.011719 C 55.320312 30.863281 55.496094 30.785156 55.707031 30.785156 C 55.914062 30.785156 56.089844 30.863281 56.234375 31.011719 C 56.382812 31.15625 56.453125 31.335938 56.453125 31.546875 Z M 56.453125 31.546875 " fill-opacity="1" fill-rule="nonzero"/></g><path fill="#000000" d="M 51.183594 43.855469 C 51.183594 44.0625 51.113281 44.242188 50.964844 44.386719 C 50.820312 44.539062 50.644531 44.613281 50.433594 44.613281 C 50.226562 44.613281 50.050781 44.539062 49.90625 44.386719 C 49.757812 44.242188 49.6875 44.0625 49.6875 43.855469 C 49.6875 43.644531 49.757812 43.464844 49.90625 43.316406 C 50.050781 43.167969 50.226562 43.097656 50.433594 43.097656 C 50.644531 43.097656 50.820312 43.167969 50.964844 43.316406 C 51.113281 43.464844 51.183594 43.644531 51.183594 43.855469 Z M 51.183594 43.855469 " fill-opacity="1" fill-rule="nonzero"/><path fill="#000000" d="M 54.421875 38.382812 C 54.421875 38.59375 54.347656 38.773438 54.199219 38.921875 C 54.054688 39.070312 53.875 39.140625 53.667969 39.140625 C 53.460938 39.140625 53.285156 39.070312 53.140625 38.921875 C 52.992188 38.773438 52.921875 38.59375 52.921875 38.382812 C 52.921875 38.175781 52.992188 38 53.140625 37.851562 C 53.285156 37.699219 53.460938 37.628906 53.667969 37.628906 C 53.875 37.628906 54.054688 37.699219 54.199219 37.851562 C 54.347656 38 54.421875 38.175781 54.421875 38.382812 Z M 54.421875 38.382812 " fill-opacity="1" fill-rule="nonzero"/><g clip-path="url(#e98cede811)"><path fill="#000000" d="M 46.730469 12.265625 C 42.5625 8.070312 37.019531 5.757812 31.125 5.757812 C 25.230469 5.757812 19.6875 8.070312 15.519531 12.265625 C 11.351562 16.457031 9.054688 22.035156 9.054688 27.96875 C 9.054688 33.902344 11.351562 39.472656 15.519531 43.667969 C 19.6875 47.863281 25.230469 50.171875 31.121094 50.171875 C 37.019531 50.171875 42.5625 47.863281 46.730469 43.667969 C 50.894531 39.472656 53.191406 33.898438 53.191406 27.96875 C 53.191406 22.035156 50.894531 16.457031 46.730469 12.265625 Z M 31.125 6.273438 C 40.644531 6.273438 48.742188 12.515625 51.589844 21.140625 L 43.816406 21.140625 L 44.886719 20.496094 L 43.585938 21.140625 L 41.976562 21.140625 L 44.296875 19.496094 L 41.519531 21.140625 L 40.933594 21.140625 L 43.855469 18.835938 L 40.375 21.140625 L 39.625 21.140625 L 43.148438 17.914062 L 38.984375 21.140625 L 38.855469 21.140625 L 42.625 17.3125 L 38.179688 21.140625 L 37.859375 21.140625 L 41.8125 16.488281 L 37.578125 20.71875 L 41.222656 15.960938 L 36.53125 21.144531 L 36.445312 21.144531 L 40.308594 15.238281 L 36.632812 19.964844 L 39.65625 14.789062 L 35.390625 20.882812 L 38.667969 14.1875 L 35.601562 19.335938 L 37.964844 13.820312 L 34.484375 20.402344 L 36.90625 13.355469 L 34.503906 18.847656 L 36.164062 13.078125 L 33.523438 20.042969 L 35.054688 12.742188 L 33.347656 18.496094 L 34.285156 12.5625 L 32.523438 19.804688 L 33.144531 12.371094 L 32.160156 18.289062 L 32.355469 12.289062 L 31.503906 19.691406 L 31.199219 12.242188 L 30.953125 18.234375 L 30.410156 12.257812 L 30.464844 18.253906 L 29.617188 12.308594 L 30.066406 19.753906 L 28.472656 12.464844 L 29.269531 18.414062 L 27.691406 12.625 L 29.054688 19.953125 L 26.574219 12.917969 L 28.105469 18.71875 L 25.824219 13.167969 L 28.082031 20.273438 L 24.75 13.605469 L 26.980469 19.171875 L 24.035156 13.949219 L 27.152344 20.714844 L 23.027344 14.511719 L 25.925781 19.757812 L 22.359375 14.941406 L 26.214844 21.148438 L 26.1875 21.148438 L 21.425781 15.628906 L 24.953125 20.46875 L 20.816406 16.140625 L 24.871094 21.144531 L 24.640625 21.144531 L 19.976562 16.9375 L 23.933594 21.144531 L 23.886719 21.144531 L 19.433594 17.519531 L 23.207031 21.144531 L 22.609375 21.144531 L 18.703125 18.417969 L 21.996094 21.144531 L 21.570312 21.144531 L 18.238281 19.0625 L 21.027344 21.144531 L 19.707031 21.144531 L 17.617188 20.046875 L 19.347656 21.144531 L 18.105469 21.144531 L 17.238281 20.746094 L 17.945312 21.144531 L 10.660156 21.144531 C 13.507812 12.515625 21.605469 6.273438 31.125 6.273438 Z M 31.125 49.660156 C 21.785156 49.660156 13.820312 43.652344 10.828125 35.277344 L 18.347656 35.277344 L 17.554688 35.785156 L 18.515625 35.277344 L 20.164062 35.277344 L 18.167969 36.773438 L 20.546875 35.277344 L 21.207031 35.277344 L 18.628906 37.421875 L 21.6875 35.277344 L 22.511719 35.277344 L 19.355469 38.328125 L 23.078125 35.277344 L 23.292969 35.277344 L 19.890625 38.910156 L 23.902344 35.277344 L 24.304688 35.277344 L 20.726562 39.71875 L 24.851562 35.386719 L 21.328125 40.230469 L 25.589844 35.277344 L 25.753906 35.277344 L 22.257812 40.929688 L 25.816406 36.109375 L 22.921875 41.359375 L 26.957031 35.277344 L 26.980469 35.277344 L 23.929688 41.933594 L 26.863281 36.710938 L 24.640625 42.285156 L 27.953125 35.613281 L 25.710938 42.726562 L 27.976562 37.175781 L 26.460938 42.984375 L 28.921875 35.953125 L 27.574219 43.289062 L 29.136719 37.496094 L 28.351562 43.453125 L 29.925781 36.167969 L 29.496094 43.613281 L 30.328125 37.671875 L 30.285156 43.679688 L 30.949219 36.25 L 31.441406 43.695312 L 31.535156 37.695312 L 32.234375 43.660156 L 31.972656 36.207031 L 33.382812 43.535156 L 32.730469 37.570312 L 34.160156 43.398438 L 32.984375 36.039062 L 35.285156 43.132812 L 33.90625 37.289062 L 36.046875 42.898438 L 33.96875 35.742188 L 37.128906 42.488281 L 35.035156 36.871094 L 37.851562 42.164062 L 34.90625 35.324219 L 38.878906 41.628906 L 36.109375 36.308594 L 39.554688 41.214844 L 36.070312 35.273438 L 36.179688 35.273438 L 40.503906 40.550781 L 37.097656 35.621094 L 41.125 40.054688 L 37.453125 35.273438 L 37.773438 35.273438 L 41.984375 39.277344 L 38.410156 35.273438 L 38.535156 35.273438 L 42.542969 38.710938 L 39.148438 35.273438 L 39.832031 35.273438 L 43.296875 37.832031 L 40.367188 35.273438 L 40.871094 35.273438 L 43.777344 37.199219 L 41.335938 35.273438 L 42.714844 35.273438 L 44.425781 36.226562 L 43.003906 35.273438 L 44.28125 35.273438 L 44.824219 35.539062 L 44.378906 35.273438 L 51.417969 35.273438 C 48.429688 43.648438 40.460938 49.65625 31.121094 49.65625 Z M 10.65625 34.765625 C 9.953125 32.625 9.566406 30.339844 9.566406 27.964844 C 9.566406 25.773438 9.894531 23.65625 10.5 21.65625 L 51.753906 21.65625 C 52.359375 23.652344 52.6875 25.773438 52.6875 27.964844 C 52.6875 30.339844 52.300781 32.625 51.597656 34.765625 Z M 10.65625 34.765625 " fill-opacity="1" fill-rule="nonzero"/><path fill="#000000" d="M 47.121094 11.875 C 42.84375 7.570312 37.167969 5.207031 31.125 5.207031 C 25.085938 5.207031 19.402344 7.570312 15.132812 11.875 C 10.859375 16.171875 8.507812 21.886719 8.507812 27.96875 C 8.507812 34.046875 10.859375 39.765625 15.132812 44.0625 C 19.402344 48.359375 25.085938 50.730469 31.125 50.730469 C 37.167969 50.730469 42.847656 48.359375 47.121094 44.0625 C 51.390625 39.765625 53.746094 34.046875 53.746094 27.96875 C 53.746094 21.886719 51.390625 16.171875 47.121094 11.875 Z M 31.125 50.640625 C 18.703125 50.640625 8.589844 40.472656 8.589844 27.96875 C 8.589844 15.464844 18.703125 5.292969 31.125 5.292969 C 43.550781 5.292969 53.660156 15.460938 53.660156 27.96875 C 53.660156 40.472656 43.550781 50.644531 31.125 50.644531 Z M 31.125 50.640625 " fill-opacity="1" fill-rule="nonzero"/></g><path fill="#000000" d="M 16.433594 34.046875 C 18.347656 34.046875 19.574219 32.949219 19.605469 31.253906 C 19.621094 30.097656 19.191406 29.277344 17.8125 28.195312 C 17.425781 27.890625 16.996094 27.550781 16.523438 27.148438 C 15.832031 26.574219 15.480469 26.097656 15.480469 25.296875 C 15.496094 24.523438 15.957031 23.996094 16.753906 23.996094 C 17.152344 24.011719 17.550781 24.121094 17.796875 24.277344 L 17.796875 26.019531 L 19.175781 26.019531 L 19.175781 23.488281 C 18.625 23.105469 17.703125 22.703125 16.769531 22.6875 C 15.140625 22.6875 14.023438 23.796875 14.023438 25.359375 C 14.023438 26.53125 14.46875 27.378906 15.601562 28.304688 C 16.046875 28.675781 16.449219 29.03125 16.847656 29.339844 C 17.78125 30.097656 18.132812 30.558594 18.132812 31.285156 C 18.132812 32.164062 17.519531 32.734375 16.433594 32.734375 C 15.574219 32.734375 14.851562 31.980469 14.652344 31.625 L 13.59375 32.488281 C 13.949219 33.148438 14.941406 34.046875 16.433594 34.046875 Z M 16.433594 34.046875 " fill-opacity="1" fill-rule="nonzero"/><path fill="#000000" d="M 20.21875 33.90625 L 21.722656 33.90625 L 21.722656 22.828125 L 20.21875 22.828125 Z M 20.21875 33.90625 " fill-opacity="1" fill-rule="nonzero"/><path fill="#000000" d="M 25.539062 34.046875 C 26.90625 34.046875 27.867188 33.550781 28.453125 32.902344 L 28.453125 27.613281 L 25.429688 27.613281 L 25.429688 28.921875 L 26.964844 28.921875 L 26.964844 32.273438 C 26.964844 32.304688 26.488281 32.734375 25.539062 32.734375 C 24.527344 32.734375 24.035156 32.273438 24.035156 31.359375 L 24.035156 25.375 C 24.035156 24.476562 24.542969 23.996094 25.476562 23.996094 C 25.890625 23.996094 26.398438 24.121094 26.765625 24.261719 L 26.765625 25.847656 L 28.144531 25.847656 L 28.144531 23.472656 C 27.578125 23.121094 26.644531 22.703125 25.492188 22.6875 C 23.742188 22.65625 22.550781 23.75 22.550781 25.359375 L 22.550781 31.375 C 22.550781 32.996094 23.742188 34.046875 25.539062 34.046875 Z M 25.539062 34.046875 " fill-opacity="1" fill-rule="nonzero"/><path fill="#000000" d="M 33.914062 22.828125 L 33.914062 29.152344 L 34.03125 31.253906 C 34.03125 31.222656 33.746094 29.804688 33.453125 29.0625 L 30.996094 22.828125 L 29.359375 22.828125 L 29.359375 33.890625 L 30.78125 33.890625 L 30.78125 27.269531 L 30.644531 25.140625 C 30.660156 25.171875 30.953125 26.746094 31.304688 27.566406 L 33.914062 33.890625 L 35.355469 33.890625 L 35.355469 22.828125 Z M 33.914062 22.828125 " fill-opacity="1" fill-rule="nonzero"/><path fill="#000000" d="M 37.898438 32.582031 L 37.898438 28.828125 L 41.164062 28.828125 L 41.164062 27.519531 L 37.898438 27.519531 L 37.898438 24.136719 L 41.457031 24.136719 L 41.457031 22.828125 L 36.410156 22.828125 L 36.410156 33.890625 L 41.46875 33.890625 L 41.46875 32.582031 Z M 37.898438 32.582031 " fill-opacity="1" fill-rule="nonzero"/><path fill="#000000" d="M 47.40625 22.828125 L 41.148438 22.828125 L 41.148438 24.136719 L 43.542969 24.136719 L 43.542969 33.890625 L 45.027344 33.890625 L 45.027344 24.136719 L 47.40625 24.136719 Z M 47.40625 22.828125 " fill-opacity="1" fill-rule="nonzero"/><path fill="#000000" d="M 70.242188 47.179688 C 76.734375 47.179688 80.890625 43.46875 80.996094 37.714844 C 81.046875 33.796875 79.59375 31.027344 74.917969 27.367188 C 73.621094 26.320312 72.164062 25.171875 70.554688 23.8125 C 68.214844 21.878906 67.019531 20.257812 67.019531 17.539062 C 67.074219 14.929688 68.632812 13.148438 71.335938 13.148438 C 72.6875 13.199219 74.035156 13.566406 74.867188 14.089844 L 74.867188 19.996094 L 79.542969 19.996094 L 79.542969 11.421875 C 77.671875 10.117188 74.554688 8.757812 71.382812 8.703125 C 65.878906 8.703125 62.089844 12.46875 62.089844 17.75 C 62.089844 21.722656 63.59375 24.597656 67.441406 27.734375 C 68.945312 28.988281 70.292969 30.191406 71.644531 31.234375 C 74.8125 33.796875 76.007812 35.367188 76.007812 37.820312 C 76.007812 40.800781 73.929688 42.738281 70.242188 42.738281 C 67.332031 42.738281 64.894531 40.175781 64.21875 38.972656 L 60.632812 41.898438 C 61.828125 44.148438 65.203125 47.179688 70.242188 47.179688 Z M 70.242188 47.179688 " fill-opacity="1" fill-rule="nonzero"/><path fill="#000000" d="M 83.070312 46.710938 L 88.164062 46.710938 L 88.164062 9.175781 L 83.070312 9.175781 Z M 83.070312 46.710938 " fill-opacity="1" fill-rule="nonzero"/><path fill="#000000" d="M 101.097656 47.179688 C 105.71875 47.179688 108.992188 45.503906 110.964844 43.308594 L 110.964844 25.378906 L 100.734375 25.378906 L 100.734375 29.824219 L 105.929688 29.824219 L 105.929688 41.167969 C 105.929688 41.273438 104.316406 42.738281 101.097656 42.738281 C 97.667969 42.738281 96.007812 41.167969 96.007812 38.082031 L 96.007812 17.800781 C 96.007812 14.769531 97.722656 13.148438 100.890625 13.148438 C 102.292969 13.148438 104.007812 13.566406 105.253906 14.039062 L 105.253906 19.421875 L 109.929688 19.421875 L 109.929688 11.371094 C 108.003906 10.167969 104.835938 8.757812 100.941406 8.703125 C 95.019531 8.601562 90.964844 12.3125 90.964844 17.75 L 90.964844 38.132812 C 90.964844 43.625 95.019531 47.179688 101.097656 47.179688 Z M 101.097656 47.179688 " fill-opacity="1" fill-rule="nonzero"/><path fill="#000000" d="M 129.460938 9.175781 L 129.460938 30.609375 L 129.875 37.714844 C 129.875 37.613281 128.886719 32.804688 127.902344 30.296875 L 119.589844 9.175781 L 114.03125 9.175781 L 114.03125 46.65625 L 118.863281 46.65625 L 118.863281 24.230469 L 118.394531 17.019531 C 118.449219 17.125 119.433594 22.453125 120.628906 25.222656 L 129.460938 46.65625 L 134.34375 46.65625 L 134.34375 9.175781 Z M 129.460938 9.175781 " fill-opacity="1" fill-rule="nonzero"/><path fill="#000000" d="M 142.964844 42.210938 L 142.964844 29.511719 L 154.03125 29.511719 L 154.03125 25.066406 L 142.964844 25.066406 L 142.964844 13.617188 L 155.019531 13.617188 L 155.019531 9.175781 L 137.925781 9.175781 L 137.925781 46.65625 L 155.066406 46.65625 L 155.066406 42.210938 Z M 142.964844 42.210938 " fill-opacity="1" fill-rule="nonzero"/><path fill="#000000" d="M 175.171875 9.175781 L 153.976562 9.175781 L 153.976562 13.617188 L 162.082031 13.617188 L 162.082031 46.65625 L 167.121094 46.65625 L 167.121094 13.617188 L 175.171875 13.617188 Z M 175.171875 9.175781 " fill-opacity="1" fill-rule="nonzero"/></svg>