<svg xmlns="http://www.w3.org/2000/svg" xmlns:xlink="http://www.w3.org/1999/xlink" width="250" zoomAndPan="magnify" viewBox="0 0 187.5 56.249996" height="75" preserveAspectRatio="xMidYMid meet" version="1.0"><defs><g/><clipPath id="28bc2101bb"><path d="M 2.417969 3.785156 L 51.398438 3.785156 L 51.398438 52.761719 L 2.417969 52.761719 Z M 2.417969 3.785156 " clip-rule="nonzero"/></clipPath><clipPath id="941783d1b6"><path d="M 30 3.785156 L 32 3.785156 L 32 6 L 30 6 Z M 30 3.785156 " clip-rule="nonzero"/></clipPath><clipPath id="91fdd2f1fa"><path d="M 23 3.785156 L 25 3.785156 L 25 6 L 23 6 Z M 23 3.785156 " clip-rule="nonzero"/></clipPath><clipPath id="553b93dc99"><path d="M 49 24 L 51.398438 24 L 51.398438 27 L 49 27 Z M 49 24 " clip-rule="nonzero"/></clipPath><clipPath id="bd97fd7962"><path d="M 2.417969 30 L 4 30 L 4 32 L 2.417969 32 Z M 2.417969 30 " clip-rule="nonzero"/></clipPath><clipPath id="e0b1be0527"><path d="M 2.417969 24 L 4 24 L 4 26 L 2.417969 26 Z M 2.417969 24 " clip-rule="nonzero"/></clipPath><clipPath id="c52be8d500"><path d="M 22 51 L 24 51 L 24 52.761719 L 22 52.761719 Z M 22 51 " clip-rule="nonzero"/></clipPath><clipPath id="3caca6ff07"><path d="M 28 51 L 31 51 L 31 52.761719 L 28 52.761719 Z M 28 51 " clip-rule="nonzero"/></clipPath><clipPath id="06ad09f0bb"><path d="M 2.417969 30 L 5 30 L 5 32 L 2.417969 32 Z M 2.417969 30 " clip-rule="nonzero"/></clipPath><clipPath id="97f52a8691"><path d="M 49 31 L 51.398438 31 L 51.398438 33 L 49 33 Z M 49 31 " clip-rule="nonzero"/></clipPath><clipPath id="1ebc9d906b"><path d="M 11.644531 12.917969 L 42.070312 12.917969 L 42.070312 43.34375 L 11.644531 43.34375 Z M 11.644531 12.917969 " clip-rule="nonzero"/></clipPath></defs><g fill="#000000" fill-opacity="1"><g transform="translate(58.246624, 47.567949)"><g><path d="M 9.996094 0.503906 C 16.308594 0.503906 20.347656 -3.078125 20.449219 -8.632812 C 20.5 -12.421875 19.085938 -15.097656 14.542969 -18.632812 C 13.28125 -19.640625 11.867188 -20.753906 10.300781 -22.066406 C 8.027344 -23.933594 6.867188 -25.5 6.867188 -28.125 C 6.917969 -30.648438 8.433594 -32.367188 11.058594 -32.367188 C 12.371094 -32.316406 13.683594 -31.960938 14.492188 -31.457031 L 14.492188 -25.75 L 19.035156 -25.75 L 19.035156 -34.03125 C 17.21875 -35.292969 14.1875 -36.605469 11.109375 -36.65625 C 5.757812 -36.65625 2.070312 -33.023438 2.070312 -27.921875 C 2.070312 -24.085938 3.535156 -21.308594 7.269531 -18.277344 C 8.734375 -17.066406 10.046875 -15.90625 11.359375 -14.894531 C 14.441406 -12.421875 15.601562 -10.90625 15.601562 -8.535156 C 15.601562 -5.65625 13.582031 -3.785156 9.996094 -3.785156 C 7.171875 -3.785156 4.796875 -6.261719 4.140625 -7.421875 L 0.65625 -4.59375 C 1.816406 -2.421875 5.101562 0.503906 9.996094 0.503906 Z M 9.996094 0.503906 "/></g></g></g><g fill="#000000" fill-opacity="1"><g transform="translate(77.88658, 47.567949)"><g><path d="M 3.6875 0.0507812 L 8.632812 0.0507812 L 8.632812 -36.203125 L 3.6875 -36.203125 Z M 3.6875 0.0507812 "/></g></g></g><g fill="#000000" fill-opacity="1"><g transform="translate(87.176289, 47.567949)"><g><path d="M 12.773438 0.503906 C 17.269531 0.503906 20.449219 -1.109375 22.367188 -3.230469 L 22.367188 -20.550781 L 12.421875 -20.550781 L 12.421875 -16.257812 L 17.46875 -16.257812 L 17.46875 -5.300781 C 17.46875 -5.199219 15.90625 -3.785156 12.773438 -3.785156 C 9.441406 -3.785156 7.828125 -5.300781 7.828125 -8.28125 L 7.828125 -27.871094 C 7.828125 -30.800781 9.492188 -32.367188 12.574219 -32.367188 C 13.9375 -32.367188 15.601562 -31.960938 16.8125 -31.507812 L 16.8125 -26.308594 L 21.359375 -26.308594 L 21.359375 -34.082031 C 19.492188 -35.242188 16.410156 -36.605469 12.625 -36.65625 C 6.867188 -36.757812 2.929688 -33.171875 2.929688 -27.921875 L 2.929688 -8.230469 C 2.929688 -2.929688 6.867188 0.503906 12.773438 0.503906 Z M 12.773438 0.503906 "/></g></g></g><g fill="#000000" fill-opacity="1"><g transform="translate(109.694119, 47.567949)"><g><path d="M 18.683594 -36.203125 L 18.683594 -15.5 L 19.085938 -8.632812 C 19.085938 -8.734375 18.125 -13.378906 17.167969 -15.804688 L 9.089844 -36.203125 L 3.6875 -36.203125 L 3.6875 0 L 8.382812 0 L 8.382812 -21.660156 L 7.925781 -28.628906 C 7.976562 -28.527344 8.9375 -23.378906 10.097656 -20.703125 L 18.683594 0 L 23.429688 0 L 23.429688 -36.203125 Z M 18.683594 -36.203125 "/></g></g></g><g fill="#000000" fill-opacity="1"><g transform="translate(133.777106, 47.567949)"><g><path d="M 8.582031 -4.292969 L 8.582031 -16.5625 L 19.339844 -16.5625 L 19.339844 -20.855469 L 8.582031 -20.855469 L 8.582031 -31.910156 L 20.296875 -31.910156 L 20.296875 -36.203125 L 3.6875 -36.203125 L 3.6875 0 L 20.347656 0 L 20.347656 -4.292969 Z M 8.582031 -4.292969 "/></g></g></g><g fill="#000000" fill-opacity="1"><g transform="translate(152.760701, 47.567949)"><g><path d="M 21.761719 -36.203125 L 1.160156 -36.203125 L 1.160156 -31.910156 L 9.039062 -31.910156 L 9.039062 0 L 13.9375 0 L 13.9375 -31.910156 L 21.761719 -31.910156 Z M 21.761719 -36.203125 "/></g></g></g><g clip-path="url(#28bc2101bb)"><path fill="#4a4948" d="M 51.300781 28.359375 C 51.300781 27.070312 49.402344 26.921875 48.761719 25.714844 C 48.996094 24.296875 50.933594 23.6875 50.609375 22.394531 C 50.289062 21.121094 48.34375 21.480469 47.449219 20.394531 C 47.207031 18.902344 49.042969 17.796875 48.386719 16.597656 C 47.730469 15.402344 45.832031 16.351562 44.703125 15.363281 C 44.652344 15.292969 44.597656 15.21875 44.542969 15.144531 L 44.605469 15.210938 C 43.632812 13.796875 45.332031 12.085938 44.308594 11.058594 C 43.398438 10.144531 41.953125 11.390625 40.652344 10.992188 C 39.816406 9.824219 40.757812 8.019531 39.621094 7.335938 C 38.492188 6.660156 37.375 8.296875 35.976562 8.164062 C 34.753906 7.28125 35.273438 5.195312 33.964844 4.8125 C 32.640625 4.425781 31.960938 6.507812 30.429688 6.554688 C 30.316406 6.539062 30.207031 6.523438 30.097656 6.507812 L 30.316406 6.515625 C 28.632812 6.203125 28.625 3.789062 27.179688 3.789062 C 25.894531 3.789062 25.746094 5.695312 24.546875 6.339844 C 23.132812 6.105469 22.527344 4.160156 21.238281 4.484375 C 19.96875 4.804688 20.328125 6.757812 19.246094 7.65625 C 17.761719 7.898438 16.660156 6.054688 15.460938 6.714844 C 14.203125 7.40625 15.328125 9.496094 14.050781 10.589844 C 13.949219 10.667969 13.84375 10.75 13.738281 10.828125 L 14.082031 10.507812 C 12.671875 11.484375 10.96875 9.78125 9.945312 10.808594 C 9.035156 11.71875 10.273438 13.171875 9.878906 14.476562 C 8.714844 15.316406 6.917969 14.371094 6.234375 15.515625 C 5.5625 16.644531 7.191406 17.769531 7.058594 19.171875 C 6.179688 20.398438 4.101562 19.875 3.722656 21.191406 C 3.316406 22.585938 5.625 23.265625 5.453125 24.976562 C 5.441406 25.078125 5.433594 25.15625 5.433594 25.214844 C 5.417969 25.316406 5.40625 25.417969 5.394531 25.519531 L 5.417969 24.855469 C 5.109375 26.542969 2.703125 26.550781 2.703125 28 C 2.703125 29.292969 4.601562 29.441406 5.242188 30.644531 C 5.007812 32.066406 3.070312 32.671875 3.394531 33.964844 C 3.714844 35.242188 5.660156 34.878906 6.554688 35.964844 C 6.796875 37.457031 4.960938 38.5625 5.617188 39.765625 C 6.3125 41.039062 8.421875 39.878906 9.507812 41.210938 C 9.589844 41.3125 9.652344 41.382812 9.695312 41.429688 C 9.753906 41.507812 9.8125 41.585938 9.871094 41.660156 L 9.398438 41.148438 C 10.371094 42.566406 8.671875 44.273438 9.695312 45.300781 C 10.605469 46.214844 12.050781 44.972656 13.351562 45.367188 C 14.1875 46.539062 13.246094 48.34375 14.386719 49.027344 C 15.511719 49.703125 16.632812 48.066406 18.027344 48.199219 C 19.25 49.082031 18.730469 51.167969 20.039062 51.550781 C 21.429688 51.957031 22.105469 49.640625 23.808594 49.8125 C 23.835938 49.816406 23.855469 49.816406 23.878906 49.820312 C 23.988281 49.835938 24.097656 49.851562 24.207031 49.867188 L 23.6875 49.847656 C 25.371094 50.160156 25.378906 52.570312 26.824219 52.570312 C 28.109375 52.570312 28.257812 50.664062 29.457031 50.023438 C 30.871094 50.257812 31.476562 52.203125 32.765625 51.875 C 34.035156 51.554688 33.675781 49.601562 34.757812 48.707031 C 36.242188 48.460938 37.347656 50.308594 38.542969 49.648438 C 39.765625 48.972656 38.734375 46.976562 39.851562 45.859375 C 39.949219 45.789062 40.046875 45.71875 40.140625 45.648438 L 39.921875 45.851562 C 41.332031 44.875 43.035156 46.582031 44.058594 45.554688 C 44.96875 44.640625 43.730469 43.1875 44.125 41.882812 C 45.289062 41.046875 47.085938 41.992188 47.769531 40.847656 C 48.441406 39.714844 46.8125 38.59375 46.945312 37.191406 C 47.824219 35.964844 49.902344 36.484375 50.28125 35.167969 C 50.664062 33.855469 48.640625 33.175781 48.546875 31.671875 C 48.5625 31.578125 48.574219 31.488281 48.589844 31.394531 L 48.585938 31.507812 C 48.894531 29.816406 51.300781 29.8125 51.300781 28.359375 Z M 27.003906 48.230469 C 15.972656 48.230469 7.027344 39.253906 7.027344 28.179688 C 7.027344 17.109375 15.96875 8.132812 27 8.132812 C 38.03125 8.132812 46.976562 17.109375 46.976562 28.179688 C 46.976562 39.253906 38.03125 48.230469 27 48.230469 Z M 27.003906 48.230469 " fill-opacity="1" fill-rule="nonzero"/></g><path fill="#a6a6a6" d="M 13.527344 9.027344 C 13.527344 9.222656 13.457031 9.390625 13.320312 9.53125 C 13.179688 9.667969 13.011719 9.738281 12.816406 9.738281 C 12.621094 9.738281 12.453125 9.667969 12.316406 9.53125 C 12.175781 9.390625 12.105469 9.222656 12.105469 9.027344 C 12.105469 8.828125 12.175781 8.660156 12.316406 8.523438 C 12.453125 8.382812 12.621094 8.3125 12.816406 8.3125 C 13.011719 8.3125 13.179688 8.382812 13.320312 8.523438 C 13.457031 8.660156 13.527344 8.828125 13.527344 9.027344 Z M 13.527344 9.027344 " fill-opacity="1" fill-rule="nonzero"/><path fill="#a6a6a6" d="M 19.117188 5.8125 C 19.117188 6.007812 19.046875 6.175781 18.910156 6.316406 C 18.769531 6.453125 18.601562 6.523438 18.40625 6.523438 C 18.210938 6.523438 18.042969 6.453125 17.90625 6.316406 C 17.765625 6.175781 17.695312 6.007812 17.695312 5.8125 C 17.695312 5.613281 17.765625 5.445312 17.90625 5.308594 C 18.042969 5.167969 18.210938 5.097656 18.40625 5.097656 C 18.601562 5.097656 18.769531 5.167969 18.910156 5.308594 C 19.046875 5.445312 19.117188 5.613281 19.117188 5.8125 Z M 19.117188 5.8125 " fill-opacity="1" fill-rule="nonzero"/><g clip-path="url(#941783d1b6)"><path fill="#a6a6a6" d="M 31.597656 4.5 C 31.597656 4.699219 31.53125 4.867188 31.390625 5.003906 C 31.253906 5.144531 31.085938 5.214844 30.890625 5.214844 C 30.695312 5.214844 30.527344 5.144531 30.386719 5.003906 C 30.25 4.867188 30.179688 4.699219 30.179688 4.5 C 30.179688 4.304688 30.25 4.136719 30.386719 3.996094 C 30.527344 3.859375 30.695312 3.789062 30.890625 3.789062 C 31.085938 3.789062 31.253906 3.859375 31.390625 3.996094 C 31.53125 4.136719 31.597656 4.304688 31.597656 4.5 Z M 31.597656 4.5 " fill-opacity="1" fill-rule="nonzero"/></g><g clip-path="url(#91fdd2f1fa)"><path fill="#a6a6a6" d="M 24.914062 4.5 C 24.914062 4.699219 24.84375 4.867188 24.707031 5.003906 C 24.566406 5.144531 24.402344 5.214844 24.203125 5.214844 C 24.007812 5.214844 23.839844 5.144531 23.703125 5.003906 C 23.5625 4.867188 23.496094 4.699219 23.496094 4.5 C 23.496094 4.304688 23.5625 4.136719 23.703125 3.996094 C 23.839844 3.859375 24.007812 3.789062 24.203125 3.789062 C 24.402344 3.789062 24.566406 3.859375 24.707031 3.996094 C 24.84375 4.136719 24.914062 4.304688 24.914062 4.5 Z M 24.914062 4.5 " fill-opacity="1" fill-rule="nonzero"/></g><path fill="#a6a6a6" d="M 37.453125 6.296875 C 37.453125 6.492188 37.386719 6.660156 37.246094 6.800781 C 37.109375 6.941406 36.941406 7.007812 36.746094 7.007812 C 36.546875 7.007812 36.382812 6.941406 36.242188 6.800781 C 36.105469 6.660156 36.035156 6.492188 36.035156 6.296875 C 36.035156 6.101562 36.105469 5.933594 36.242188 5.792969 C 36.382812 5.652344 36.546875 5.585938 36.746094 5.585938 C 36.941406 5.585938 37.109375 5.652344 37.246094 5.792969 C 37.386719 5.933594 37.453125 6.101562 37.453125 6.296875 Z M 37.453125 6.296875 " fill-opacity="1" fill-rule="nonzero"/><path fill="#a6a6a6" d="M 42.597656 9.675781 C 42.597656 9.871094 42.527344 10.039062 42.386719 10.179688 C 42.25 10.316406 42.082031 10.386719 41.886719 10.386719 C 41.691406 10.386719 41.523438 10.316406 41.382812 10.179688 C 41.246094 10.039062 41.175781 9.871094 41.175781 9.675781 C 41.175781 9.476562 41.246094 9.308594 41.382812 9.171875 C 41.523438 9.03125 41.691406 8.960938 41.886719 8.960938 C 42.082031 8.960938 42.25 9.03125 42.386719 9.171875 C 42.527344 9.308594 42.597656 9.476562 42.597656 9.675781 Z M 42.597656 9.675781 " fill-opacity="1" fill-rule="nonzero"/><path fill="#a6a6a6" d="M 49.765625 19.703125 C 49.765625 19.902344 49.695312 20.070312 49.558594 20.207031 C 49.417969 20.347656 49.25 20.417969 49.054688 20.417969 C 48.859375 20.417969 48.691406 20.347656 48.554688 20.207031 C 48.414062 20.070312 48.347656 19.902344 48.347656 19.703125 C 48.347656 19.507812 48.414062 19.339844 48.554688 19.199219 C 48.691406 19.0625 48.859375 18.992188 49.054688 18.992188 C 49.25 18.992188 49.417969 19.0625 49.558594 19.199219 C 49.695312 19.339844 49.765625 19.507812 49.765625 19.703125 Z M 49.765625 19.703125 " fill-opacity="1" fill-rule="nonzero"/><path fill="#a6a6a6" d="M 46.691406 14.367188 C 46.691406 14.5625 46.625 14.730469 46.484375 14.871094 C 46.347656 15.011719 46.179688 15.078125 45.984375 15.078125 C 45.785156 15.078125 45.621094 15.011719 45.480469 14.871094 C 45.34375 14.730469 45.273438 14.5625 45.273438 14.367188 C 45.273438 14.171875 45.34375 14.003906 45.480469 13.863281 C 45.621094 13.726562 45.785156 13.65625 45.984375 13.65625 C 46.179688 13.65625 46.347656 13.726562 46.484375 13.863281 C 46.625 14.003906 46.691406 14.171875 46.691406 14.367188 Z M 46.691406 14.367188 " fill-opacity="1" fill-rule="nonzero"/><g clip-path="url(#553b93dc99)"><path fill="#a6a6a6" d="M 51.183594 25.691406 C 51.183594 25.886719 51.117188 26.054688 50.976562 26.191406 C 50.839844 26.332031 50.671875 26.402344 50.476562 26.402344 C 50.277344 26.402344 50.113281 26.332031 49.972656 26.191406 C 49.835938 26.054688 49.765625 25.886719 49.765625 25.691406 C 49.765625 25.492188 49.835938 25.324219 49.972656 25.1875 C 50.113281 25.046875 50.277344 24.976562 50.476562 24.976562 C 50.671875 24.976562 50.839844 25.046875 50.976562 25.1875 C 51.117188 25.324219 51.183594 25.492188 51.183594 25.691406 Z M 51.183594 25.691406 " fill-opacity="1" fill-rule="nonzero"/></g><g clip-path="url(#bd97fd7962)"><path fill="#a6a6a6" d="M 3.898438 31.027344 C 3.898438 31.222656 3.828125 31.390625 3.691406 31.53125 C 3.550781 31.671875 3.386719 31.738281 3.1875 31.738281 C 2.992188 31.738281 2.824219 31.671875 2.6875 31.53125 C 2.550781 31.390625 2.480469 31.222656 2.480469 31.027344 C 2.480469 30.832031 2.550781 30.664062 2.6875 30.523438 C 2.824219 30.386719 2.992188 30.316406 3.1875 30.316406 C 3.386719 30.316406 3.550781 30.386719 3.691406 30.523438 C 3.828125 30.664062 3.898438 30.832031 3.898438 31.027344 Z M 3.898438 31.027344 " fill-opacity="1" fill-rule="nonzero"/></g><g clip-path="url(#e0b1be0527)"><path fill="#a6a6a6" d="M 3.847656 24.8125 C 3.847656 25.007812 3.777344 25.175781 3.640625 25.316406 C 3.5 25.453125 3.332031 25.523438 3.136719 25.523438 C 2.941406 25.523438 2.773438 25.453125 2.636719 25.316406 C 2.496094 25.175781 2.429688 25.007812 2.429688 24.8125 C 2.429688 24.617188 2.496094 24.449219 2.636719 24.308594 C 2.773438 24.167969 2.941406 24.101562 3.136719 24.101562 C 3.332031 24.101562 3.5 24.167969 3.640625 24.308594 C 3.777344 24.449219 3.847656 24.617188 3.847656 24.8125 Z M 3.847656 24.8125 " fill-opacity="1" fill-rule="nonzero"/></g><path fill="#a6a6a6" d="M 8.828125 13.25 C 8.828125 13.445312 8.757812 13.613281 8.621094 13.753906 C 8.480469 13.890625 8.316406 13.960938 8.117188 13.960938 C 7.921875 13.960938 7.753906 13.890625 7.617188 13.753906 C 7.476562 13.613281 7.410156 13.445312 7.410156 13.25 C 7.410156 13.054688 7.476562 12.886719 7.617188 12.746094 C 7.753906 12.605469 7.921875 12.539062 8.117188 12.539062 C 8.316406 12.539062 8.480469 12.605469 8.621094 12.746094 C 8.757812 12.886719 8.828125 13.054688 8.828125 13.25 Z M 8.828125 13.25 " fill-opacity="1" fill-rule="nonzero"/><path fill="#a6a6a6" d="M 5.769531 18.386719 C 5.769531 18.582031 5.699219 18.75 5.5625 18.890625 C 5.425781 19.027344 5.257812 19.097656 5.0625 19.097656 C 4.863281 19.097656 4.699219 19.027344 4.558594 18.890625 C 4.421875 18.75 4.351562 18.582031 4.351562 18.386719 C 4.351562 18.1875 4.421875 18.019531 4.558594 17.882812 C 4.699219 17.742188 4.863281 17.671875 5.0625 17.671875 C 5.257812 17.671875 5.425781 17.742188 5.5625 17.882812 C 5.699219 18.019531 5.769531 18.1875 5.769531 18.386719 Z M 5.769531 18.386719 " fill-opacity="1" fill-rule="nonzero"/><path fill="#a6a6a6" d="M 41.699219 47.53125 C 41.699219 47.726562 41.632812 47.894531 41.492188 48.035156 C 41.355469 48.171875 41.1875 48.242188 40.992188 48.242188 C 40.796875 48.242188 40.628906 48.171875 40.488281 48.035156 C 40.351562 47.894531 40.28125 47.726562 40.28125 47.53125 C 40.28125 47.335938 40.351562 47.167969 40.488281 47.027344 C 40.628906 46.886719 40.796875 46.820312 40.992188 46.820312 C 41.1875 46.820312 41.355469 46.886719 41.492188 47.027344 C 41.632812 47.167969 41.699219 47.335938 41.699219 47.53125 Z M 41.699219 47.53125 " fill-opacity="1" fill-rule="nonzero"/><path fill="#a6a6a6" d="M 36.109375 50.746094 C 36.109375 50.941406 36.042969 51.109375 35.902344 51.25 C 35.765625 51.390625 35.597656 51.457031 35.402344 51.457031 C 35.207031 51.457031 35.039062 51.390625 34.898438 51.25 C 34.761719 51.109375 34.691406 50.941406 34.691406 50.746094 C 34.691406 50.550781 34.761719 50.382812 34.898438 50.242188 C 35.039062 50.101562 35.207031 50.035156 35.402344 50.035156 C 35.597656 50.035156 35.765625 50.101562 35.902344 50.242188 C 36.042969 50.382812 36.109375 50.550781 36.109375 50.746094 Z M 36.109375 50.746094 " fill-opacity="1" fill-rule="nonzero"/><g clip-path="url(#c52be8d500)"><path fill="#a6a6a6" d="M 23.628906 52.054688 C 23.628906 52.253906 23.558594 52.421875 23.421875 52.558594 C 23.28125 52.699219 23.113281 52.769531 22.917969 52.769531 C 22.722656 52.769531 22.554688 52.699219 22.417969 52.558594 C 22.277344 52.421875 22.210938 52.253906 22.210938 52.054688 C 22.210938 51.859375 22.277344 51.691406 22.417969 51.550781 C 22.554688 51.414062 22.722656 51.34375 22.917969 51.34375 C 23.113281 51.34375 23.28125 51.414062 23.421875 51.550781 C 23.558594 51.691406 23.628906 51.859375 23.628906 52.054688 Z M 23.628906 52.054688 " fill-opacity="1" fill-rule="nonzero"/></g><g clip-path="url(#3caca6ff07)"><path fill="#a6a6a6" d="M 30.3125 52.054688 C 30.3125 52.253906 30.242188 52.421875 30.105469 52.558594 C 29.964844 52.699219 29.800781 52.769531 29.601562 52.769531 C 29.40625 52.769531 29.242188 52.699219 29.101562 52.558594 C 28.964844 52.421875 28.894531 52.253906 28.894531 52.054688 C 28.894531 51.859375 28.964844 51.691406 29.101562 51.550781 C 29.242188 51.414062 29.40625 51.34375 29.601562 51.34375 C 29.800781 51.34375 29.964844 51.414062 30.105469 51.550781 C 30.242188 51.691406 30.3125 51.859375 30.3125 52.054688 Z M 30.3125 52.054688 " fill-opacity="1" fill-rule="nonzero"/></g><path fill="#a6a6a6" d="M 17.773438 50.261719 C 17.773438 50.457031 17.703125 50.625 17.566406 50.765625 C 17.425781 50.902344 17.257812 50.972656 17.0625 50.972656 C 16.867188 50.972656 16.699219 50.902344 16.5625 50.765625 C 16.421875 50.625 16.355469 50.457031 16.355469 50.261719 C 16.355469 50.0625 16.421875 49.894531 16.5625 49.757812 C 16.699219 49.617188 16.867188 49.546875 17.0625 49.546875 C 17.257812 49.546875 17.425781 49.617188 17.566406 49.757812 C 17.703125 49.894531 17.773438 50.0625 17.773438 50.261719 Z M 17.773438 50.261719 " fill-opacity="1" fill-rule="nonzero"/><path fill="#a6a6a6" d="M 12.632812 46.882812 C 12.632812 47.078125 12.5625 47.246094 12.421875 47.386719 C 12.285156 47.527344 12.117188 47.59375 11.921875 47.59375 C 11.726562 47.59375 11.558594 47.527344 11.421875 47.386719 C 11.28125 47.246094 11.210938 47.078125 11.210938 46.882812 C 11.210938 46.6875 11.28125 46.519531 11.421875 46.378906 C 11.558594 46.238281 11.726562 46.171875 11.921875 46.171875 C 12.117188 46.171875 12.285156 46.238281 12.421875 46.378906 C 12.5625 46.519531 12.632812 46.6875 12.632812 46.882812 Z M 12.632812 46.882812 " fill-opacity="1" fill-rule="nonzero"/><path fill="#a6a6a6" d="M 5.460938 36.851562 C 5.460938 37.050781 5.390625 37.21875 5.253906 37.355469 C 5.117188 37.496094 4.949219 37.566406 4.753906 37.566406 C 4.554688 37.566406 4.390625 37.496094 4.25 37.355469 C 4.113281 37.21875 4.042969 37.050781 4.042969 36.851562 C 4.042969 36.65625 4.113281 36.488281 4.25 36.347656 C 4.390625 36.210938 4.554688 36.140625 4.753906 36.140625 C 4.949219 36.140625 5.117188 36.210938 5.253906 36.347656 C 5.390625 36.488281 5.460938 36.65625 5.460938 36.851562 Z M 5.460938 36.851562 " fill-opacity="1" fill-rule="nonzero"/><path fill="#a6a6a6" d="M 8.535156 42.191406 C 8.535156 42.386719 8.464844 42.554688 8.328125 42.695312 C 8.1875 42.832031 8.019531 42.902344 7.824219 42.902344 C 7.628906 42.902344 7.460938 42.832031 7.324219 42.695312 C 7.183594 42.554688 7.117188 42.386719 7.117188 42.191406 C 7.117188 41.992188 7.183594 41.824219 7.324219 41.6875 C 7.460938 41.546875 7.628906 41.476562 7.824219 41.476562 C 8.019531 41.476562 8.1875 41.546875 8.328125 41.6875 C 8.464844 41.824219 8.535156 41.992188 8.535156 42.191406 Z M 8.535156 42.191406 " fill-opacity="1" fill-rule="nonzero"/><g clip-path="url(#06ad09f0bb)"><path fill="#a6a6a6" d="M 4.042969 30.867188 C 4.042969 31.0625 3.972656 31.230469 3.835938 31.371094 C 3.695312 31.511719 3.527344 31.578125 3.332031 31.578125 C 3.136719 31.578125 2.96875 31.511719 2.832031 31.371094 C 2.691406 31.230469 2.625 31.0625 2.625 30.867188 C 2.625 30.671875 2.691406 30.503906 2.832031 30.363281 C 2.96875 30.226562 3.136719 30.15625 3.332031 30.15625 C 3.527344 30.15625 3.695312 30.226562 3.835938 30.363281 C 3.972656 30.503906 4.042969 30.671875 4.042969 30.867188 Z M 4.042969 30.867188 " fill-opacity="1" fill-rule="nonzero"/></g><g clip-path="url(#97f52a8691)"><path fill="#a6a6a6" d="M 51.378906 31.746094 C 51.378906 31.941406 51.3125 32.109375 51.171875 32.25 C 51.035156 32.386719 50.867188 32.457031 50.671875 32.457031 C 50.472656 32.457031 50.308594 32.386719 50.167969 32.25 C 50.03125 32.109375 49.960938 31.941406 49.960938 31.746094 C 49.960938 31.546875 50.03125 31.378906 50.167969 31.242188 C 50.308594 31.101562 50.472656 31.03125 50.671875 31.03125 C 50.867188 31.03125 51.035156 31.101562 51.171875 31.242188 C 51.3125 31.378906 51.378906 31.546875 51.378906 31.746094 Z M 51.378906 31.746094 " fill-opacity="1" fill-rule="nonzero"/></g><path fill="#a6a6a6" d="M 46.398438 43.308594 C 46.398438 43.503906 46.328125 43.671875 46.191406 43.8125 C 46.050781 43.949219 45.886719 44.019531 45.6875 44.019531 C 45.492188 44.019531 45.324219 43.949219 45.1875 43.8125 C 45.050781 43.671875 44.980469 43.503906 44.980469 43.308594 C 44.980469 43.109375 45.050781 42.941406 45.1875 42.804688 C 45.324219 42.664062 45.492188 42.59375 45.6875 42.59375 C 45.886719 42.59375 46.050781 42.664062 46.191406 42.804688 C 46.328125 42.941406 46.398438 43.109375 46.398438 43.308594 Z M 46.398438 43.308594 " fill-opacity="1" fill-rule="nonzero"/><path fill="#a6a6a6" d="M 49.457031 38.171875 C 49.457031 38.367188 49.386719 38.535156 49.25 38.675781 C 49.109375 38.8125 48.945312 38.882812 48.746094 38.882812 C 48.550781 38.882812 48.382812 38.8125 48.246094 38.675781 C 48.105469 38.535156 48.039062 38.367188 48.039062 38.171875 C 48.039062 37.976562 48.105469 37.808594 48.246094 37.667969 C 48.382812 37.527344 48.550781 37.460938 48.746094 37.460938 C 48.945312 37.460938 49.109375 37.527344 49.25 37.667969 C 49.386719 37.808594 49.457031 37.976562 49.457031 38.171875 Z M 49.457031 38.171875 " fill-opacity="1" fill-rule="nonzero"/><path fill="#a6a6a6" d="M 37.351562 17.632812 C 34.546875 14.832031 30.820312 13.289062 26.855469 13.289062 C 22.894531 13.289062 19.164062 14.832031 16.363281 17.632812 C 13.558594 20.4375 12.015625 24.164062 12.015625 28.128906 C 12.015625 32.09375 13.558594 35.820312 16.363281 38.625 C 19.164062 41.425781 22.890625 42.96875 26.855469 42.96875 C 30.820312 42.96875 34.546875 41.425781 37.351562 38.625 C 40.152344 35.820312 41.695312 32.09375 41.695312 28.128906 C 41.695312 24.164062 40.152344 20.4375 37.351562 17.636719 Z M 26.855469 13.628906 C 33.257812 13.628906 38.703125 17.800781 40.621094 23.570312 L 35.390625 23.570312 L 36.109375 23.136719 L 35.238281 23.570312 L 34.15625 23.570312 L 35.714844 22.46875 L 33.847656 23.570312 L 33.449219 23.570312 L 35.417969 22.027344 L 33.078125 23.570312 L 32.574219 23.570312 L 34.941406 21.410156 L 32.144531 23.570312 L 32.054688 23.570312 L 34.589844 21.007812 L 31.597656 23.570312 L 31.386719 23.570312 L 34.042969 20.457031 L 31.199219 23.28125 L 33.644531 20.101562 L 30.492188 23.570312 L 30.4375 23.570312 L 33.035156 19.625 L 30.558594 22.78125 L 32.59375 19.320312 L 29.726562 23.394531 L 31.929688 18.921875 L 29.867188 22.363281 L 31.457031 18.675781 L 29.113281 23.078125 L 30.742188 18.363281 L 29.128906 22.035156 L 30.246094 18.179688 L 28.46875 22.835938 L 29.5 17.957031 L 28.351562 21.796875 L 28.980469 17.835938 L 27.796875 22.675781 L 28.214844 17.707031 L 27.550781 21.664062 L 27.683594 17.652344 L 27.109375 22.601562 L 26.90625 17.617188 L 26.742188 21.625 L 26.375 17.628906 L 26.414062 21.640625 L 25.84375 17.667969 L 26.144531 22.640625 L 25.070312 17.769531 L 25.609375 21.746094 L 24.550781 17.875 L 25.464844 22.773438 L 23.796875 18.074219 L 24.824219 21.949219 L 23.292969 18.238281 L 24.808594 22.988281 L 22.570312 18.53125 L 24.070312 22.25 L 22.089844 18.761719 L 24.183594 23.28125 L 21.410156 19.136719 L 23.359375 22.640625 L 20.960938 19.425781 L 23.554688 23.574219 L 23.535156 23.574219 L 20.332031 19.882812 L 22.707031 23.117188 L 19.925781 20.226562 L 22.648438 23.570312 L 22.496094 23.570312 L 19.359375 20.757812 L 22.019531 23.570312 L 21.988281 23.570312 L 18.996094 21.148438 L 21.53125 23.570312 L 21.128906 23.570312 L 18.5 21.746094 L 20.714844 23.570312 L 20.429688 23.570312 L 18.1875 22.179688 L 20.066406 23.570312 L 19.179688 23.570312 L 17.773438 22.835938 L 18.9375 23.570312 L 18.101562 23.570312 L 17.515625 23.304688 L 17.992188 23.570312 L 13.09375 23.570312 C 15.007812 17.800781 20.453125 13.628906 26.855469 13.628906 Z M 26.855469 42.628906 C 20.578125 42.628906 15.214844 38.613281 13.207031 33.015625 L 18.265625 33.015625 L 17.730469 33.355469 L 18.375 33.015625 L 19.484375 33.015625 L 18.140625 34.015625 L 19.742188 33.015625 L 20.183594 33.015625 L 18.449219 34.449219 L 20.507812 33.015625 L 21.0625 33.015625 L 18.941406 35.054688 L 21.445312 33.015625 L 21.589844 33.015625 L 19.300781 35.445312 L 21.996094 33.015625 L 22.269531 33.015625 L 19.863281 35.984375 L 22.636719 33.085938 L 20.269531 36.328125 L 23.132812 33.015625 L 23.242188 33.015625 L 20.894531 36.792969 L 23.285156 33.570312 L 21.339844 37.082031 L 24.050781 33.015625 L 24.070312 33.015625 L 22.015625 37.464844 L 23.988281 33.972656 L 22.496094 37.699219 L 24.722656 33.242188 L 23.214844 37.992188 L 24.738281 34.285156 L 23.71875 38.164062 L 25.375 33.464844 L 24.46875 38.371094 L 25.519531 34.5 L 24.988281 38.476562 L 26.050781 33.609375 L 25.757812 38.585938 L 26.320312 34.617188 L 26.289062 38.628906 L 26.738281 33.667969 L 27.070312 38.640625 L 27.132812 34.632812 L 27.601562 38.617188 L 27.425781 33.636719 L 28.375 38.535156 L 27.9375 34.546875 L 28.898438 38.441406 L 28.105469 33.523438 L 29.65625 38.261719 L 28.726562 34.363281 L 30.164062 38.109375 L 28.769531 33.324219 L 30.894531 37.835938 L 29.488281 34.078125 L 31.378906 37.617188 L 29.398438 33.046875 L 32.070312 37.257812 L 30.207031 33.707031 L 32.523438 36.980469 L 30.179688 33.011719 L 30.257812 33.011719 L 33.164062 36.539062 L 30.875 33.246094 L 33.582031 36.207031 L 31.109375 33.011719 L 31.324219 33.011719 L 34.160156 35.6875 L 31.753906 33.011719 L 31.839844 33.011719 L 34.535156 35.308594 L 32.25 33.011719 L 32.710938 33.011719 L 35.042969 34.722656 L 33.074219 33.011719 L 33.410156 33.011719 L 35.367188 34.296875 L 33.722656 33.011719 L 34.652344 33.011719 L 35.800781 33.652344 L 34.84375 33.011719 L 35.703125 33.011719 L 36.070312 33.191406 L 35.769531 33.011719 L 40.503906 33.011719 C 38.496094 38.609375 33.136719 42.625 26.855469 42.625 Z M 13.089844 32.671875 C 12.617188 31.242188 12.359375 29.714844 12.359375 28.128906 C 12.359375 26.664062 12.578125 25.246094 12.984375 23.910156 L 40.730469 23.910156 C 41.136719 25.246094 41.355469 26.664062 41.355469 28.128906 C 41.355469 29.714844 41.097656 31.242188 40.625 32.671875 Z M 13.089844 32.671875 " fill-opacity="1" fill-rule="nonzero"/><g clip-path="url(#1ebc9d906b)"><path fill="#a6a6a6" d="M 37.613281 17.371094 C 34.738281 14.5 30.917969 12.917969 26.855469 12.917969 C 22.792969 12.917969 18.972656 14.5 16.101562 17.371094 C 13.226562 20.246094 11.644531 24.066406 11.644531 28.128906 C 11.644531 32.191406 13.226562 36.011719 16.101562 38.886719 C 18.972656 41.757812 22.792969 43.34375 26.855469 43.34375 C 30.921875 43.34375 34.738281 41.757812 37.613281 38.886719 C 40.488281 36.011719 42.070312 32.191406 42.070312 28.128906 C 42.070312 24.066406 40.488281 20.246094 37.613281 17.371094 Z M 26.855469 43.285156 C 18.5 43.285156 11.703125 36.484375 11.703125 28.128906 C 11.703125 19.773438 18.5 12.972656 26.855469 12.972656 C 35.214844 12.972656 42.011719 19.773438 42.011719 28.128906 C 42.011719 36.488281 35.214844 43.285156 26.855469 43.285156 Z M 26.855469 43.285156 " fill-opacity="1" fill-rule="nonzero"/></g><g fill="#000000" fill-opacity="1"><g transform="translate(14.385153, 31.652862)"><g><path d="M 2.140625 0.109375 C 3.496094 0.109375 4.359375 -0.660156 4.382812 -1.851562 C 4.394531 -2.660156 4.089844 -3.234375 3.117188 -3.992188 C 2.84375 -4.207031 2.542969 -4.445312 2.207031 -4.726562 C 1.71875 -5.128906 1.472656 -5.464844 1.472656 -6.027344 C 1.480469 -6.566406 1.808594 -6.9375 2.371094 -6.9375 C 2.652344 -6.925781 2.933594 -6.847656 3.105469 -6.742188 L 3.105469 -5.519531 L 4.078125 -5.519531 L 4.078125 -7.292969 C 3.691406 -7.5625 3.039062 -7.84375 2.378906 -7.855469 C 1.234375 -7.855469 0.445312 -7.078125 0.445312 -5.984375 C 0.445312 -5.160156 0.757812 -4.566406 1.558594 -3.917969 C 1.871094 -3.65625 2.152344 -3.410156 2.433594 -3.191406 C 3.09375 -2.660156 3.34375 -2.335938 3.34375 -1.828125 C 3.34375 -1.210938 2.910156 -0.8125 2.140625 -0.8125 C 1.535156 -0.8125 1.027344 -1.339844 0.886719 -1.589844 L 0.140625 -0.984375 C 0.390625 -0.519531 1.09375 0.109375 2.140625 0.109375 Z M 2.140625 0.109375 "/></g></g></g><g fill="#000000" fill-opacity="1"><g transform="translate(18.593037, 31.652862)"><g><path d="M 0.789062 0.0117188 L 1.851562 0.0117188 L 1.851562 -7.757812 L 0.789062 -7.757812 Z M 0.789062 0.0117188 "/></g></g></g><g fill="#000000" fill-opacity="1"><g transform="translate(20.583132, 31.652862)"><g><path d="M 2.738281 0.109375 C 3.699219 0.109375 4.382812 -0.238281 4.792969 -0.691406 L 4.792969 -4.402344 L 2.660156 -4.402344 L 2.660156 -3.484375 L 3.742188 -3.484375 L 3.742188 -1.136719 C 3.742188 -1.113281 3.410156 -0.8125 2.738281 -0.8125 C 2.023438 -0.8125 1.675781 -1.136719 1.675781 -1.773438 L 1.675781 -5.972656 C 1.675781 -6.601562 2.035156 -6.9375 2.695312 -6.9375 C 2.984375 -6.9375 3.34375 -6.847656 3.601562 -6.75 L 3.601562 -5.636719 L 4.578125 -5.636719 L 4.578125 -7.304688 C 4.175781 -7.550781 3.515625 -7.84375 2.703125 -7.855469 C 1.472656 -7.875 0.628906 -7.109375 0.628906 -5.984375 L 0.628906 -1.761719 C 0.628906 -0.628906 1.472656 0.109375 2.738281 0.109375 Z M 2.738281 0.109375 "/></g></g></g><g fill="#000000" fill-opacity="1"><g transform="translate(25.407678, 31.652862)"><g><path d="M 4.003906 -7.757812 L 4.003906 -3.320312 L 4.089844 -1.851562 C 4.089844 -1.871094 3.882812 -2.867188 3.679688 -3.386719 L 1.949219 -7.757812 L 0.789062 -7.757812 L 0.789062 0 L 1.796875 0 L 1.796875 -4.640625 L 1.699219 -6.136719 C 1.710938 -6.113281 1.914062 -5.007812 2.164062 -4.4375 L 4.003906 0 L 5.019531 0 L 5.019531 -7.757812 Z M 4.003906 -7.757812 "/></g></g></g><g fill="#000000" fill-opacity="1"><g transform="translate(30.567595, 31.652862)"><g><path d="M 1.839844 -0.917969 L 1.839844 -3.550781 L 4.144531 -3.550781 L 4.144531 -4.46875 L 1.839844 -4.46875 L 1.839844 -6.839844 L 4.347656 -6.839844 L 4.347656 -7.757812 L 0.789062 -7.757812 L 0.789062 0 L 4.359375 0 L 4.359375 -0.917969 Z M 1.839844 -0.917969 "/></g></g></g><g fill="#000000" fill-opacity="1"><g transform="translate(34.634839, 31.652862)"><g><path d="M 4.664062 -7.757812 L 0.25 -7.757812 L 0.25 -6.839844 L 1.9375 -6.839844 L 1.9375 0 L 2.984375 0 L 2.984375 -6.839844 L 4.664062 -6.839844 Z M 4.664062 -7.757812 "/></g></g></g></svg>