<svg xmlns="http://www.w3.org/2000/svg" xmlns:xlink="http://www.w3.org/1999/xlink" zoomAndPan="magnify" preserveAspectRatio="xMidYMid meet" version="1.0" viewBox="3.62 25.83 64.96 10.5"><defs><g/><clipPath id="06d5d3c90b"><path d="M 3.617188 25.828125 L 14.117188 25.828125 L 14.117188 36.328125 L 3.617188 36.328125 Z M 3.617188 25.828125 " clip-rule="nonzero"/></clipPath><clipPath id="dc6a465ef8"><path d="M 9 25.828125 L 10 25.828125 L 10 27 L 9 27 Z M 9 25.828125 " clip-rule="nonzero"/></clipPath><clipPath id="8a355eacf8"><path d="M 8 25.828125 L 9 25.828125 L 9 27 L 8 27 Z M 8 25.828125 " clip-rule="nonzero"/></clipPath><clipPath id="00e0efd040"><path d="M 13 30 L 14.117188 30 L 14.117188 31 L 13 31 Z M 13 30 " clip-rule="nonzero"/></clipPath><clipPath id="78d7f86b8e"><path d="M 3.617188 31 L 4 31 L 4 32 L 3.617188 32 Z M 3.617188 31 " clip-rule="nonzero"/></clipPath><clipPath id="a5cf664df2"><path d="M 3.617188 30 L 4 30 L 4 31 L 3.617188 31 Z M 3.617188 30 " clip-rule="nonzero"/></clipPath><clipPath id="34d94d7009"><path d="M 10 35 L 11 35 L 11 36.328125 L 10 36.328125 Z M 10 35 " clip-rule="nonzero"/></clipPath><clipPath id="5a7d159298"><path d="M 7 36 L 9 36 L 9 36.328125 L 7 36.328125 Z M 7 36 " clip-rule="nonzero"/></clipPath><clipPath id="129743e2c9"><path d="M 9 36 L 10 36 L 10 36.328125 L 9 36.328125 Z M 9 36 " clip-rule="nonzero"/></clipPath><clipPath id="cda3b75dcf"><path d="M 3.617188 32 L 5 32 L 5 34 L 3.617188 34 Z M 3.617188 32 " clip-rule="nonzero"/></clipPath><clipPath id="30592f5fdd"><path d="M 3.617188 31 L 4 31 L 4 32 L 3.617188 32 Z M 3.617188 31 " clip-rule="nonzero"/></clipPath><clipPath id="5c13bf4de8"><path d="M 13 31 L 14.117188 31 L 14.117188 32 L 13 32 Z M 13 31 " clip-rule="nonzero"/></clipPath><clipPath id="8e580b28d9"><path d="M 4.511719 26.703125 L 13.511719 26.703125 L 13.511719 35.703125 L 4.511719 35.703125 Z M 4.511719 26.703125 " clip-rule="nonzero"/></clipPath></defs><g fill="#000000" fill-opacity="1"><g transform="translate(15.564827, 35.359102)"><g><path d="M 2.527344 0.128906 C 4.125 0.128906 5.144531 -0.777344 5.167969 -2.183594 C 5.183594 -3.140625 4.824219 -3.816406 3.675781 -4.710938 C 3.355469 -4.964844 3 -5.246094 2.605469 -5.578125 C 2.03125 -6.050781 1.734375 -6.445312 1.734375 -7.109375 C 1.75 -7.75 2.132812 -8.183594 2.796875 -8.183594 C 3.128906 -8.167969 3.460938 -8.082031 3.664062 -7.953125 L 3.664062 -6.511719 L 4.8125 -6.511719 L 4.8125 -8.605469 C 4.351562 -8.921875 3.585938 -9.253906 2.808594 -9.265625 C 1.457031 -9.265625 0.523438 -8.347656 0.523438 -7.058594 C 0.523438 -6.089844 0.894531 -5.386719 1.839844 -4.621094 C 2.207031 -4.316406 2.539062 -4.019531 2.871094 -3.765625 C 3.652344 -3.140625 3.945312 -2.757812 3.945312 -2.15625 C 3.945312 -1.429688 3.433594 -0.957031 2.527344 -0.957031 C 1.8125 -0.957031 1.210938 -1.582031 1.046875 -1.875 L 0.164062 -1.160156 C 0.460938 -0.613281 1.289062 0.128906 2.527344 0.128906 Z M 2.527344 0.128906 "/></g></g></g><g fill="#000000" fill-opacity="1"><g transform="translate(20.528785, 35.359102)"><g><path d="M 0.933594 0.0117188 L 2.183594 0.0117188 L 2.183594 -9.152344 L 0.933594 -9.152344 Z M 0.933594 0.0117188 "/></g></g></g><g fill="#000000" fill-opacity="1"><g transform="translate(22.876578, 35.359102)"><g><path d="M 3.230469 0.128906 C 4.367188 0.128906 5.167969 -0.28125 5.65625 -0.816406 L 5.65625 -5.195312 L 3.140625 -5.195312 L 3.140625 -4.109375 L 4.417969 -4.109375 L 4.417969 -1.339844 C 4.417969 -1.316406 4.019531 -0.957031 3.230469 -0.957031 C 2.386719 -0.957031 1.980469 -1.339844 1.980469 -2.09375 L 1.980469 -7.046875 C 1.980469 -7.785156 2.398438 -8.183594 3.179688 -8.183594 C 3.523438 -8.183594 3.945312 -8.082031 4.25 -7.964844 L 4.25 -6.652344 L 5.398438 -6.652344 L 5.398438 -8.617188 C 4.925781 -8.910156 4.148438 -9.253906 3.191406 -9.265625 C 1.734375 -9.292969 0.742188 -8.386719 0.742188 -7.058594 L 0.742188 -2.082031 C 0.742188 -0.742188 1.734375 0.128906 3.230469 0.128906 Z M 3.230469 0.128906 "/></g></g></g><g fill="#000000" fill-opacity="1"><g transform="translate(28.567958, 35.359102)"><g><path d="M 4.722656 -9.152344 L 4.722656 -3.917969 L 4.824219 -2.183594 C 4.824219 -2.207031 4.582031 -3.382812 4.339844 -3.996094 L 2.296875 -9.152344 L 0.933594 -9.152344 L 0.933594 0 L 2.117188 0 L 2.117188 -5.476562 L 2.003906 -7.238281 C 2.015625 -7.210938 2.257812 -5.910156 2.554688 -5.234375 L 4.722656 0 L 5.921875 0 L 5.921875 -9.152344 Z M 4.722656 -9.152344 "/></g></g></g><g fill="#000000" fill-opacity="1"><g transform="translate(34.654958, 35.359102)"><g><path d="M 2.171875 -1.085938 L 2.171875 -4.1875 L 4.890625 -4.1875 L 4.890625 -5.273438 L 2.171875 -5.273438 L 2.171875 -8.066406 L 5.132812 -8.066406 L 5.132812 -9.152344 L 0.933594 -9.152344 L 0.933594 0 L 5.144531 0 L 5.144531 -1.085938 Z M 2.171875 -1.085938 "/></g></g></g><g fill="#000000" fill-opacity="1"><g transform="translate(39.453011, 35.359102)"><g><path d="M 5.5 -9.152344 L 0.292969 -9.152344 L 0.292969 -8.066406 L 2.285156 -8.066406 L 2.285156 0 L 3.523438 0 L 3.523438 -8.066406 L 5.5 -8.066406 Z M 5.5 -9.152344 "/></g></g></g><g fill="#000000" fill-opacity="1"><g transform="translate(47.136231, 35.359095)"><g><path d="M 5.5 -9.152344 L 0.292969 -9.152344 L 0.292969 -8.066406 L 2.285156 -8.066406 L 2.285156 0 L 3.523438 0 L 3.523438 -8.066406 L 5.5 -8.066406 Z M 5.5 -9.152344 "/></g></g></g><g fill="#000000" fill-opacity="1"><g transform="translate(52.163997, 35.359095)"><g><path d="M 4.824219 0 L 6.089844 0 L 3.6875 -9.152344 L 2.628906 -9.152344 L 0.230469 0 L 1.480469 0 L 1.953125 -2.003906 L 4.339844 -2.003906 Z M 2.207031 -3.089844 L 2.871094 -5.871094 C 2.988281 -6.304688 3.078125 -6.816406 3.152344 -7.339844 C 3.214844 -6.804688 3.304688 -6.292969 3.421875 -5.859375 L 4.085938 -3.089844 Z M 2.207031 -3.089844 "/></g></g></g><g fill="#000000" fill-opacity="1"><g transform="translate(57.714998, 35.359095)"><g><path d="M 3.230469 0.128906 C 4.367188 0.128906 5.167969 -0.28125 5.65625 -0.816406 L 5.65625 -5.195312 L 3.140625 -5.195312 L 3.140625 -4.109375 L 4.417969 -4.109375 L 4.417969 -1.339844 C 4.417969 -1.316406 4.019531 -0.957031 3.230469 -0.957031 C 2.386719 -0.957031 1.980469 -1.339844 1.980469 -2.09375 L 1.980469 -7.046875 C 1.980469 -7.785156 2.398438 -8.183594 3.179688 -8.183594 C 3.523438 -8.183594 3.945312 -8.082031 4.25 -7.964844 L 4.25 -6.652344 L 5.398438 -6.652344 L 5.398438 -8.617188 C 4.925781 -8.910156 4.148438 -9.253906 3.191406 -9.265625 C 1.734375 -9.292969 0.742188 -8.386719 0.742188 -7.058594 L 0.742188 -2.082031 C 0.742188 -0.742188 1.734375 0.128906 3.230469 0.128906 Z M 3.230469 0.128906 "/></g></g></g><g fill="#000000" fill-opacity="1"><g transform="translate(63.406373, 35.359095)"><g><path d="M 2.527344 0.128906 C 4.125 0.128906 5.144531 -0.777344 5.167969 -2.183594 C 5.183594 -3.140625 4.824219 -3.816406 3.675781 -4.710938 C 3.355469 -4.964844 3 -5.246094 2.605469 -5.578125 C 2.03125 -6.050781 1.734375 -6.445312 1.734375 -7.109375 C 1.75 -7.75 2.132812 -8.183594 2.796875 -8.183594 C 3.128906 -8.167969 3.460938 -8.082031 3.664062 -7.953125 L 3.664062 -6.511719 L 4.8125 -6.511719 L 4.8125 -8.605469 C 4.351562 -8.921875 3.585938 -9.253906 2.808594 -9.265625 C 1.457031 -9.265625 0.523438 -8.347656 0.523438 -7.058594 C 0.523438 -6.089844 0.894531 -5.386719 1.839844 -4.621094 C 2.207031 -4.316406 2.539062 -4.019531 2.871094 -3.765625 C 3.652344 -3.140625 3.945312 -2.757812 3.945312 -2.15625 C 3.945312 -1.429688 3.433594 -0.957031 2.527344 -0.957031 C 1.8125 -0.957031 1.210938 -1.582031 1.046875 -1.875 L 0.164062 -1.160156 C 0.460938 -0.613281 1.289062 0.128906 2.527344 0.128906 Z M 2.527344 0.128906 "/></g></g></g><g clip-path="url(#06d5d3c90b)"><path fill="#000000" d="M 14.09375 31.097656 C 14.09375 30.820312 13.6875 30.789062 13.550781 30.53125 C 13.601562 30.226562 14.015625 30.09375 13.945312 29.816406 C 13.875 29.542969 13.460938 29.621094 13.269531 29.390625 C 13.214844 29.070312 13.609375 28.832031 13.46875 28.574219 C 13.328125 28.320312 12.921875 28.523438 12.679688 28.3125 C 12.667969 28.296875 12.65625 28.28125 12.644531 28.265625 L 12.660156 28.277344 C 12.453125 27.972656 12.816406 27.609375 12.597656 27.386719 C 12.402344 27.191406 12.089844 27.457031 11.8125 27.375 C 11.632812 27.121094 11.835938 26.734375 11.589844 26.589844 C 11.351562 26.445312 11.109375 26.796875 10.8125 26.765625 C 10.546875 26.578125 10.660156 26.128906 10.378906 26.046875 C 10.09375 25.964844 9.949219 26.410156 9.621094 26.421875 C 9.597656 26.417969 9.574219 26.414062 9.550781 26.410156 L 9.597656 26.414062 C 9.238281 26.347656 9.234375 25.828125 8.925781 25.828125 C 8.648438 25.828125 8.617188 26.238281 8.363281 26.375 C 8.058594 26.324219 7.929688 25.910156 7.652344 25.976562 C 7.378906 26.046875 7.457031 26.464844 7.226562 26.65625 C 6.90625 26.710938 6.671875 26.316406 6.414062 26.457031 C 6.144531 26.605469 6.386719 27.050781 6.113281 27.289062 C 6.089844 27.304688 6.066406 27.320312 6.046875 27.339844 L 6.121094 27.269531 C 5.816406 27.480469 5.453125 27.113281 5.234375 27.332031 C 5.039062 27.53125 5.304688 27.839844 5.21875 28.121094 C 4.96875 28.300781 4.585938 28.097656 4.4375 28.34375 C 4.292969 28.585938 4.644531 28.828125 4.613281 29.125 C 4.425781 29.390625 3.980469 29.277344 3.898438 29.558594 C 3.8125 29.859375 4.308594 30.003906 4.269531 30.371094 C 4.269531 30.394531 4.265625 30.410156 4.265625 30.421875 C 4.261719 30.445312 4.261719 30.464844 4.257812 30.488281 L 4.261719 30.34375 C 4.195312 30.707031 3.679688 30.707031 3.679688 31.019531 C 3.679688 31.296875 4.089844 31.328125 4.226562 31.585938 C 4.175781 31.890625 3.761719 32.019531 3.828125 32.296875 C 3.898438 32.570312 4.316406 32.496094 4.507812 32.726562 C 4.558594 33.046875 4.164062 33.285156 4.304688 33.542969 C 4.457031 33.816406 4.90625 33.566406 5.140625 33.851562 C 5.15625 33.875 5.171875 33.890625 5.179688 33.898438 C 5.191406 33.914062 5.203125 33.933594 5.21875 33.949219 L 5.117188 33.839844 C 5.324219 34.140625 4.960938 34.507812 5.179688 34.730469 C 5.375 34.925781 5.683594 34.65625 5.964844 34.742188 C 6.140625 34.992188 5.941406 35.378906 6.183594 35.527344 C 6.425781 35.671875 6.664062 35.320312 6.964844 35.351562 C 7.226562 35.539062 7.117188 35.984375 7.394531 36.066406 C 7.695312 36.15625 7.839844 35.660156 8.203125 35.695312 C 8.210938 35.695312 8.214844 35.695312 8.21875 35.699219 C 8.242188 35.699219 8.265625 35.703125 8.289062 35.707031 L 8.179688 35.703125 C 8.539062 35.769531 8.539062 36.289062 8.851562 36.289062 C 9.125 36.289062 9.15625 35.878906 9.414062 35.742188 C 9.71875 35.792969 9.847656 36.207031 10.121094 36.136719 C 10.394531 36.070312 10.316406 35.652344 10.550781 35.457031 C 10.867188 35.40625 11.105469 35.800781 11.359375 35.660156 C 11.621094 35.515625 11.402344 35.089844 11.640625 34.847656 C 11.660156 34.832031 11.683594 34.820312 11.703125 34.804688 L 11.65625 34.847656 C 11.957031 34.636719 12.324219 35.003906 12.542969 34.78125 C 12.738281 34.585938 12.472656 34.277344 12.554688 33.996094 C 12.804688 33.816406 13.191406 34.019531 13.335938 33.773438 C 13.480469 33.53125 13.132812 33.289062 13.160156 32.988281 C 13.347656 32.726562 13.792969 32.839844 13.875 32.554688 C 13.957031 32.273438 13.523438 32.128906 13.503906 31.808594 C 13.507812 31.785156 13.511719 31.765625 13.511719 31.746094 L 13.511719 31.769531 C 13.578125 31.410156 14.09375 31.40625 14.09375 31.097656 Z M 8.886719 35.355469 C 6.523438 35.355469 4.609375 33.433594 4.609375 31.058594 C 4.609375 28.683594 6.523438 26.761719 8.886719 26.761719 C 11.25 26.761719 13.167969 28.683594 13.167969 31.058594 C 13.167969 33.433594 11.25 35.355469 8.886719 35.355469 Z M 8.886719 35.355469 " fill-opacity="1" fill-rule="nonzero"/></g><path fill="#000000" d="M 6 26.953125 C 6 27.054688 5.949219 27.105469 5.847656 27.105469 C 5.746094 27.105469 5.695312 27.054688 5.695312 26.953125 C 5.695312 26.851562 5.746094 26.800781 5.847656 26.800781 C 5.949219 26.800781 6 26.851562 6 26.953125 Z M 6 26.953125 " fill-opacity="1" fill-rule="nonzero"/><path fill="#000000" d="M 7.199219 26.261719 C 7.199219 26.363281 7.148438 26.414062 7.046875 26.414062 C 6.945312 26.414062 6.894531 26.363281 6.894531 26.261719 C 6.894531 26.160156 6.945312 26.109375 7.046875 26.109375 C 7.148438 26.109375 7.199219 26.160156 7.199219 26.261719 Z M 7.199219 26.261719 " fill-opacity="1" fill-rule="nonzero"/><g clip-path="url(#dc6a465ef8)"><path fill="#000000" d="M 9.871094 25.980469 C 9.871094 26.082031 9.820312 26.132812 9.71875 26.132812 C 9.621094 26.132812 9.570312 26.082031 9.570312 25.980469 C 9.570312 25.878906 9.621094 25.828125 9.71875 25.828125 C 9.820312 25.828125 9.871094 25.878906 9.871094 25.980469 Z M 9.871094 25.980469 " fill-opacity="1" fill-rule="nonzero"/></g><g clip-path="url(#8a355eacf8)"><path fill="#000000" d="M 8.441406 25.980469 C 8.441406 26.082031 8.390625 26.132812 8.289062 26.132812 C 8.1875 26.132812 8.136719 26.082031 8.136719 25.980469 C 8.136719 25.878906 8.1875 25.828125 8.289062 25.828125 C 8.390625 25.828125 8.441406 25.878906 8.441406 25.980469 Z M 8.441406 25.980469 " fill-opacity="1" fill-rule="nonzero"/></g><path fill="#000000" d="M 11.128906 26.367188 C 11.128906 26.46875 11.078125 26.519531 10.976562 26.519531 C 10.875 26.519531 10.824219 26.46875 10.824219 26.367188 C 10.824219 26.265625 10.875 26.214844 10.976562 26.214844 C 11.078125 26.214844 11.128906 26.265625 11.128906 26.367188 Z M 11.128906 26.367188 " fill-opacity="1" fill-rule="nonzero"/><path fill="#000000" d="M 12.230469 27.089844 C 12.230469 27.191406 12.179688 27.242188 12.078125 27.242188 C 11.976562 27.242188 11.925781 27.191406 11.925781 27.089844 C 11.925781 26.988281 11.976562 26.9375 12.078125 26.9375 C 12.179688 26.9375 12.230469 26.988281 12.230469 27.089844 Z M 12.230469 27.089844 " fill-opacity="1" fill-rule="nonzero"/><path fill="#000000" d="M 13.765625 29.242188 C 13.765625 29.34375 13.714844 29.394531 13.613281 29.394531 C 13.511719 29.394531 13.460938 29.34375 13.460938 29.242188 C 13.460938 29.140625 13.511719 29.089844 13.613281 29.089844 C 13.714844 29.089844 13.765625 29.140625 13.765625 29.242188 Z M 13.765625 29.242188 " fill-opacity="1" fill-rule="nonzero"/><path fill="#000000" d="M 13.105469 28.097656 C 13.105469 28.199219 13.054688 28.25 12.953125 28.25 C 12.851562 28.25 12.800781 28.199219 12.800781 28.097656 C 12.800781 27.996094 12.851562 27.945312 12.953125 27.945312 C 13.054688 27.945312 13.105469 27.996094 13.105469 28.097656 Z M 13.105469 28.097656 " fill-opacity="1" fill-rule="nonzero"/><g clip-path="url(#00e0efd040)"><path fill="#000000" d="M 14.070312 30.523438 C 14.070312 30.625 14.019531 30.675781 13.917969 30.675781 C 13.816406 30.675781 13.765625 30.625 13.765625 30.523438 C 13.765625 30.421875 13.816406 30.371094 13.917969 30.371094 C 14.019531 30.371094 14.070312 30.421875 14.070312 30.523438 Z M 14.070312 30.523438 " fill-opacity="1" fill-rule="nonzero"/></g><g clip-path="url(#78d7f86b8e)"><path fill="#000000" d="M 3.9375 31.667969 C 3.9375 31.769531 3.886719 31.820312 3.785156 31.820312 C 3.683594 31.820312 3.632812 31.769531 3.632812 31.667969 C 3.632812 31.566406 3.683594 31.515625 3.785156 31.515625 C 3.886719 31.515625 3.9375 31.566406 3.9375 31.667969 Z M 3.9375 31.667969 " fill-opacity="1" fill-rule="nonzero"/></g><g clip-path="url(#a5cf664df2)"><path fill="#000000" d="M 3.925781 30.335938 C 3.925781 30.4375 3.875 30.488281 3.773438 30.488281 C 3.671875 30.488281 3.621094 30.4375 3.621094 30.335938 C 3.621094 30.234375 3.671875 30.183594 3.773438 30.183594 C 3.875 30.183594 3.925781 30.234375 3.925781 30.335938 Z M 3.925781 30.335938 " fill-opacity="1" fill-rule="nonzero"/></g><path fill="#000000" d="M 4.992188 27.855469 C 4.992188 27.960938 4.941406 28.011719 4.84375 28.011719 C 4.742188 28.011719 4.691406 27.960938 4.691406 27.855469 C 4.691406 27.753906 4.742188 27.703125 4.84375 27.703125 C 4.941406 27.703125 4.992188 27.753906 4.992188 27.855469 Z M 4.992188 27.855469 " fill-opacity="1" fill-rule="nonzero"/><path fill="#000000" d="M 4.339844 28.957031 C 4.339844 29.058594 4.289062 29.109375 4.1875 29.109375 C 4.085938 29.109375 4.035156 29.058594 4.035156 28.957031 C 4.035156 28.855469 4.085938 28.804688 4.1875 28.804688 C 4.289062 28.804688 4.339844 28.855469 4.339844 28.957031 Z M 4.339844 28.957031 " fill-opacity="1" fill-rule="nonzero"/><path fill="#000000" d="M 12.035156 35.207031 C 12.035156 35.308594 11.988281 35.359375 11.886719 35.359375 C 11.785156 35.359375 11.734375 35.308594 11.734375 35.207031 C 11.734375 35.105469 11.785156 35.054688 11.886719 35.054688 C 11.988281 35.054688 12.035156 35.105469 12.035156 35.207031 Z M 12.035156 35.207031 " fill-opacity="1" fill-rule="nonzero"/><g clip-path="url(#34d94d7009)"><path fill="#000000" d="M 10.839844 35.894531 C 10.839844 35.996094 10.789062 36.046875 10.6875 36.046875 C 10.585938 36.046875 10.535156 35.996094 10.535156 35.894531 C 10.535156 35.792969 10.585938 35.742188 10.6875 35.742188 C 10.789062 35.742188 10.839844 35.792969 10.839844 35.894531 Z M 10.839844 35.894531 " fill-opacity="1" fill-rule="nonzero"/></g><g clip-path="url(#5a7d159298)"><path fill="#000000" d="M 8.164062 36.175781 C 8.164062 36.277344 8.113281 36.328125 8.011719 36.328125 C 7.910156 36.328125 7.859375 36.277344 7.859375 36.175781 C 7.859375 36.074219 7.910156 36.023438 8.011719 36.023438 C 8.113281 36.023438 8.164062 36.074219 8.164062 36.175781 Z M 8.164062 36.175781 " fill-opacity="1" fill-rule="nonzero"/></g><g clip-path="url(#129743e2c9)"><path fill="#000000" d="M 9.597656 36.175781 C 9.597656 36.277344 9.546875 36.328125 9.445312 36.328125 C 9.34375 36.328125 9.292969 36.277344 9.292969 36.175781 C 9.292969 36.074219 9.34375 36.023438 9.445312 36.023438 C 9.546875 36.023438 9.597656 36.074219 9.597656 36.175781 Z M 9.597656 36.175781 " fill-opacity="1" fill-rule="nonzero"/></g><path fill="#000000" d="M 6.910156 35.792969 C 6.910156 35.894531 6.859375 35.945312 6.757812 35.945312 C 6.65625 35.945312 6.605469 35.894531 6.605469 35.792969 C 6.605469 35.691406 6.65625 35.640625 6.757812 35.640625 C 6.859375 35.640625 6.910156 35.691406 6.910156 35.792969 Z M 6.910156 35.792969 " fill-opacity="1" fill-rule="nonzero"/><path fill="#000000" d="M 5.808594 35.066406 C 5.808594 35.167969 5.757812 35.21875 5.65625 35.21875 C 5.554688 35.21875 5.503906 35.167969 5.503906 35.066406 C 5.503906 34.964844 5.554688 34.914062 5.65625 34.914062 C 5.757812 34.914062 5.808594 34.964844 5.808594 35.066406 Z M 5.808594 35.066406 " fill-opacity="1" fill-rule="nonzero"/><g clip-path="url(#cda3b75dcf)"><path fill="#000000" d="M 4.273438 32.917969 C 4.273438 33.019531 4.222656 33.070312 4.121094 33.070312 C 4.019531 33.070312 3.96875 33.019531 3.96875 32.917969 C 3.96875 32.816406 4.019531 32.765625 4.121094 32.765625 C 4.222656 32.765625 4.273438 32.816406 4.273438 32.917969 Z M 4.273438 32.917969 " fill-opacity="1" fill-rule="nonzero"/></g><path fill="#000000" d="M 4.929688 34.0625 C 4.929688 34.164062 4.878906 34.214844 4.777344 34.214844 C 4.675781 34.214844 4.625 34.164062 4.625 34.0625 C 4.625 33.960938 4.675781 33.910156 4.777344 33.910156 C 4.878906 33.910156 4.929688 33.960938 4.929688 34.0625 Z M 4.929688 34.0625 " fill-opacity="1" fill-rule="nonzero"/><g clip-path="url(#30592f5fdd)"><path fill="#000000" d="M 3.96875 31.632812 C 3.96875 31.734375 3.917969 31.785156 3.816406 31.785156 C 3.714844 31.785156 3.664062 31.734375 3.664062 31.632812 C 3.664062 31.53125 3.714844 31.480469 3.816406 31.480469 C 3.917969 31.480469 3.96875 31.53125 3.96875 31.632812 Z M 3.96875 31.632812 " fill-opacity="1" fill-rule="nonzero"/></g><g clip-path="url(#5c13bf4de8)"><path fill="#000000" d="M 14.109375 31.824219 C 14.109375 31.925781 14.058594 31.976562 13.957031 31.976562 C 13.859375 31.976562 13.808594 31.925781 13.808594 31.824219 C 13.808594 31.71875 13.859375 31.667969 13.957031 31.667969 C 14.058594 31.667969 14.109375 31.71875 14.109375 31.824219 Z M 14.109375 31.824219 " fill-opacity="1" fill-rule="nonzero"/></g><path fill="#000000" d="M 13.042969 34.300781 C 13.042969 34.402344 12.992188 34.453125 12.890625 34.453125 C 12.789062 34.453125 12.738281 34.402344 12.738281 34.300781 C 12.738281 34.199219 12.789062 34.148438 12.890625 34.148438 C 12.992188 34.148438 13.042969 34.199219 13.042969 34.300781 Z M 13.042969 34.300781 " fill-opacity="1" fill-rule="nonzero"/><path fill="#000000" d="M 13.699219 33.199219 C 13.699219 33.300781 13.648438 33.351562 13.546875 33.351562 C 13.445312 33.351562 13.394531 33.300781 13.394531 33.199219 C 13.394531 33.097656 13.445312 33.046875 13.546875 33.046875 C 13.648438 33.046875 13.699219 33.097656 13.699219 33.199219 Z M 13.699219 33.199219 " fill-opacity="1" fill-rule="nonzero"/><g clip-path="url(#8e580b28d9)"><path fill="#000000" d="M 12.117188 28.097656 C 11.285156 27.269531 10.183594 26.8125 9.011719 26.8125 C 7.839844 26.8125 6.734375 27.269531 5.90625 28.097656 C 5.078125 28.925781 4.621094 30.027344 4.621094 31.203125 C 4.621094 32.375 5.078125 33.476562 5.90625 34.304688 C 6.734375 35.136719 7.839844 35.589844 9.011719 35.589844 C 10.183594 35.589844 11.285156 35.132812 12.113281 34.304688 C 12.945312 33.476562 13.402344 32.375 13.402344 31.203125 C 13.402344 30.027344 12.945312 28.925781 12.113281 28.097656 Z M 9.011719 26.914062 C 10.90625 26.914062 12.515625 28.148438 13.082031 29.851562 L 11.535156 29.851562 L 11.75 29.726562 L 11.488281 29.851562 L 11.171875 29.851562 L 11.632812 29.527344 L 11.078125 29.851562 L 10.960938 29.851562 L 11.542969 29.394531 L 10.851562 29.851562 L 10.703125 29.851562 L 11.402344 29.214844 L 10.574219 29.851562 L 10.546875 29.851562 L 11.300781 29.09375 L 10.414062 29.851562 L 10.351562 29.851562 L 11.136719 28.933594 L 10.296875 29.769531 L 11.019531 28.828125 L 10.085938 29.851562 L 10.070312 29.851562 L 10.839844 28.683594 L 10.105469 29.621094 L 10.707031 28.597656 L 9.859375 29.800781 L 10.511719 28.476562 L 9.902344 29.496094 L 10.371094 28.40625 L 9.679688 29.707031 L 10.160156 28.3125 L 9.683594 29.398438 L 10.011719 28.257812 L 9.488281 29.636719 L 9.792969 28.191406 L 9.453125 29.328125 L 9.640625 28.15625 L 9.289062 29.589844 L 9.414062 28.117188 L 9.21875 29.289062 L 9.253906 28.101562 L 9.085938 29.566406 L 9.027344 28.09375 L 8.976562 29.277344 L 8.867188 28.09375 L 8.878906 29.28125 L 8.710938 28.105469 L 8.800781 29.578125 L 8.484375 28.136719 L 8.640625 29.3125 L 8.328125 28.167969 L 8.601562 29.617188 L 8.105469 28.226562 L 8.410156 29.375 L 7.957031 28.277344 L 8.40625 29.679688 L 7.742188 28.363281 L 8.1875 29.460938 L 7.601562 28.429688 L 8.222656 29.765625 L 7.398438 28.542969 L 7.976562 29.578125 L 7.265625 28.628906 L 8.035156 29.855469 L 8.027344 29.855469 L 7.082031 28.761719 L 7.785156 29.71875 L 6.960938 28.863281 L 7.765625 29.851562 L 7.722656 29.851562 L 6.792969 29.019531 L 7.582031 29.851562 L 7.570312 29.851562 L 6.6875 29.136719 L 7.4375 29.851562 L 7.316406 29.851562 L 6.539062 29.3125 L 7.195312 29.851562 L 7.109375 29.851562 L 6.449219 29.441406 L 7.003906 29.851562 L 6.742188 29.851562 L 6.324219 29.636719 L 6.667969 29.851562 L 6.421875 29.851562 L 6.25 29.773438 L 6.390625 29.851562 L 4.941406 29.851562 C 5.507812 28.148438 7.117188 26.914062 9.011719 26.914062 Z M 9.011719 35.488281 C 7.152344 35.488281 5.566406 34.300781 4.972656 32.648438 L 6.46875 32.648438 L 6.3125 32.746094 L 6.503906 32.648438 L 6.832031 32.648438 L 6.433594 32.941406 L 6.90625 32.648438 L 7.039062 32.648438 L 6.523438 33.070312 L 7.132812 32.648438 L 7.296875 32.648438 L 6.667969 33.25 L 7.410156 32.648438 L 7.453125 32.648438 L 6.777344 33.367188 L 7.574219 32.648438 L 7.65625 32.648438 L 6.941406 33.523438 L 7.761719 32.667969 L 7.0625 33.625 L 7.910156 32.648438 L 7.941406 32.648438 L 7.246094 33.765625 L 7.953125 32.8125 L 7.378906 33.847656 L 8.183594 32.648438 L 8.1875 32.648438 L 7.578125 33.960938 L 8.164062 32.929688 L 7.722656 34.03125 L 8.378906 32.714844 L 7.933594 34.121094 L 8.382812 33.023438 L 8.082031 34.171875 L 8.574219 32.78125 L 8.304688 34.230469 L 8.617188 33.085938 L 8.460938 34.261719 L 8.773438 32.820312 L 8.6875 34.296875 L 8.851562 33.121094 L 8.84375 34.308594 L 8.976562 32.839844 L 9.074219 34.3125 L 9.09375 33.125 L 9.230469 34.304688 L 9.179688 32.832031 L 9.460938 34.277344 L 9.332031 33.101562 L 9.617188 34.253906 L 9.382812 32.796875 L 9.839844 34.199219 L 9.566406 33.042969 L 9.988281 34.152344 L 9.578125 32.738281 L 10.207031 34.074219 L 9.789062 32.960938 L 10.347656 34.007812 L 9.761719 32.65625 L 10.554688 33.902344 L 10.003906 32.851562 L 10.6875 33.820312 L 9.996094 32.644531 L 10.015625 32.644531 L 10.878906 33.6875 L 10.199219 32.714844 L 11 33.589844 L 10.269531 32.644531 L 10.332031 32.644531 L 11.171875 33.4375 L 10.460938 32.644531 L 10.484375 32.644531 L 11.28125 33.324219 L 10.605469 32.644531 L 10.742188 32.644531 L 11.433594 33.152344 L 10.851562 32.644531 L 10.949219 32.644531 L 11.527344 33.027344 L 11.042969 32.644531 L 11.316406 32.644531 L 11.65625 32.835938 L 11.375 32.644531 L 11.628906 32.644531 L 11.734375 32.699219 L 11.648438 32.644531 L 13.046875 32.644531 C 12.453125 34.300781 10.867188 35.488281 9.011719 35.488281 Z M 4.9375 32.546875 C 4.796875 32.121094 4.722656 31.671875 4.722656 31.203125 C 4.722656 30.765625 4.789062 30.347656 4.90625 29.953125 L 13.113281 29.953125 C 13.234375 30.347656 13.300781 30.765625 13.300781 31.203125 C 13.300781 31.671875 13.222656 32.121094 13.085938 32.546875 Z M 4.9375 32.546875 " fill-opacity="1" fill-rule="nonzero"/><path fill="#000000" d="M 12.191406 28.019531 C 11.34375 27.167969 10.214844 26.703125 9.011719 26.703125 C 7.808594 26.703125 6.679688 27.167969 5.828125 28.019531 C 4.980469 28.871094 4.511719 30 4.511719 31.203125 C 4.511719 32.402344 4.980469 33.535156 5.828125 34.382812 C 6.679688 35.234375 7.808594 35.703125 9.011719 35.703125 C 10.214844 35.703125 11.34375 35.234375 12.191406 34.382812 C 13.042969 33.535156 13.511719 32.402344 13.511719 31.203125 C 13.511719 30 13.042969 28.871094 12.191406 28.019531 Z M 9.011719 35.683594 C 6.539062 35.683594 4.527344 33.671875 4.527344 31.203125 C 4.527344 28.730469 6.539062 26.71875 9.011719 26.71875 C 11.484375 26.71875 13.496094 28.730469 13.496094 31.203125 C 13.496094 33.671875 11.484375 35.683594 9.011719 35.683594 Z M 9.011719 35.683594 " fill-opacity="1" fill-rule="nonzero"/></g><g fill="#000000" fill-opacity="1"><g transform="translate(6.16802, 31.926061)"><g><path d="M 0.484375 0.0234375 C 0.789062 0.0234375 0.984375 -0.148438 0.992188 -0.417969 C 0.992188 -0.601562 0.925781 -0.730469 0.703125 -0.902344 C 0.644531 -0.953125 0.574219 -1.003906 0.5 -1.070312 C 0.390625 -1.160156 0.332031 -1.234375 0.332031 -1.363281 C 0.335938 -1.484375 0.410156 -1.570312 0.535156 -1.570312 C 0.597656 -1.566406 0.664062 -1.550781 0.703125 -1.523438 L 0.703125 -1.246094 L 0.921875 -1.246094 L 0.921875 -1.648438 C 0.835938 -1.710938 0.6875 -1.773438 0.539062 -1.777344 C 0.277344 -1.777344 0.101562 -1.601562 0.101562 -1.351562 C 0.101562 -1.167969 0.171875 -1.03125 0.351562 -0.886719 C 0.421875 -0.828125 0.488281 -0.769531 0.550781 -0.722656 C 0.699219 -0.601562 0.757812 -0.527344 0.757812 -0.414062 C 0.757812 -0.273438 0.660156 -0.183594 0.484375 -0.183594 C 0.347656 -0.183594 0.234375 -0.304688 0.199219 -0.359375 L 0.03125 -0.222656 C 0.0898438 -0.117188 0.246094 0.0234375 0.484375 0.0234375 Z M 0.484375 0.0234375 "/></g></g></g><g fill="#000000" fill-opacity="1"><g transform="translate(7.119899, 31.926061)"><g><path d="M 0.179688 0.00390625 L 0.417969 0.00390625 L 0.417969 -1.753906 L 0.179688 -1.753906 Z M 0.179688 0.00390625 "/></g></g></g><g fill="#000000" fill-opacity="1"><g transform="translate(7.570147, 31.926061)"><g><path d="M 0.617188 0.0234375 C 0.835938 0.0234375 0.992188 -0.0546875 1.085938 -0.15625 L 1.085938 -0.996094 L 0.601562 -0.996094 L 0.601562 -0.789062 L 0.847656 -0.789062 L 0.847656 -0.257812 C 0.847656 -0.253906 0.769531 -0.183594 0.617188 -0.183594 C 0.457031 -0.183594 0.378906 -0.257812 0.378906 -0.402344 L 0.378906 -1.351562 C 0.378906 -1.492188 0.460938 -1.570312 0.609375 -1.570312 C 0.675781 -1.570312 0.757812 -1.550781 0.816406 -1.527344 L 0.816406 -1.273438 L 1.035156 -1.273438 L 1.035156 -1.652344 C 0.945312 -1.707031 0.796875 -1.773438 0.613281 -1.777344 C 0.332031 -1.78125 0.140625 -1.609375 0.140625 -1.351562 L 0.140625 -0.398438 C 0.140625 -0.140625 0.332031 0.0234375 0.617188 0.0234375 Z M 0.617188 0.0234375 "/></g></g></g><g fill="#000000" fill-opacity="1"><g transform="translate(8.661504, 31.926061)"><g><path d="M 0.90625 -1.753906 L 0.90625 -0.75 L 0.925781 -0.417969 C 0.925781 -0.421875 0.878906 -0.648438 0.832031 -0.765625 L 0.441406 -1.753906 L 0.179688 -1.753906 L 0.179688 0 L 0.40625 0 L 0.40625 -1.050781 L 0.382812 -1.386719 C 0.386719 -1.382812 0.433594 -1.132812 0.488281 -1.003906 L 0.90625 0 L 1.136719 0 L 1.136719 -1.753906 Z M 0.90625 -1.753906 "/></g></g></g><g fill="#000000" fill-opacity="1"><g transform="translate(9.82872, 31.926061)"><g><path d="M 0.414062 -0.207031 L 0.414062 -0.800781 L 0.9375 -0.800781 L 0.9375 -1.011719 L 0.414062 -1.011719 L 0.414062 -1.546875 L 0.984375 -1.546875 L 0.984375 -1.753906 L 0.179688 -1.753906 L 0.179688 0 L 0.984375 0 L 0.984375 -0.207031 Z M 0.414062 -0.207031 "/></g></g></g><g fill="#000000" fill-opacity="1"><g transform="translate(10.748789, 31.926061)"><g><path d="M 1.054688 -1.753906 L 0.0546875 -1.753906 L 0.0546875 -1.546875 L 0.4375 -1.546875 L 0.4375 0 L 0.675781 0 L 0.675781 -1.546875 L 1.054688 -1.546875 Z M 1.054688 -1.753906 "/></g></g></g></svg>