<svg xmlns="http://www.w3.org/2000/svg" xmlns:xlink="http://www.w3.org/1999/xlink" width="250" zoomAndPan="magnify" viewBox="0 0 187.5 56.249996" height="75" preserveAspectRatio="xMidYMid meet" version="1.0"><defs><g/><clipPath id="id1"><path d="M 3.152344 1.800781 L 55.839844 1.800781 L 55.839844 54.492188 L 3.152344 54.492188 Z M 3.152344 1.800781 " clip-rule="nonzero"/></clipPath><clipPath id="id2"><path d="M 33 1.800781 L 35 1.800781 L 35 4 L 33 4 Z M 33 1.800781 " clip-rule="nonzero"/></clipPath><clipPath id="id3"><path d="M 25 1.800781 L 28 1.800781 L 28 4 L 25 4 Z M 25 1.800781 " clip-rule="nonzero"/></clipPath><clipPath id="id4"><path d="M 54 24 L 55.839844 24 L 55.839844 27 L 54 27 Z M 54 24 " clip-rule="nonzero"/></clipPath><clipPath id="id5"><path d="M 3.152344 30 L 5 30 L 5 32 L 3.152344 32 Z M 3.152344 30 " clip-rule="nonzero"/></clipPath><clipPath id="id6"><path d="M 3.152344 23 L 5 23 L 5 26 L 3.152344 26 Z M 3.152344 23 " clip-rule="nonzero"/></clipPath><clipPath id="id7"><path d="M 24 52 L 26 52 L 26 54.492188 L 24 54.492188 Z M 24 52 " clip-rule="nonzero"/></clipPath><clipPath id="id8"><path d="M 31 52 L 34 52 L 34 54.492188 L 31 54.492188 Z M 31 52 " clip-rule="nonzero"/></clipPath><clipPath id="id9"><path d="M 3.152344 30 L 5 30 L 5 32 L 3.152344 32 Z M 3.152344 30 " clip-rule="nonzero"/></clipPath><clipPath id="id10"><path d="M 54 31 L 55.839844 31 L 55.839844 33 L 54 33 Z M 54 31 " clip-rule="nonzero"/></clipPath><clipPath id="id11"><path d="M 7.667969 5.566406 L 51.453125 5.566406 L 51.453125 49.351562 L 7.667969 49.351562 Z M 7.667969 5.566406 " clip-rule="nonzero"/></clipPath></defs><g clip-path="url(#id1)"><path fill="#ffffff" d="M 55.738281 28.238281 C 55.738281 26.851562 53.695312 26.691406 53.003906 25.394531 C 53.253906 23.867188 55.339844 23.214844 54.992188 21.824219 C 54.648438 20.453125 52.554688 20.839844 51.59375 19.671875 C 51.332031 18.066406 53.308594 16.878906 52.601562 15.585938 C 51.898438 14.300781 49.851562 15.320312 48.640625 14.257812 C 48.582031 14.179688 48.527344 14.101562 48.46875 14.023438 L 48.535156 14.09375 C 47.488281 12.570312 49.316406 10.734375 48.214844 9.628906 C 47.238281 8.644531 45.679688 9.984375 44.28125 9.558594 C 43.382812 8.300781 44.394531 6.355469 43.167969 5.621094 C 41.957031 4.894531 40.753906 6.65625 39.25 6.511719 C 37.9375 5.5625 38.496094 3.316406 37.085938 2.90625 C 35.660156 2.492188 34.933594 4.730469 33.28125 4.78125 C 33.164062 4.765625 33.042969 4.746094 32.925781 4.730469 L 33.160156 4.738281 C 31.347656 4.402344 31.34375 1.808594 29.789062 1.808594 C 28.402344 1.808594 28.246094 3.859375 26.953125 4.550781 C 25.433594 4.296875 24.78125 2.207031 23.394531 2.554688 C 22.027344 2.902344 22.414062 5 21.253906 5.964844 C 19.652344 6.226562 18.46875 4.246094 17.179688 4.953125 C 15.828125 5.699219 17.035156 7.945312 15.664062 9.125 C 15.550781 9.207031 15.4375 9.292969 15.328125 9.382812 L 15.699219 9.035156 C 14.179688 10.085938 12.347656 8.253906 11.246094 9.355469 C 10.269531 10.339844 11.601562 11.902344 11.175781 13.304688 C 9.921875 14.207031 7.988281 13.191406 7.253906 14.421875 C 6.53125 15.636719 8.285156 16.847656 8.140625 18.355469 C 7.195312 19.675781 4.960938 19.113281 4.550781 20.527344 C 4.117188 22.03125 6.597656 22.757812 6.410156 24.597656 C 6.402344 24.710938 6.394531 24.792969 6.390625 24.855469 C 6.375 24.964844 6.363281 25.074219 6.347656 25.183594 L 6.375 24.46875 C 6.042969 26.285156 3.453125 26.292969 3.453125 27.855469 C 3.453125 29.242188 5.5 29.402344 6.1875 30.699219 C 5.9375 32.226562 3.851562 32.878906 4.199219 34.269531 C 4.546875 35.640625 6.636719 35.253906 7.597656 36.421875 C 7.859375 38.027344 5.882812 39.214844 6.589844 40.507812 C 7.339844 41.878906 9.609375 40.632812 10.773438 42.0625 C 10.863281 42.175781 10.929688 42.25 10.976562 42.296875 C 11.039062 42.382812 11.101562 42.464844 11.167969 42.546875 L 10.65625 41.996094 C 11.703125 43.519531 9.875 45.359375 10.976562 46.464844 C 11.953125 47.445312 13.511719 46.109375 14.910156 46.535156 C 15.808594 47.792969 14.796875 49.738281 16.023438 50.472656 C 17.234375 51.199219 18.4375 49.4375 19.941406 49.582031 C 21.253906 50.53125 20.695312 52.773438 22.105469 53.1875 C 23.601562 53.621094 24.328125 51.132812 26.164062 51.316406 C 26.1875 51.320312 26.210938 51.324219 26.234375 51.324219 C 26.351562 51.34375 26.472656 51.359375 26.589844 51.375 L 26.03125 51.355469 C 27.84375 51.6875 27.847656 54.285156 29.40625 54.285156 C 30.789062 54.285156 30.945312 52.234375 32.238281 51.542969 C 33.757812 51.796875 34.410156 53.886719 35.796875 53.539062 C 37.164062 53.191406 36.777344 51.089844 37.9375 50.125 C 39.539062 49.863281 40.722656 51.847656 42.011719 51.140625 C 43.328125 50.414062 42.21875 48.269531 43.421875 47.066406 C 43.523438 46.992188 43.628906 46.914062 43.730469 46.835938 L 43.492188 47.058594 C 45.011719 46.007812 46.84375 47.839844 47.945312 46.738281 C 48.921875 45.753906 47.589844 44.191406 48.015625 42.785156 C 49.269531 41.886719 51.203125 42.902344 51.9375 41.671875 C 52.660156 40.457031 50.90625 39.246094 51.050781 37.738281 C 51.996094 36.417969 54.230469 36.980469 54.640625 35.5625 C 55.050781 34.152344 52.871094 33.421875 52.773438 31.800781 C 52.789062 31.703125 52.804688 31.605469 52.820312 31.503906 L 52.8125 31.625 C 53.148438 29.804688 55.734375 29.800781 55.734375 28.238281 Z M 29.597656 49.613281 C 17.730469 49.613281 8.109375 39.957031 8.109375 28.046875 C 8.109375 16.132812 17.726562 6.476562 29.59375 6.476562 C 41.460938 6.476562 51.082031 16.132812 51.082031 28.046875 C 51.082031 39.957031 41.460938 49.613281 29.59375 49.613281 Z M 29.597656 49.613281 " fill-opacity="1" fill-rule="nonzero"/></g><path fill="#ffffff" d="M 15.097656 7.441406 C 15.097656 7.652344 15.023438 7.832031 14.875 7.984375 C 14.726562 8.132812 14.546875 8.207031 14.335938 8.207031 C 14.125 8.207031 13.945312 8.132812 13.796875 7.984375 C 13.644531 7.832031 13.570312 7.652344 13.570312 7.441406 C 13.570312 7.230469 13.644531 7.050781 13.796875 6.898438 C 13.945312 6.75 14.125 6.675781 14.335938 6.675781 C 14.546875 6.675781 14.726562 6.75 14.875 6.898438 C 15.023438 7.050781 15.097656 7.230469 15.097656 7.441406 Z M 15.097656 7.441406 " fill-opacity="1" fill-rule="nonzero"/><path fill="#ffffff" d="M 21.113281 3.980469 C 21.113281 4.195312 21.039062 4.375 20.886719 4.523438 C 20.738281 4.675781 20.558594 4.75 20.347656 4.75 C 20.136719 4.75 19.957031 4.675781 19.808594 4.523438 C 19.660156 4.375 19.585938 4.195312 19.585938 3.980469 C 19.585938 3.769531 19.660156 3.589844 19.808594 3.441406 C 19.957031 3.289062 20.136719 3.214844 20.347656 3.214844 C 20.558594 3.214844 20.738281 3.289062 20.886719 3.441406 C 21.039062 3.589844 21.113281 3.769531 21.113281 3.980469 Z M 21.113281 3.980469 " fill-opacity="1" fill-rule="nonzero"/><g clip-path="url(#id2)"><path fill="#ffffff" d="M 34.542969 2.574219 C 34.542969 2.785156 34.464844 2.964844 34.316406 3.113281 C 34.167969 3.265625 33.988281 3.339844 33.777344 3.339844 C 33.566406 3.339844 33.386719 3.265625 33.238281 3.113281 C 33.089844 2.964844 33.015625 2.785156 33.015625 2.574219 C 33.015625 2.363281 33.089844 2.179688 33.238281 2.03125 C 33.386719 1.882812 33.566406 1.808594 33.777344 1.808594 C 33.988281 1.808594 34.167969 1.882812 34.316406 2.03125 C 34.464844 2.179688 34.542969 2.363281 34.542969 2.574219 Z M 34.542969 2.574219 " fill-opacity="1" fill-rule="nonzero"/></g><g clip-path="url(#id3)"><path fill="#ffffff" d="M 27.351562 2.574219 C 27.351562 2.785156 27.273438 2.964844 27.125 3.113281 C 26.976562 3.265625 26.796875 3.339844 26.585938 3.339844 C 26.375 3.339844 26.195312 3.265625 26.046875 3.113281 C 25.898438 2.964844 25.824219 2.785156 25.824219 2.574219 C 25.824219 2.363281 25.898438 2.179688 26.046875 2.03125 C 26.195312 1.882812 26.375 1.808594 26.585938 1.808594 C 26.796875 1.808594 26.976562 1.882812 27.125 2.03125 C 27.273438 2.179688 27.351562 2.363281 27.351562 2.574219 Z M 27.351562 2.574219 " fill-opacity="1" fill-rule="nonzero"/></g><path fill="#ffffff" d="M 40.839844 4.503906 C 40.839844 4.714844 40.765625 4.898438 40.617188 5.046875 C 40.46875 5.195312 40.289062 5.269531 40.078125 5.269531 C 39.867188 5.269531 39.6875 5.195312 39.535156 5.046875 C 39.386719 4.898438 39.3125 4.714844 39.3125 4.503906 C 39.3125 4.292969 39.386719 4.113281 39.535156 3.964844 C 39.6875 3.8125 39.867188 3.738281 40.078125 3.738281 C 40.289062 3.738281 40.46875 3.8125 40.617188 3.964844 C 40.765625 4.113281 40.839844 4.292969 40.839844 4.503906 Z M 40.839844 4.503906 " fill-opacity="1" fill-rule="nonzero"/><path fill="#ffffff" d="M 46.371094 8.136719 C 46.371094 8.351562 46.296875 8.53125 46.148438 8.679688 C 46 8.828125 45.820312 8.90625 45.609375 8.90625 C 45.398438 8.90625 45.21875 8.828125 45.066406 8.679688 C 44.917969 8.53125 44.84375 8.351562 44.84375 8.136719 C 44.84375 7.925781 44.917969 7.746094 45.066406 7.597656 C 45.21875 7.445312 45.398438 7.371094 45.609375 7.371094 C 45.820312 7.371094 46 7.445312 46.148438 7.597656 C 46.296875 7.746094 46.371094 7.925781 46.371094 8.136719 Z M 46.371094 8.136719 " fill-opacity="1" fill-rule="nonzero"/><path fill="#ffffff" d="M 54.085938 18.929688 C 54.085938 19.140625 54.011719 19.320312 53.859375 19.46875 C 53.710938 19.621094 53.53125 19.695312 53.320312 19.695312 C 53.109375 19.695312 52.929688 19.621094 52.78125 19.46875 C 52.632812 19.320312 52.558594 19.140625 52.558594 18.929688 C 52.558594 18.714844 52.632812 18.535156 52.78125 18.386719 C 52.929688 18.238281 53.109375 18.160156 53.320312 18.160156 C 53.53125 18.160156 53.710938 18.238281 53.859375 18.386719 C 54.011719 18.535156 54.085938 18.714844 54.085938 18.929688 Z M 54.085938 18.929688 " fill-opacity="1" fill-rule="nonzero"/><path fill="#ffffff" d="M 50.777344 13.1875 C 50.777344 13.398438 50.703125 13.578125 50.554688 13.730469 C 50.40625 13.878906 50.226562 13.953125 50.015625 13.953125 C 49.804688 13.953125 49.625 13.878906 49.476562 13.730469 C 49.328125 13.578125 49.253906 13.398438 49.253906 13.1875 C 49.253906 12.976562 49.328125 12.792969 49.476562 12.644531 C 49.625 12.496094 49.804688 12.421875 50.015625 12.421875 C 50.226562 12.421875 50.40625 12.496094 50.554688 12.644531 C 50.703125 12.792969 50.777344 12.976562 50.777344 13.1875 Z M 50.777344 13.1875 " fill-opacity="1" fill-rule="nonzero"/><g clip-path="url(#id4)"><path fill="#ffffff" d="M 55.613281 25.367188 C 55.613281 25.578125 55.535156 25.757812 55.386719 25.910156 C 55.238281 26.058594 55.058594 26.132812 54.847656 26.132812 C 54.636719 26.132812 54.457031 26.058594 54.308594 25.910156 C 54.160156 25.757812 54.085938 25.578125 54.085938 25.367188 C 54.085938 25.15625 54.160156 24.976562 54.308594 24.824219 C 54.457031 24.675781 54.636719 24.601562 54.847656 24.601562 C 55.058594 24.601562 55.238281 24.675781 55.386719 24.824219 C 55.535156 24.976562 55.613281 25.15625 55.613281 25.367188 Z M 55.613281 25.367188 " fill-opacity="1" fill-rule="nonzero"/></g><g clip-path="url(#id5)"><path fill="#ffffff" d="M 4.742188 31.109375 C 4.742188 31.320312 4.667969 31.5 4.515625 31.652344 C 4.367188 31.800781 4.1875 31.875 3.976562 31.875 C 3.765625 31.875 3.585938 31.800781 3.4375 31.652344 C 3.289062 31.5 3.214844 31.320312 3.214844 31.109375 C 3.214844 30.898438 3.289062 30.71875 3.4375 30.566406 C 3.585938 30.417969 3.765625 30.34375 3.976562 30.34375 C 4.1875 30.34375 4.367188 30.417969 4.515625 30.566406 C 4.667969 30.71875 4.742188 30.898438 4.742188 31.109375 Z M 4.742188 31.109375 " fill-opacity="1" fill-rule="nonzero"/></g><g clip-path="url(#id6)"><path fill="#ffffff" d="M 4.6875 24.421875 C 4.6875 24.632812 4.613281 24.816406 4.460938 24.964844 C 4.3125 25.113281 4.132812 25.1875 3.921875 25.1875 C 3.710938 25.1875 3.53125 25.113281 3.382812 24.964844 C 3.234375 24.816406 3.160156 24.632812 3.160156 24.421875 C 3.160156 24.210938 3.234375 24.03125 3.382812 23.882812 C 3.53125 23.730469 3.710938 23.65625 3.921875 23.65625 C 4.132812 23.65625 4.3125 23.730469 4.460938 23.882812 C 4.613281 24.03125 4.6875 24.210938 4.6875 24.421875 Z M 4.6875 24.421875 " fill-opacity="1" fill-rule="nonzero"/></g><path fill="#ffffff" d="M 10.042969 11.984375 C 10.042969 12.195312 9.96875 12.375 9.820312 12.527344 C 9.671875 12.675781 9.492188 12.75 9.28125 12.75 C 9.070312 12.75 8.890625 12.675781 8.742188 12.527344 C 8.59375 12.375 8.519531 12.195312 8.519531 11.984375 C 8.519531 11.773438 8.59375 11.59375 8.742188 11.441406 C 8.890625 11.292969 9.070312 11.21875 9.28125 11.21875 C 9.492188 11.21875 9.671875 11.292969 9.820312 11.441406 C 9.96875 11.59375 10.042969 11.773438 10.042969 11.984375 Z M 10.042969 11.984375 " fill-opacity="1" fill-rule="nonzero"/><path fill="#ffffff" d="M 6.753906 17.507812 C 6.753906 17.722656 6.679688 17.902344 6.53125 18.050781 C 6.382812 18.199219 6.203125 18.277344 5.992188 18.277344 C 5.78125 18.277344 5.601562 18.199219 5.453125 18.050781 C 5.300781 17.902344 5.226562 17.722656 5.226562 17.507812 C 5.226562 17.296875 5.300781 17.117188 5.453125 16.96875 C 5.601562 16.816406 5.78125 16.742188 5.992188 16.742188 C 6.203125 16.742188 6.382812 16.816406 6.53125 16.96875 C 6.679688 17.117188 6.753906 17.296875 6.753906 17.507812 Z M 6.753906 17.507812 " fill-opacity="1" fill-rule="nonzero"/><path fill="#ffffff" d="M 45.410156 48.863281 C 45.410156 49.074219 45.335938 49.253906 45.183594 49.40625 C 45.035156 49.554688 44.855469 49.628906 44.644531 49.628906 C 44.433594 49.628906 44.253906 49.554688 44.105469 49.40625 C 43.957031 49.253906 43.882812 49.074219 43.882812 48.863281 C 43.882812 48.652344 43.957031 48.46875 44.105469 48.320312 C 44.253906 48.171875 44.433594 48.097656 44.644531 48.097656 C 44.855469 48.097656 45.035156 48.171875 45.183594 48.320312 C 45.335938 48.46875 45.410156 48.652344 45.410156 48.863281 Z M 45.410156 48.863281 " fill-opacity="1" fill-rule="nonzero"/><path fill="#ffffff" d="M 39.394531 52.320312 C 39.394531 52.53125 39.320312 52.714844 39.171875 52.863281 C 39.023438 53.011719 38.84375 53.085938 38.632812 53.085938 C 38.421875 53.085938 38.242188 53.011719 38.09375 52.863281 C 37.941406 52.714844 37.867188 52.53125 37.867188 52.320312 C 37.867188 52.109375 37.941406 51.929688 38.09375 51.78125 C 38.242188 51.628906 38.421875 51.554688 38.632812 51.554688 C 38.84375 51.554688 39.023438 51.628906 39.171875 51.78125 C 39.320312 51.929688 39.394531 52.109375 39.394531 52.320312 Z M 39.394531 52.320312 " fill-opacity="1" fill-rule="nonzero"/><g clip-path="url(#id7)"><path fill="#ffffff" d="M 25.964844 53.730469 C 25.964844 53.941406 25.890625 54.121094 25.742188 54.273438 C 25.59375 54.421875 25.414062 54.496094 25.203125 54.496094 C 24.992188 54.496094 24.8125 54.421875 24.664062 54.273438 C 24.515625 54.121094 24.4375 53.941406 24.4375 53.730469 C 24.4375 53.519531 24.515625 53.339844 24.664062 53.1875 C 24.8125 53.039062 24.992188 52.964844 25.203125 52.964844 C 25.414062 52.964844 25.59375 53.039062 25.742188 53.1875 C 25.890625 53.339844 25.964844 53.519531 25.964844 53.730469 Z M 25.964844 53.730469 " fill-opacity="1" fill-rule="nonzero"/></g><g clip-path="url(#id8)"><path fill="#ffffff" d="M 33.15625 53.730469 C 33.15625 53.941406 33.082031 54.121094 32.933594 54.273438 C 32.785156 54.421875 32.605469 54.496094 32.394531 54.496094 C 32.183594 54.496094 32.003906 54.421875 31.855469 54.273438 C 31.707031 54.121094 31.632812 53.941406 31.632812 53.730469 C 31.632812 53.519531 31.707031 53.339844 31.855469 53.1875 C 32.003906 53.039062 32.183594 52.964844 32.394531 52.964844 C 32.605469 52.964844 32.785156 53.039062 32.933594 53.1875 C 33.082031 53.339844 33.15625 53.519531 33.15625 53.730469 Z M 33.15625 53.730469 " fill-opacity="1" fill-rule="nonzero"/></g><path fill="#ffffff" d="M 19.667969 51.796875 C 19.667969 52.011719 19.59375 52.191406 19.445312 52.339844 C 19.292969 52.492188 19.113281 52.566406 18.902344 52.566406 C 18.691406 52.566406 18.511719 52.492188 18.363281 52.339844 C 18.214844 52.191406 18.140625 52.011719 18.140625 51.796875 C 18.140625 51.585938 18.214844 51.40625 18.363281 51.257812 C 18.511719 51.105469 18.691406 51.03125 18.902344 51.03125 C 19.113281 51.03125 19.292969 51.105469 19.445312 51.257812 C 19.59375 51.40625 19.667969 51.585938 19.667969 51.796875 Z M 19.667969 51.796875 " fill-opacity="1" fill-rule="nonzero"/><path fill="#ffffff" d="M 14.136719 48.164062 C 14.136719 48.378906 14.0625 48.558594 13.914062 48.707031 C 13.761719 48.855469 13.582031 48.933594 13.371094 48.933594 C 13.160156 48.933594 12.980469 48.855469 12.832031 48.707031 C 12.683594 48.558594 12.609375 48.378906 12.609375 48.164062 C 12.609375 47.953125 12.683594 47.773438 12.832031 47.625 C 12.980469 47.472656 13.160156 47.398438 13.371094 47.398438 C 13.582031 47.398438 13.761719 47.472656 13.914062 47.625 C 14.0625 47.773438 14.136719 47.953125 14.136719 48.164062 Z M 14.136719 48.164062 " fill-opacity="1" fill-rule="nonzero"/><path fill="#ffffff" d="M 6.421875 37.375 C 6.421875 37.585938 6.347656 37.769531 6.199219 37.917969 C 6.050781 38.066406 5.871094 38.140625 5.660156 38.140625 C 5.449219 38.140625 5.269531 38.066406 5.121094 37.917969 C 4.96875 37.769531 4.894531 37.585938 4.894531 37.375 C 4.894531 37.164062 4.96875 36.984375 5.121094 36.832031 C 5.269531 36.683594 5.449219 36.609375 5.660156 36.609375 C 5.871094 36.609375 6.050781 36.683594 6.199219 36.832031 C 6.347656 36.984375 6.421875 37.164062 6.421875 37.375 Z M 6.421875 37.375 " fill-opacity="1" fill-rule="nonzero"/><path fill="#ffffff" d="M 9.726562 43.117188 C 9.726562 43.328125 9.652344 43.507812 9.503906 43.660156 C 9.355469 43.808594 9.175781 43.882812 8.964844 43.882812 C 8.753906 43.882812 8.574219 43.808594 8.425781 43.660156 C 8.277344 43.507812 8.203125 43.328125 8.203125 43.117188 C 8.203125 42.90625 8.277344 42.726562 8.425781 42.574219 C 8.574219 42.425781 8.753906 42.351562 8.964844 42.351562 C 9.175781 42.351562 9.355469 42.425781 9.503906 42.574219 C 9.652344 42.726562 9.726562 42.90625 9.726562 43.117188 Z M 9.726562 43.117188 " fill-opacity="1" fill-rule="nonzero"/><g clip-path="url(#id9)"><path fill="#ffffff" d="M 4.894531 30.9375 C 4.894531 31.148438 4.820312 31.328125 4.671875 31.480469 C 4.523438 31.628906 4.34375 31.703125 4.132812 31.703125 C 3.921875 31.703125 3.742188 31.628906 3.59375 31.480469 C 3.445312 31.328125 3.371094 31.148438 3.371094 30.9375 C 3.371094 30.726562 3.445312 30.542969 3.59375 30.394531 C 3.742188 30.246094 3.921875 30.171875 4.132812 30.171875 C 4.34375 30.171875 4.523438 30.246094 4.671875 30.394531 C 4.820312 30.542969 4.894531 30.726562 4.894531 30.9375 Z M 4.894531 30.9375 " fill-opacity="1" fill-rule="nonzero"/></g><g clip-path="url(#id10)"><path fill="#ffffff" d="M 55.820312 31.882812 C 55.820312 32.09375 55.746094 32.273438 55.597656 32.421875 C 55.449219 32.574219 55.269531 32.648438 55.058594 32.648438 C 54.847656 32.648438 54.667969 32.574219 54.519531 32.421875 C 54.367188 32.273438 54.292969 32.09375 54.292969 31.882812 C 54.292969 31.667969 54.367188 31.488281 54.519531 31.339844 C 54.667969 31.191406 54.847656 31.113281 55.058594 31.113281 C 55.269531 31.113281 55.449219 31.191406 55.597656 31.339844 C 55.746094 31.488281 55.820312 31.667969 55.820312 31.882812 Z M 55.820312 31.882812 " fill-opacity="1" fill-rule="nonzero"/></g><path fill="#ffffff" d="M 50.460938 44.320312 C 50.460938 44.53125 50.386719 44.710938 50.238281 44.859375 C 50.089844 45.011719 49.910156 45.085938 49.699219 45.085938 C 49.488281 45.085938 49.308594 45.011719 49.160156 44.859375 C 49.011719 44.710938 48.9375 44.53125 48.9375 44.320312 C 48.9375 44.109375 49.011719 43.925781 49.160156 43.777344 C 49.308594 43.628906 49.488281 43.554688 49.699219 43.554688 C 49.910156 43.554688 50.089844 43.628906 50.238281 43.777344 C 50.386719 43.925781 50.460938 44.109375 50.460938 44.320312 Z M 50.460938 44.320312 " fill-opacity="1" fill-rule="nonzero"/><path fill="#ffffff" d="M 53.753906 38.792969 C 53.753906 39.003906 53.679688 39.1875 53.527344 39.335938 C 53.378906 39.484375 53.199219 39.558594 52.988281 39.558594 C 52.777344 39.558594 52.597656 39.484375 52.449219 39.335938 C 52.300781 39.1875 52.226562 39.003906 52.226562 38.792969 C 52.226562 38.582031 52.300781 38.402344 52.449219 38.253906 C 52.597656 38.101562 52.777344 38.027344 52.988281 38.027344 C 53.199219 38.027344 53.378906 38.101562 53.527344 38.253906 C 53.679688 38.402344 53.753906 38.582031 53.753906 38.792969 Z M 53.753906 38.792969 " fill-opacity="1" fill-rule="nonzero"/><g clip-path="url(#id11)"><path fill="#ffffff" d="M 45.929688 12.394531 C 41.691406 8.15625 36.054688 5.820312 30.0625 5.820312 C 24.066406 5.820312 18.429688 8.15625 14.191406 12.394531 C 9.953125 16.632812 7.617188 22.269531 7.617188 28.265625 C 7.617188 34.261719 9.953125 39.894531 14.191406 44.132812 C 18.429688 48.371094 24.066406 50.707031 30.058594 50.707031 C 36.054688 50.707031 41.691406 48.371094 45.929688 44.132812 C 50.167969 39.894531 52.503906 34.257812 52.503906 28.265625 C 52.503906 22.269531 50.167969 16.632812 45.929688 12.394531 Z M 30.0625 6.339844 C 39.742188 6.339844 47.976562 12.648438 50.875 21.367188 L 42.96875 21.367188 L 44.054688 20.714844 L 42.734375 21.367188 L 41.097656 21.367188 L 43.457031 19.703125 L 40.632812 21.367188 L 40.035156 21.367188 L 43.007812 19.035156 L 39.46875 21.367188 L 38.707031 21.367188 L 42.289062 18.105469 L 38.054688 21.367188 L 37.921875 21.367188 L 41.757812 17.496094 L 37.234375 21.367188 L 36.910156 21.367188 L 40.929688 16.664062 L 36.625 20.9375 L 40.328125 16.128906 L 35.558594 21.371094 L 35.472656 21.371094 L 39.402344 15.402344 L 35.664062 20.175781 L 38.738281 14.945312 L 34.398438 21.105469 L 37.730469 14.339844 L 34.613281 19.542969 L 37.015625 13.96875 L 33.476562 20.621094 L 35.941406 13.496094 L 33.496094 19.046875 L 35.183594 13.21875 L 32.5 20.257812 L 34.058594 12.878906 L 32.320312 18.691406 L 33.273438 12.695312 L 31.484375 20.015625 L 32.113281 12.503906 L 31.113281 18.484375 L 31.3125 12.417969 L 30.445312 19.902344 L 30.136719 12.371094 L 29.886719 18.429688 L 29.332031 12.386719 L 29.390625 18.449219 L 28.527344 12.441406 L 28.984375 19.964844 L 27.363281 12.597656 L 28.171875 18.609375 L 26.570312 12.757812 L 27.957031 20.164062 L 25.433594 13.054688 L 26.988281 18.917969 L 24.667969 13.308594 L 26.964844 20.488281 L 23.578125 13.75 L 25.847656 19.375 L 22.851562 14.097656 L 26.019531 20.933594 L 21.824219 14.667969 L 24.773438 19.96875 L 21.144531 15.101562 L 25.066406 21.375 L 25.039062 21.375 L 20.195312 15.796875 L 23.785156 20.6875 L 19.578125 16.3125 L 23.699219 21.371094 L 23.464844 21.371094 L 18.722656 17.117188 L 22.746094 21.371094 L 22.699219 21.371094 L 18.171875 17.707031 L 22.007812 21.371094 L 21.402344 21.371094 L 17.425781 18.613281 L 20.777344 21.371094 L 20.34375 21.371094 L 16.953125 19.265625 L 19.792969 21.371094 L 18.449219 21.371094 L 16.324219 20.261719 L 18.082031 21.371094 L 16.820312 21.371094 L 15.9375 20.964844 L 16.65625 21.371094 L 9.246094 21.371094 C 12.144531 12.648438 20.378906 6.339844 30.0625 6.339844 Z M 30.0625 50.1875 C 20.5625 50.1875 12.460938 44.117188 9.417969 35.652344 L 17.066406 35.652344 L 16.261719 36.164062 L 17.238281 35.652344 L 18.914062 35.652344 L 16.882812 37.164062 L 19.304688 35.652344 L 19.972656 35.652344 L 17.351562 37.820312 L 20.460938 35.652344 L 21.300781 35.652344 L 18.089844 38.734375 L 21.878906 35.652344 L 22.09375 35.652344 L 18.636719 39.324219 L 22.714844 35.652344 L 23.125 35.652344 L 19.484375 40.140625 L 23.679688 35.761719 L 20.097656 40.660156 L 24.429688 35.652344 L 24.597656 35.652344 L 21.042969 41.363281 L 24.660156 36.492188 L 21.71875 41.800781 L 25.820312 35.652344 L 25.847656 35.652344 L 22.742188 42.378906 L 25.726562 37.101562 L 23.464844 42.734375 L 26.835938 35.992188 L 24.554688 43.179688 L 26.859375 37.570312 L 25.316406 43.441406 L 27.820312 36.335938 L 26.449219 43.75 L 28.039062 37.894531 L 27.238281 43.914062 L 28.839844 36.550781 L 28.402344 44.078125 L 29.25 38.074219 L 29.207031 44.144531 L 29.882812 36.636719 L 30.382812 44.160156 L 30.476562 38.097656 L 31.1875 44.125 L 30.921875 36.59375 L 32.355469 44 L 31.695312 37.96875 L 33.148438 43.859375 L 31.953125 36.421875 L 34.292969 43.589844 L 32.890625 37.6875 L 35.066406 43.355469 L 32.953125 36.121094 L 36.167969 42.941406 L 34.039062 37.261719 L 36.902344 42.613281 L 33.90625 35.699219 L 37.945312 42.070312 L 35.128906 36.695312 L 38.632812 41.652344 L 35.089844 35.648438 L 35.203125 35.648438 L 39.597656 40.980469 L 36.136719 36 L 40.230469 40.480469 L 36.496094 35.648438 L 36.820312 35.648438 L 41.105469 39.695312 L 37.46875 35.648438 L 37.597656 35.648438 L 41.671875 39.121094 L 38.21875 35.648438 L 38.914062 35.648438 L 42.441406 38.234375 L 39.460938 35.648438 L 39.972656 35.648438 L 42.929688 37.59375 L 40.445312 35.648438 L 41.847656 35.648438 L 43.585938 36.613281 L 42.140625 35.648438 L 43.441406 35.648438 L 43.992188 35.917969 L 43.539062 35.648438 L 50.699219 35.648438 C 47.660156 44.113281 39.554688 50.183594 30.058594 50.183594 Z M 9.242188 35.136719 C 8.527344 32.972656 8.136719 30.664062 8.136719 28.261719 C 8.136719 26.046875 8.46875 23.90625 9.085938 21.886719 L 51.039062 21.886719 C 51.65625 23.902344 51.988281 26.046875 51.988281 28.261719 C 51.988281 30.664062 51.597656 32.972656 50.882812 35.136719 Z M 9.242188 35.136719 " fill-opacity="1" fill-rule="nonzero"/><path fill="#ffffff" d="M 46.328125 12 C 41.980469 7.652344 36.207031 5.261719 30.0625 5.261719 C 23.917969 5.261719 18.140625 7.652344 13.796875 12 C 9.449219 16.34375 7.058594 22.121094 7.058594 28.265625 C 7.058594 34.410156 9.449219 40.1875 13.796875 44.53125 C 18.140625 48.875 23.917969 51.269531 30.0625 51.269531 C 36.207031 51.269531 41.984375 48.875 46.328125 44.53125 C 50.671875 40.1875 53.066406 34.410156 53.066406 28.265625 C 53.066406 22.121094 50.671875 16.34375 46.328125 12 Z M 30.0625 51.179688 C 17.425781 51.179688 7.144531 40.902344 7.144531 28.265625 C 7.144531 15.628906 17.425781 5.347656 30.0625 5.347656 C 42.699219 5.347656 52.980469 15.625 52.980469 28.265625 C 52.980469 40.902344 42.699219 51.183594 30.0625 51.183594 Z M 30.0625 51.179688 " fill-opacity="1" fill-rule="nonzero"/></g><g fill="#ffffff" fill-opacity="1"><g transform="translate(12.02878, 34.252689)"><g><path d="M 3.089844 0.15625 C 5.039062 0.15625 6.285156 -0.953125 6.316406 -2.667969 C 6.332031 -3.835938 5.894531 -4.664062 4.492188 -5.757812 C 4.101562 -6.066406 3.664062 -6.410156 3.183594 -6.816406 C 2.480469 -7.394531 2.121094 -7.878906 2.121094 -8.6875 C 2.136719 -9.46875 2.605469 -10 3.417969 -10 C 3.820312 -9.984375 4.226562 -9.875 4.476562 -9.71875 L 4.476562 -7.957031 L 5.878906 -7.957031 L 5.878906 -10.515625 C 5.320312 -10.902344 4.382812 -11.308594 3.433594 -11.324219 C 1.777344 -11.324219 0.640625 -10.203125 0.640625 -8.625 C 0.640625 -7.441406 1.09375 -6.582031 2.246094 -5.648438 C 2.699219 -5.273438 3.105469 -4.914062 3.511719 -4.601562 C 4.460938 -3.835938 4.820312 -3.371094 4.820312 -2.636719 C 4.820312 -1.746094 4.195312 -1.171875 3.089844 -1.171875 C 2.214844 -1.171875 1.480469 -1.933594 1.277344 -2.292969 L 0.203125 -1.417969 C 0.5625 -0.75 1.574219 0.15625 3.089844 0.15625 Z M 3.089844 0.15625 "/></g></g></g><g fill="#ffffff" fill-opacity="1"><g transform="translate(17.829647, 34.252689)"><g><path d="M 1.140625 0.015625 L 2.667969 0.015625 L 2.667969 -11.183594 L 1.140625 -11.183594 Z M 1.140625 0.015625 "/></g></g></g><g fill="#ffffff" fill-opacity="1"><g transform="translate(20.433378, 34.252689)"><g><path d="M 3.945312 0.15625 C 5.335938 0.15625 6.316406 -0.34375 6.910156 -1 L 6.910156 -6.347656 L 3.835938 -6.347656 L 3.835938 -5.023438 L 5.398438 -5.023438 L 5.398438 -1.636719 C 5.398438 -1.605469 4.914062 -1.171875 3.945312 -1.171875 C 2.917969 -1.171875 2.417969 -1.636719 2.417969 -2.558594 L 2.417969 -8.609375 C 2.417969 -9.515625 2.933594 -10 3.882812 -10 C 4.304688 -10 4.820312 -9.875 5.195312 -9.734375 L 5.195312 -8.128906 L 6.597656 -8.128906 L 6.597656 -10.53125 C 6.019531 -10.886719 5.070312 -11.308594 3.898438 -11.324219 C 2.121094 -11.355469 0.90625 -10.25 0.90625 -8.625 L 0.90625 -2.542969 C 0.90625 -0.90625 2.121094 0.15625 3.945312 0.15625 Z M 3.945312 0.15625 "/></g></g></g><g fill="#ffffff" fill-opacity="1"><g transform="translate(27.123205, 34.252689)"><g><path d="M 5.773438 -11.183594 L 5.773438 -4.789062 L 5.894531 -2.667969 C 5.894531 -2.699219 5.601562 -4.132812 5.304688 -4.882812 L 2.808594 -11.183594 L 1.140625 -11.183594 L 1.140625 0 L 2.589844 0 L 2.589844 -6.691406 L 2.449219 -8.84375 C 2.464844 -8.8125 2.761719 -7.222656 3.121094 -6.394531 L 5.773438 0 L 7.238281 0 L 7.238281 -11.183594 Z M 5.773438 -11.183594 "/></g></g></g><g fill="#ffffff" fill-opacity="1"><g transform="translate(34.296507, 34.252689)"><g><path d="M 2.652344 -1.324219 L 2.652344 -5.117188 L 5.972656 -5.117188 L 5.972656 -6.441406 L 2.652344 -6.441406 L 2.652344 -9.859375 L 6.269531 -9.859375 L 6.269531 -11.183594 L 1.140625 -11.183594 L 1.140625 0 L 6.285156 0 L 6.285156 -1.324219 Z M 2.652344 -1.324219 "/></g></g></g><g fill="#ffffff" fill-opacity="1"><g transform="translate(39.894636, 34.252689)"><g><path d="M 6.722656 -11.183594 L 0.359375 -11.183594 L 0.359375 -9.859375 L 2.792969 -9.859375 L 2.792969 0 L 4.304688 0 L 4.304688 -9.859375 L 6.722656 -9.859375 Z M 6.722656 -11.183594 "/></g></g></g><g fill="#ffffff" fill-opacity="1"><g transform="translate(59.382544, 47.152577)"><g><path d="M 10.460938 0.527344 C 17.0625 0.527344 21.289062 -3.222656 21.394531 -9.035156 C 21.449219 -12.996094 19.96875 -15.796875 15.214844 -19.496094 C 13.894531 -20.550781 12.414062 -21.714844 10.777344 -23.085938 C 8.398438 -25.042969 7.183594 -26.679688 7.183594 -29.425781 C 7.238281 -32.066406 8.824219 -33.863281 11.570312 -33.863281 C 12.945312 -33.8125 14.316406 -33.441406 15.164062 -32.914062 L 15.164062 -26.945312 L 19.917969 -26.945312 L 19.917969 -35.609375 C 18.015625 -36.929688 14.84375 -38.300781 11.621094 -38.355469 C 6.023438 -38.355469 2.167969 -34.550781 2.167969 -29.214844 C 2.167969 -25.199219 3.699219 -22.292969 7.609375 -19.125 C 9.140625 -17.855469 10.511719 -16.640625 11.886719 -15.585938 C 15.109375 -12.996094 16.324219 -11.410156 16.324219 -8.929688 C 16.324219 -5.917969 14.210938 -3.960938 10.460938 -3.960938 C 7.5 -3.960938 5.019531 -6.550781 4.332031 -7.765625 L 0.6875 -4.808594 C 1.902344 -2.535156 5.335938 0.527344 10.460938 0.527344 Z M 10.460938 0.527344 "/></g></g></g><g fill="#ffffff" fill-opacity="1"><g transform="translate(79.034593, 47.152577)"><g><path d="M 3.855469 0.0546875 L 9.035156 0.0546875 L 9.035156 -37.878906 L 3.855469 -37.878906 Z M 3.855469 0.0546875 "/></g></g></g><g fill="#ffffff" fill-opacity="1"><g transform="translate(87.856783, 47.152577)"><g><path d="M 13.367188 0.527344 C 18.066406 0.527344 21.394531 -1.164062 23.402344 -3.382812 L 23.402344 -21.503906 L 12.996094 -21.503906 L 12.996094 -17.011719 L 18.28125 -17.011719 L 18.28125 -5.546875 C 18.28125 -5.441406 16.640625 -3.960938 13.367188 -3.960938 C 9.878906 -3.960938 8.1875 -5.546875 8.1875 -8.664062 L 8.1875 -29.164062 C 8.1875 -32.226562 9.933594 -33.863281 13.15625 -33.863281 C 14.582031 -33.863281 16.324219 -33.441406 17.59375 -32.964844 L 17.59375 -27.523438 L 22.347656 -27.523438 L 22.347656 -35.660156 C 20.390625 -36.875 17.167969 -38.300781 13.207031 -38.355469 C 7.183594 -38.460938 3.0625 -34.710938 3.0625 -29.214844 L 3.0625 -8.613281 C 3.0625 -3.0625 7.183594 0.527344 13.367188 0.527344 Z M 13.367188 0.527344 "/></g></g></g><g fill="#ffffff" fill-opacity="1"><g transform="translate(110.520067, 47.152577)"><g><path d="M 19.546875 -37.878906 L 19.546875 -16.21875 L 19.96875 -9.035156 C 19.96875 -9.140625 18.964844 -14 17.960938 -16.535156 L 9.507812 -37.878906 L 3.855469 -37.878906 L 3.855469 0 L 8.769531 0 L 8.769531 -22.664062 L 8.292969 -29.953125 C 8.347656 -29.847656 9.351562 -24.460938 10.566406 -21.660156 L 19.546875 0 L 24.511719 0 L 24.511719 -37.878906 Z M 19.546875 -37.878906 "/></g></g></g><g fill="#ffffff" fill-opacity="1"><g transform="translate(134.821039, 47.152577)"><g><path d="M 8.980469 -4.492188 L 8.980469 -17.328125 L 20.234375 -17.328125 L 20.234375 -21.820312 L 8.980469 -21.820312 L 8.980469 -33.390625 L 21.238281 -33.390625 L 21.238281 -37.878906 L 3.855469 -37.878906 L 3.855469 0 L 21.289062 0 L 21.289062 -4.492188 Z M 8.980469 -4.492188 "/></g></g></g><g fill="#ffffff" fill-opacity="1"><g transform="translate(153.786323, 47.152577)"><g><path d="M 22.769531 -37.878906 L 1.214844 -37.878906 L 1.214844 -33.390625 L 9.457031 -33.390625 L 9.457031 0 L 14.582031 0 L 14.582031 -33.390625 L 22.769531 -33.390625 Z M 22.769531 -37.878906 "/></g></g></g></svg>