<?xml version="1.0" encoding="utf-8"?>
<!-- Generator: Adobe Illustrator 26.0.2, SVG Export Plug-In . SVG Version: 6.00 Build 0)  -->
<svg version="1.1" id="TextArea" shape-rendering="auto"
	 xmlns="http://www.w3.org/2000/svg" xmlns:xlink="http://www.w3.org/1999/xlink" x="0px" y="0px" viewBox="0 0 395.3 490.9"
	 style="enable-background:new 0 0 395.3 490.9;" xml:space="preserve">
<style type="text/css">
	.st0{fill:#FFFFFF;}
</style>
<path d="M19.4,489.9h355.8c10.7,0,19.4-8.8,19.4-19.4V19.4c0-10.7-8.8-19.4-19.4-19.4H19.5C8.8,0,0.1,8.8,0,19.4v451.2
	C0,481.3,8.8,489.9,19.4,489.9z"/>
<path class="st0" d="M15,25.3c0-5.8,4.7-10.5,10.5-10.5h343.7c5.8,0,10.5,4.7,10.5,10.5v343.9c0,5.8-4.7,10.5-10.5,10.5H25.4
	c-5.8,0-10.5-4.7-10.5-10.5V25.3H15z"/>
<path class="st0" d="M95.8,451c0,3.8-1.4,6.9-4.1,9s-6.6,3.4-11.6,3.4c-5.2,0-9.3-0.7-12.2-2.1V456c1.8,0.8,4,1.4,6.2,1.8
	c2.3,0.4,4.2,0.7,6.2,0.7c3.3,0,5.8-0.6,7.5-1.8c1.7-1.3,2.5-3,2.5-5.2c0-1.4-0.3-2.7-0.8-3.7c-0.6-1-1.6-1.8-3-2.7
	c-1.4-0.8-3.5-1.7-6.5-2.8c-4.1-1.6-7.1-3.3-8.8-5.2c-1.7-2-2.7-4.7-2.7-7.8c0-3.4,1.3-6.2,3.8-8.2s5.9-3.1,10.2-3.1
	c4.4,0,8.5,0.8,12.2,2.5l-1.7,4.8c-3.8-1.6-7.3-2.4-10.6-2.4c-2.7,0-4.7,0.6-6.2,1.7c-1.4,1.1-2.3,2.7-2.3,4.8
	c0,1.4,0.3,2.7,0.8,3.7c0.6,1,1.6,1.8,2.8,2.5c1.3,0.7,3.3,1.7,6.1,2.7c3.3,1.3,5.8,2.4,7.3,3.5c1.6,1.1,2.8,2.4,3.5,4
	C95.4,447.2,95.8,449,95.8,451z M123.7,423c-4.8,0-8.5,1.6-11.2,4.8c-2.7,3.3-4.1,7.5-4.1,13c0,5.7,1.3,10,4,13.1s6.4,4.7,11.3,4.7
	c3.1,0,6.6-0.6,10.6-1.7v4.8c-1.8,0.7-3.7,1.1-5.4,1.4s-3.7,0.4-5.9,0.4c-6.5,0-11.4-2-15-5.9c-3.5-4-5.2-9.6-5.2-16.8
	c0-4.5,0.8-8.5,2.5-12c1.7-3.4,4.1-6.1,7.3-7.9c3.3-1.8,6.9-2.8,11.3-2.8c4.7,0,8.8,0.8,12.2,2.5l-2.3,4.7
	C130.2,423.7,126.8,423,123.7,423z M171.6,462.9l-5.4-13.7h-17.5l-5.2,13.7h-5.7l17.2-44.4h4.9l17.2,44.4H171.6z M164.5,444.2
	l-4.9-13.4l-2.1-6.6c-0.6,2.4-1.3,4.7-1.8,6.6l-4.9,13.4H164.5z M218.4,462.9h-6.5l-23.6-36.7H188l0.1,2.4c0.3,3.7,0.4,6.8,0.4,9.6
	v24.7h-5.1v-44.2h6.5l1.4,2.1l14.6,22.5l7.8,12h0.3c0-0.4-0.1-2.3-0.3-5.2c-0.1-3-0.1-5.1-0.1-6.5v-24.9h5.2v44.2H218.4z M266,462.9
	l-14.6-38.7h-0.3c0.3,3.3,0.4,7.2,0.4,11.9V463h-5.1v-44.2h8.2l13.6,36.2h0.3l13.9-36.2h8.2V463h-5.5v-27.1c0-3,0.1-6.9,0.4-11.4
	h-0.3L270.5,463H266V462.9z M327.3,462.9h-24.7v-44.2h24.7v4.9h-19.2v13.7h18v4.8h-18v15.8h19.1v4.9h0.1V462.9z"/>
</svg>
