<?xml version="1.0" encoding="utf-8"?>
<!-- Generator: Adobe Illustrator 26.0.2, SVG Export Plug-In . SVG Version: 6.00 Build 0)  -->
<svg version="1.1" id="TextArea" shape-rendering="auto"
	 xmlns="http://www.w3.org/2000/svg" xmlns:xlink="http://www.w3.org/1999/xlink" x="0px" y="0px" viewBox="0 0 398 569.7"
	 style="enable-background:new 0 0 398 569.7;" xml:space="preserve">
<style type="text/css">
	.st0{fill:#FFFFFF;}
</style>
<path d="M374.7,172.4H19.3C8.6,172.4,0,181.1,0,191.7V547c0,10.7,8.8,19.3,19.3,19.3h355.2c10.7,0,19.3-8.8,19.5-19.3V191.7
	C394,181,385.2,172.4,374.7,172.4z"/>
<path d="M17.6,0h358.1c9.6,0,17.5,7.8,17.5,17.5v78.6c0,9.6-7.8,17.5-17.5,17.5h-53.5l-26.5,40.7c-1.7,1.7-4.5,1.7-6.2,0L263,113.6
	H17.6c-9.6,0-17.5-7.8-17.5-17.5V17.5C0.1,7.8,7.9,0,17.6,0z"/>
<path class="st0" d="M379,541.1c0,5.8-4.7,10.4-10.4,10.4H25.3c-5.8,0-10.4-4.7-10.4-10.4V197.6c0-5.8,4.7-10.4,10.4-10.4h343.3
	c5.8,0,10.4,4.7,10.4,10.4L379,541.1L379,541.1z"/>
<path class="st0" d="M95.7,69.3c0,3.8-1.4,6.9-4.1,9S85,81.7,80,81.7c-5.2,0-9.3-0.7-12.1-2.1v-5.4c1.8,0.8,4,1.4,6.2,1.8
	c2.3,0.4,4.2,0.7,6.2,0.7c3.2,0,5.8-0.6,7.5-1.8c1.7-1.3,2.5-3,2.5-5.2c0-1.4-0.3-2.7-0.8-3.7s-1.6-1.8-3-2.7S83,61.7,80,60.6
	c-4.1-1.6-7.1-3.2-8.8-5.2s-2.7-4.7-2.7-7.8c0-3.4,1.3-6.2,3.8-8.2s5.9-3.1,10.2-3.1c4.4,0,8.5,0.8,12.1,2.5L93,43.6
	c-3.8-1.6-7.3-2.4-10.6-2.4c-2.7,0-4.7,0.6-6.2,1.7C74.8,44,74,45.6,74,47.7c0,1.4,0.3,2.7,0.8,3.7c0.6,1,1.6,1.8,2.8,2.5
	c1.3,0.8,3.2,1.7,6.1,2.7c3.2,1.3,5.8,2.4,7.3,3.5c1.6,1.1,2.8,2.4,3.5,4C95.3,65.5,95.7,67.3,95.7,69.3z M123.5,41.4
	c-4.8,0-8.5,1.6-11.2,4.8s-4.1,7.5-4.1,13c0,5.6,1.3,10,4,13.1c2.7,3.1,6.4,4.7,11.3,4.7c3.1,0,6.6-0.6,10.6-1.7V80
	c-1.8,0.7-3.7,1.1-5.4,1.4s-3.7,0.4-5.9,0.4c-6.5,0-11.4-2-15-5.9c-3.5-4-5.2-9.6-5.2-16.8c0-4.5,0.8-8.5,2.5-12
	c1.7-3.4,4.1-6.1,7.3-7.9c3.2-1.8,6.9-2.8,11.3-2.8c4.7,0,8.8,0.8,12.1,2.5l-2.4,4.8C130,42.1,126.6,41.4,123.5,41.4z M171.4,81.2
	L166,67.5h-17.5l-5.2,13.7h-5.6l17.2-44.3h4.9L177,81.2H171.4z M164.3,62.5l-4.9-13.4l-2.1-6.6c-0.6,2.4-1.3,4.7-1.8,6.6l-4.9,13.4
	H164.3z M218.1,81.2h-6.5L188,44.5h-0.3l0.1,2.4c0.3,3.7,0.4,6.8,0.4,9.6v24.7h-5.1V37h6.5l1.4,2.1l14.5,22.4l7.8,12h0.3
	c0-0.4-0.1-2.3-0.3-5.2c-0.1-3-0.1-5.1-0.1-6.5V37h5.2v44.2H218.1z M265.7,81.2l-14.5-38.7h-0.3c0.3,3.2,0.4,7.2,0.4,11.9v26.8h-5.1
	V37h8.2L268,73.1h0.3L282.1,37h8.2v44.2h-5.5V54.1c0-3,0.1-6.9,0.4-11.4h-0.3l-14.7,38.7h-4.5V81.2z M326.9,81.2h-24.7V37h24.7v4.9
	h-19.2v13.7h17.9v4.8h-17.9v15.8h19.1v4.9L326.9,81.2L326.9,81.2z"/>
</svg>
