<?xml version="1.0" encoding="utf-8"?>
<!-- Generator: Adobe Illustrator 26.0.2, SVG Export Plug-In . SVG Version: 6.00 Build 0)  -->
<svg version="1.1" id="TextArea" shape-rendering="auto"
	 xmlns="http://www.w3.org/2000/svg" xmlns:xlink="http://www.w3.org/1999/xlink" x="0px" y="0px" viewBox="0 0 393 509.7"
	 style="enable-background:new 0 0 393 509.7;" xml:space="preserve">
<style type="text/css">
	.st0{fill:#FFFFFF;}
	.st1{fill-opacity:0;}
</style>
<path d="M340.6,406H50.3C22.6,406,0,428.5,0,456.4l0,0c0,27.7,22.6,50.3,50.3,50.3h290.1c27.7,0,50.3-22.6,50.3-50.3l0,0
	C390.9,428.5,368.3,406,340.6,406L340.6,406z"/>
<path d="M371.7,0H19.2C8.5,0,0,8.5,0,19.2v352.6C0,382.3,8.5,391,19.2,391h352.6c10.5,0,19.2-8.5,19.2-19.2V19.2
	C390.9,8.5,382.3,0,371.7,0z"/>
<path class="st0" d="M376.2,365.8c0,5.7-4.6,10.4-10.4,10.4H25.1c-5.7,0-10.4-4.6-10.4-10.4V25.1c0-5.7,4.6-10.4,10.4-10.4h340.7
	c5.7,0,10.4,4.6,10.4,10.4V365.8z"/>
<path id="IconCircle" d="M50.3,416.4c-22.1,0-39.9,17.8-39.9,39.9s17.8,39.9,39.9,39.9s39.9-17.8,39.9-39.9
	C90.2,434.3,72.4,416.4,50.3,416.4z"/>
<path id="IconCircle_00000040539546998537272430000000427422127615094668_" class="st0" d="M50.3,416.4c-22.1,0-39.9,17.8-39.9,39.9
	s17.8,39.9,39.9,39.9s39.9-17.8,39.9-39.9C90.2,434.3,72.4,416.4,50.3,416.4z"/>
<path id="IconCircleOutline" class="st1" d="M50.3,419.2c20.5,0,37.1,16.7,37.1,37.1s-16.7,37.1-37.1,37.1s-37.1-16.7-37.1-37.1
	C13.2,435.8,29.8,419.2,50.3,419.2 M50.3,416.4c-22.1,0-39.9,17.8-39.9,39.9s17.8,39.9,39.9,39.9s39.9-17.8,39.9-39.9
	C90.2,434.3,72.4,416.4,50.3,416.4L50.3,416.4z"/>
<path id="PhoneIcon" d="M67.5,430.8V449v2.8v29.4c0,3.2-2.7,5.7-5.7,5.7H37c-3.2,0-5.7-2.7-5.7-5.7v-29.4V449v-18.2
	c0-3.2,2.7-5.7,5.7-5.7h24.8C64.9,425,67.5,427.7,67.5,430.8z M41.9,431.1c0,1.5,1.3,2.7,2.7,2.7h9.5c1.5,0,2.7-1.3,2.7-2.7
	s-1.3-2.7-2.7-2.7h-9.4C43.1,428.4,41.9,429.5,41.9,431.1z M63.2,437.7l-27.9-0.3v37.3h27.9C63.2,474.7,63.2,437.7,63.2,437.7z
	 M45.5,480.8c0,2,1.8,3.8,3.8,3.8s3.8-1.8,3.8-3.8s-1.8-3.8-3.8-3.8C47.4,476.9,45.5,478.7,45.5,480.8z"/>
<path id="PhoneIconBlack" class="st1" d="M67.5,430.8V449v2.8v29.4c0,3.2-2.7,5.7-5.7,5.7H37c-3.2,0-5.7-2.7-5.7-5.7v-29.4V449
	v-18.2c0-3.2,2.7-5.7,5.7-5.7h24.8C64.9,425,67.5,427.7,67.5,430.8z M41.9,431.1c0,1.5,1.3,2.7,2.7,2.7h9.5c1.5,0,2.7-1.3,2.7-2.7
	s-1.3-2.7-2.7-2.7h-9.4C43.1,428.4,41.9,429.5,41.9,431.1z M63.2,437.7l-27.9-0.3v37.3h27.9C63.2,474.7,63.2,437.7,63.2,437.7z
	 M45.5,480.8c0,2,1.8,3.8,3.8,3.8s3.8-1.8,3.8-3.8s-1.8-3.8-3.8-3.8C47.4,476.9,45.5,478.7,45.5,480.8z"/>
<path class="st0" d="M137.9,467.6c0,3.2-1.1,5.7-3.5,7.7c-2.4,1.8-5.6,2.8-9.8,2.8c-4.5,0-7.8-0.6-10.2-1.8v-4.5
	c1.5,0.7,3.4,1.3,5.2,1.5c1.8,0.4,3.6,0.6,5.3,0.6c2.8,0,4.9-0.6,6.3-1.5c1.4-1.1,2.1-2.5,2.1-4.5c0-1.3-0.3-2.2-0.7-3.1
	c-0.6-0.8-1.4-1.5-2.5-2.2s-3.1-1.5-5.5-2.4c-3.5-1.3-5.9-2.8-7.4-4.5s-2.2-3.9-2.2-6.6c0-2.9,1.1-5.2,3.2-7c2.2-1.7,5-2.5,8.7-2.5
	c3.8,0,7.1,0.7,10.2,2.1l-1.4,4.1c-3.2-1.3-6.2-2-9-2c-2.2,0-3.9,0.4-5.2,1.4c-1.3,1-1.8,2.2-1.8,4.1c0,1.3,0.3,2.2,0.7,3.1
	c0.4,0.8,1.3,1.5,2.4,2.2s2.8,1.4,5,2.2c2.8,1,4.9,2,6.2,2.9c1.4,1,2.4,2.1,3.1,3.4C137.6,464.4,137.9,465.9,137.9,467.6z
	 M161.4,443.8c-4.1,0-7.1,1.4-9.5,4.1c-2.2,2.7-3.5,6.3-3.5,11.1s1.1,8.5,3.4,11.2c2.2,2.7,5.5,3.9,9.5,3.9c2.7,0,5.6-0.6,9-1.5v4.1
	c-1.5,0.6-3.1,1-4.6,1.1c-1.4,0.3-3.1,0.3-5,0.3c-5.5,0-9.7-1.7-12.7-5c-2.9-3.4-4.5-8.1-4.5-14.1c0-3.8,0.7-7.3,2.1-10.1
	c1.4-2.8,3.5-5.2,6.2-6.7s5.9-2.4,9.5-2.4c3.9,0,7.4,0.7,10.4,2.2l-1.8,3.9C166.9,444.5,164,443.8,161.4,443.8z M201.9,477.6
	l-4.5-11.6h-14.8l-4.5,11.6h-4.8l14.6-37.5h4.2l14.6,37.5H201.9z M196,461.9l-4.2-11.3L190,445c-0.6,2.1-1,3.9-1.5,5.6l-4.2,11.3
	H196z M241.5,477.6H236l-20-31h-0.3l0.1,2.1c0.1,3.1,0.3,5.7,0.3,8.1v20.9h-4.3v-37.3h5.5l1.1,1.8l12.2,18.9l6.4,10.1h0.1
	c0-0.4-0.1-1.8-0.1-4.3c-0.1-2.5-0.1-4.3-0.1-5.5v-21h4.3v37.1L241.5,477.6L241.5,477.6z M281.7,477.6l-12.3-32.8h-0.1
	c0.3,2.7,0.4,6,0.4,10.1v22.7h-4.3v-37.3h7l11.5,30.5h0.1l11.8-30.5h6.9v37.3H298v-23c0-2.5,0.1-5.7,0.4-9.7h-0.1l-12.5,32.6
	L281.7,477.6L281.7,477.6z M333.6,477.6h-20.9v-37.3h20.9v4.2h-16.1v11.6h15.3v4.1h-15.3v13.3h16.1V477.6z"/>
</svg>
