<svg xmlns="http://www.w3.org/2000/svg" xmlns:xlink="http://www.w3.org/1999/xlink" width="500" zoomAndPan="magnify" viewBox="0 0 375 374.999991" height="500" preserveAspectRatio="xMidYMid meet" version="1.0"><path fill="#0fbc49" d="M 228.734375 2.929688 C 222.007812 2.671875 214.929688 4.449219 207.714844 8.234375 C 191.96875 16.511719 180.101562 14.796875 166.230469 8.234375 C 158.953125 4.773438 151.773438 3.027344 145.113281 3.222656 C 133.957031 3.578125 123.996094 9.398438 116.558594 21.492188 C 107.148438 36.851562 95.832031 40.699219 80.601562 42.285156 C 58.710938 44.515625 44.804688 56.511719 44.191406 78.660156 C 43.738281 96.671875 35.878906 105.628906 23.464844 114.621094 C 5.613281 127.488281 -0.367188 144.824219 10.171875 164.320312 C 18.742188 180.132812 16.445312 191.808594 10.171875 205.777344 C 1.183594 225.890625 4.578125 243.867188 23.464844 255.511719 C 38.757812 264.921875 42.640625 276.171875 44.191406 291.4375 C 46.453125 313.328125 58.484375 327.234375 80.601562 327.847656 C 98.582031 328.363281 107.601562 336.15625 116.558594 348.605469 C 129.882812 367.101562 146.4375 372.179688 166.230469 361.929688 C 182.171875 353.683594 193.78125 355.429688 207.714844 361.929688 C 227.894531 371.339844 244.160156 367.101562 257.417969 348.605469 C 266.375 336.15625 275.398438 328.363281 293.375 327.847656 C 315.527344 327.234375 327.554688 313.328125 329.785156 291.4375 C 331.339844 276.171875 335.21875 264.921875 350.515625 255.511719 C 369.433594 243.902344 372.859375 225.890625 363.835938 205.777344 C 357.53125 191.808594 355.269531 180.132812 363.835938 164.320312 C 374.378906 144.824219 368.398438 127.488281 350.515625 114.621094 C 338.097656 105.628906 330.273438 96.671875 329.785156 78.660156 C 329.203125 56.511719 315.269531 44.515625 293.375 42.285156 C 278.113281 40.699219 266.859375 36.851562 257.417969 21.492188 C 250.011719 9.398438 239.925781 3.316406 228.734375 2.929688 Z M 253.183594 114.8125 C 256.542969 114.910156 259.714844 116.109375 262.140625 118.402344 L 273.878906 129.882812 C 279.375 135.21875 278.628906 144.5625 272.292969 150.773438 L 169.238281 251.4375 C 164.222656 256.320312 154.75 256.675781 149.347656 251.4375 L 101.683594 204.839844 C 95.347656 198.664062 94.667969 189.316406 100.132812 183.980469 L 111.839844 172.503906 C 117.367188 167.167969 126.90625 167.8125 133.246094 173.988281 L 159.308594 199.4375 L 240.699219 119.921875 C 244.320312 116.464844 248.882812 114.71875 253.183594 114.8125 " fill-opacity="1" fill-rule="nonzero"/></svg>